{"glyphs":{"0":{"ha":929,"x_min":59,"x_max":870,"o":"m 465 -14 q 247 48 337 -14 q 107 225 156 110 q 59 505 59 341 q 107 784 59 668 q 247 963 156 901 q 465 1025 337 1025 q 683 962 592 1025 q 822 784 774 900 q 870 505 870 668 q 822 225 870 341 q 683 47 774 109 q 465 -14 593 -14 m 465 157 q 572 198 528 157 q 639 316 616 239 q 662 505 662 394 q 639 694 662 616 q 572 813 616 772 q 465 854 528 854 q 357 813 401 854 q 290 694 313 772 q 267 505 267 616 q 290 316 267 394 q 357 198 313 239 q 465 157 401 157 z "},"1":{"ha":586,"x_min":55,"x_max":498,"o":"m 498 1010 l 498 0 l 293 0 l 293 826 l 288 826 l 55 665 l 55 853 l 284 1010 l 498 1010 z "},"2":{"ha":865,"x_min":69,"x_max":794,"o":"m 77 0 l 77 150 l 438 481 q 516 561 484 526 q 566 632 549 597 q 584 710 584 668 q 564 789 584 756 q 508 841 543 823 q 425 859 472 859 q 341 839 377 859 q 286 781 305 819 q 266 692 266 744 l 69 692 q 114 868 69 793 q 240 984 159 943 q 427 1025 320 1025 q 613 986 533 1025 q 738 880 693 948 q 783 723 783 812 q 760 608 783 663 q 682 487 736 552 q 530 334 627 422 l 363 176 l 363 170 l 794 170 l 794 0 l 77 0 z "},"3":{"ha":888,"x_min":62,"x_max":829,"o":"m 444 -14 q 245 26 330 -14 q 112 135 160 66 q 62 294 64 205 l 269 294 q 293 221 271 252 q 355 172 316 189 q 444 155 394 155 q 533 173 494 155 q 594 222 572 191 q 616 296 616 254 q 593 370 616 338 q 527 420 570 402 q 425 438 484 438 l 333 438 l 333 592 l 425 592 q 514 609 476 592 q 573 656 552 626 q 595 727 595 686 q 576 797 595 767 q 524 844 557 827 q 445 861 490 861 q 363 844 399 861 q 304 797 326 827 q 281 725 282 767 l 83 725 q 131 881 84 813 q 260 986 178 948 q 446 1025 342 1025 q 628 987 550 1025 q 750 885 707 949 q 794 741 794 821 q 741 600 794 656 q 604 526 688 543 l 604 519 q 727 478 677 510 q 804 396 778 446 q 829 283 829 346 q 780 130 829 197 q 644 24 730 62 q 444 -14 557 -14 z "},"4":{"ha":933,"x_min":62,"x_max":876,"o":"m 62 188 l 62 351 l 490 1010 l 627 1010 l 627 789 l 547 789 l 269 361 l 269 354 l 876 354 l 876 188 l 62 188 m 550 0 l 550 237 l 553 311 l 553 1010 l 749 1010 l 749 0 l 550 0 z "},"5":{"ha":857,"x_min":58,"x_max":798,"o":"m 424 -14 q 238 25 319 -14 q 109 132 156 64 q 58 290 61 201 l 259 290 q 283 217 261 249 q 343 168 306 185 q 425 150 380 150 q 514 173 475 150 q 576 237 553 196 q 598 332 598 278 q 575 428 598 386 q 513 493 553 470 q 422 517 474 517 q 329 496 372 517 q 264 441 286 476 l 77 467 l 122 1010 l 742 1010 l 742 840 l 296 840 l 272 588 l 277 588 q 360 649 307 626 q 477 671 413 671 q 604 647 546 671 q 706 577 663 622 q 774 471 749 532 q 798 337 798 410 q 751 156 798 235 q 620 32 704 77 q 424 -14 536 -14 z "},"6":{"ha":892,"x_min":59,"x_max":833,"o":"m 458 -14 q 306 13 378 -14 q 178 99 233 41 q 91 252 123 158 q 59 481 59 347 q 87 708 59 608 q 168 880 115 809 q 297 987 221 950 q 467 1025 372 1025 q 643 986 566 1025 q 766 881 720 947 q 823 731 813 815 l 621 731 q 568 818 609 787 q 466 850 528 850 q 352 811 398 850 q 283 700 307 772 q 260 529 260 627 l 265 529 q 327 602 289 572 q 413 649 365 633 q 516 665 462 665 q 679 623 608 665 q 792 506 751 581 q 833 336 833 432 q 786 155 833 234 q 654 31 739 76 q 458 -14 570 -14 m 457 150 q 547 174 507 150 q 610 239 587 198 q 633 332 633 281 q 610 424 633 383 q 549 488 588 465 q 459 512 509 512 q 389 498 421 512 q 333 459 357 484 q 296 402 309 435 q 283 332 283 369 q 306 240 283 281 q 368 174 328 199 q 457 150 408 150 z "},"7":{"ha":798,"x_min":46,"x_max":751,"o":"m 116 0 l 537 833 l 537 839 l 46 839 l 46 1010 l 751 1010 l 751 837 l 330 0 l 116 0 z "},"8":{"ha":893,"x_min":59,"x_max":834,"o":"m 446 -14 q 245 23 333 -14 q 109 124 158 60 q 59 271 59 189 q 88 389 59 336 q 168 477 117 442 q 282 523 218 513 l 282 528 q 147 606 199 544 q 95 753 95 668 q 140 893 95 831 q 265 989 186 954 q 446 1025 344 1025 q 627 989 548 1025 q 752 893 707 954 q 798 753 798 831 q 745 606 798 668 q 610 528 693 544 l 610 523 q 724 477 673 513 q 805 389 775 442 q 834 271 834 336 q 784 124 834 189 q 647 23 734 60 q 446 -14 559 -14 m 446 139 q 537 158 498 139 q 597 210 576 176 q 619 288 619 243 q 597 367 619 332 q 535 421 574 401 q 446 441 496 441 q 357 421 396 441 q 295 367 317 401 q 273 288 273 332 q 294 210 273 243 q 355 158 316 176 q 446 139 394 139 m 446 593 q 523 611 490 593 q 576 660 557 628 q 595 731 595 691 q 576 803 595 772 q 524 850 557 833 q 446 867 490 867 q 368 850 401 867 q 316 803 334 833 q 297 731 297 772 q 316 660 297 691 q 368 611 334 629 q 446 593 402 593 z "},"9":{"ha":892,"x_min":59,"x_max":833,"o":"m 426 -16 q 249 23 326 -16 q 126 130 172 62 q 69 280 79 197 l 271 280 q 324 192 283 224 q 427 159 365 159 q 540 199 494 159 q 609 311 586 239 q 633 482 633 383 l 627 482 q 566 409 604 439 q 480 362 528 378 q 376 346 431 346 q 214 389 286 346 q 100 506 142 431 q 59 675 59 580 q 106 857 59 777 q 239 982 154 937 q 435 1026 323 1027 q 587 998 515 1025 q 714 911 659 970 q 802 758 770 852 q 833 530 833 664 q 805 302 833 403 q 724 130 777 201 q 595 22 671 59 q 426 -16 520 -16 m 433 499 q 504 513 471 499 q 559 552 536 528 q 597 610 583 577 q 610 680 610 642 q 588 771 610 730 q 525 836 565 812 q 435 861 486 861 q 346 837 386 861 q 283 771 306 812 q 260 679 260 730 q 282 587 260 628 q 344 523 305 547 q 433 499 383 499 z "},"\u0000":{"ha":730,"x_min":0,"x_max":0,"o":""},"A":{"ha":1027,"x_min":27,"x_max":1000,"o":"m 27 0 l 375 1010 l 645 1010 l 1000 0 l 769 0 l 608 488 q 548 693 578 583 q 484 936 518 804 l 532 936 q 470 693 498 804 q 413 488 441 582 l 255 0 l 27 0 m 245 231 l 245 395 l 782 395 l 782 231 l 245 231 z "},"Ä":{"ha":1027,"x_min":27,"x_max":1000,"o":"m 27 0 l 375 1010 l 645 1010 l 1000 0 l 769 0 l 608 488 q 548 693 578 583 q 484 936 518 804 l 532 936 q 470 693 498 804 q 413 488 441 582 l 255 0 l 27 0 m 245 231 l 245 395 l 782 395 l 782 231 l 245 231 m 663 1112 q 589 1142 619 1112 q 559 1213 559 1171 q 589 1284 559 1255 q 663 1313 619 1313 q 736 1284 706 1313 q 766 1213 766 1255 q 736 1141 766 1171 q 663 1112 706 1112 m 361 1112 q 289 1142 319 1112 q 258 1213 258 1171 q 289 1284 258 1255 q 361 1313 319 1313 q 435 1284 405 1313 q 465 1213 465 1255 q 435 1141 465 1171 q 361 1112 405 1112 z "},"Ã":{"ha":1027,"x_min":27,"x_max":1000,"o":"m 27 0 l 375 1010 l 645 1010 l 1000 0 l 769 0 l 608 488 q 548 693 578 583 q 484 936 518 804 l 532 936 q 470 693 498 804 q 413 488 441 582 l 255 0 l 27 0 m 245 231 l 245 395 l 782 395 l 782 231 l 245 231 m 608 1122 q 550 1132 575 1122 q 504 1157 524 1143 q 466 1181 484 1171 q 433 1192 449 1192 q 401 1173 412 1192 q 389 1126 390 1155 l 277 1126 q 317 1258 279 1212 q 418 1305 355 1305 q 476 1294 451 1305 q 520 1270 500 1284 q 557 1246 541 1257 q 592 1236 574 1236 q 626 1252 615 1236 q 638 1301 636 1269 l 748 1301 q 707 1169 746 1216 q 608 1122 668 1122 z "},"À":{"ha":1027,"x_min":27,"x_max":1000,"o":"m 27 0 l 375 1010 l 645 1010 l 1000 0 l 769 0 l 608 488 q 548 693 578 583 q 484 936 518 804 l 532 936 q 470 693 498 804 q 413 488 441 582 l 255 0 l 27 0 m 245 231 l 245 395 l 782 395 l 782 231 l 245 231 m 444 1105 l 297 1316 l 487 1316 l 587 1105 l 444 1105 z "},"Á":{"ha":1027,"x_min":27,"x_max":1000,"o":"m 27 0 l 375 1010 l 645 1010 l 1000 0 l 769 0 l 608 488 q 548 693 578 583 q 484 936 518 804 l 532 936 q 470 693 498 804 q 413 488 441 582 l 255 0 l 27 0 m 245 231 l 245 395 l 782 395 l 782 231 l 245 231 m 437 1105 l 536 1316 l 726 1316 l 579 1105 l 437 1105 z "},"Â":{"ha":1027,"x_min":27,"x_max":1000,"o":"m 27 0 l 375 1010 l 645 1010 l 1000 0 l 769 0 l 608 488 q 548 693 578 583 q 484 936 518 804 l 532 936 q 470 693 498 804 q 413 488 441 582 l 255 0 l 27 0 m 245 231 l 245 395 l 782 395 l 782 231 l 245 231 m 417 1111 l 244 1111 l 244 1115 l 433 1316 l 590 1316 l 780 1115 l 780 1111 l 607 1111 l 512 1226 l 417 1111 z "},"Å":{"ha":1027,"x_min":27,"x_max":1000,"o":"m 27 0 l 375 1010 l 645 1010 l 1000 0 l 769 0 l 608 488 q 548 693 578 583 q 484 936 518 804 l 532 936 q 470 693 498 804 q 413 488 441 582 l 255 0 l 27 0 m 245 231 l 245 395 l 782 395 l 782 231 l 245 231 m 513 1053 q 418 1074 459 1053 q 353 1134 376 1096 q 330 1217 330 1171 q 353 1301 330 1264 q 418 1360 376 1338 q 513 1382 459 1382 q 607 1360 566 1382 q 672 1301 648 1338 q 696 1217 696 1264 q 672 1133 696 1171 q 607 1074 648 1096 q 513 1053 566 1053 m 513 1142 q 568 1163 547 1142 q 590 1217 590 1185 q 568 1271 590 1250 q 513 1292 547 1292 q 457 1271 479 1292 q 435 1217 435 1250 q 457 1163 435 1185 q 513 1142 479 1142 z "},"Ǻ":{"ha":1027,"x_min":27,"x_max":1000,"o":"m 27 0 l 375 1010 l 645 1010 l 1000 0 l 769 0 l 608 488 q 548 693 578 583 q 484 936 518 804 l 532 936 q 470 693 498 804 q 413 488 441 582 l 255 0 l 27 0 m 245 231 l 245 395 l 782 395 l 782 231 l 245 231 m 448 1409 l 547 1549 l 716 1549 l 578 1409 l 448 1409 m 513 1051 q 418 1073 459 1051 q 353 1131 376 1094 q 330 1212 330 1167 q 353 1294 330 1257 q 418 1351 376 1330 q 513 1373 459 1373 q 607 1351 566 1373 q 672 1294 648 1330 q 696 1212 696 1257 q 672 1131 696 1167 q 607 1073 648 1094 q 513 1051 566 1051 m 513 1139 q 568 1159 547 1139 q 590 1212 590 1180 q 568 1264 590 1244 q 513 1285 547 1285 q 457 1264 479 1285 q 435 1212 435 1244 q 457 1159 435 1180 q 513 1139 479 1139 z "},"":{"ha":1027,"x_min":27,"x_max":1026,"o":"m 27 0 l 375 1010 l 645 1010 l 1000 0 l 769 0 l 608 488 q 548 693 578 583 q 484 936 518 804 l 532 936 q 470 693 498 804 q 413 488 441 582 l 255 0 l 27 0 m 245 231 l 245 395 l 782 395 l 782 231 l 245 231 m 513 1053 q 418 1074 459 1053 q 353 1134 376 1096 q 330 1217 330 1171 q 353 1301 330 1264 q 418 1360 376 1338 q 513 1382 459 1382 q 607 1360 566 1382 q 672 1301 648 1338 q 696 1217 696 1264 q 672 1133 696 1171 q 607 1074 648 1096 q 513 1053 566 1053 m 513 1142 q 568 1163 547 1142 q 590 1217 590 1185 q 568 1271 590 1250 q 513 1292 547 1292 q 457 1271 479 1292 q 435 1217 435 1250 q 457 1163 435 1185 q 513 1142 479 1142 m 886 -290 q 751 -252 805 -290 q 698 -146 698 -214 q 723 -59 698 -99 q 789 12 749 -19 l 1000 0 q 919 -56 945 -28 q 892 -116 892 -83 q 905 -152 892 -139 q 943 -165 918 -165 q 969 -161 956 -165 q 992 -153 981 -157 l 1026 -263 q 963 -282 1002 -275 q 886 -290 924 -290 z "},"Ā":{"ha":1027,"x_min":27,"x_max":1000,"o":"m 27 0 l 375 1010 l 645 1010 l 1000 0 l 769 0 l 608 488 q 548 693 578 583 q 484 936 518 804 l 532 936 q 470 693 498 804 q 413 488 441 582 l 255 0 l 27 0 m 245 231 l 245 395 l 782 395 l 782 231 l 245 231 m 709 1275 l 709 1146 l 316 1146 l 316 1275 l 709 1275 z "},"Ă":{"ha":1027,"x_min":27,"x_max":1000,"o":"m 27 0 l 375 1010 l 645 1010 l 1000 0 l 769 0 l 608 488 q 548 693 578 583 q 484 936 518 804 l 532 936 q 470 693 498 804 q 413 488 441 582 l 255 0 l 27 0 m 245 231 l 245 395 l 782 395 l 782 231 l 245 231 m 512 1103 q 393 1131 446 1103 q 310 1207 340 1159 q 279 1314 279 1255 l 397 1314 q 430 1242 397 1270 q 512 1214 463 1214 q 593 1242 561 1214 q 626 1314 626 1270 l 746 1314 q 715 1207 746 1255 q 631 1131 684 1159 q 512 1103 578 1103 z "},"Ą":{"ha":1027,"x_min":27,"x_max":1026,"o":"m 27 0 l 375 1010 l 645 1010 l 1000 0 l 769 0 l 608 488 q 548 693 578 583 q 484 936 518 804 l 532 936 q 470 693 498 804 q 413 488 441 582 l 255 0 l 27 0 m 245 231 l 245 395 l 782 395 l 782 231 l 245 231 m 886 -290 q 751 -252 805 -290 q 698 -146 698 -214 q 723 -59 698 -99 q 789 12 749 -19 l 1000 0 q 919 -56 945 -28 q 892 -116 892 -83 q 905 -152 892 -139 q 943 -165 918 -165 q 969 -161 956 -165 q 992 -153 981 -157 l 1026 -263 q 963 -282 1002 -275 q 886 -290 924 -290 z "},"Ǎ":{"ha":1027,"x_min":27,"x_max":1000,"o":"m 27 0 l 375 1010 l 645 1010 l 1000 0 l 769 0 l 608 488 q 548 693 578 583 q 484 936 518 804 l 532 936 q 470 693 498 804 q 413 488 441 582 l 255 0 l 27 0 m 245 231 l 245 395 l 782 395 l 782 231 l 245 231 m 417 1316 l 512 1201 l 607 1316 l 780 1316 l 780 1312 l 590 1111 l 433 1111 l 244 1312 l 244 1316 l 417 1316 z "},"Ǟ":{"ha":1027,"x_min":27,"x_max":1000,"o":"m 27 0 l 375 1010 l 645 1010 l 1000 0 l 769 0 l 608 488 q 548 693 578 583 q 484 936 518 804 l 532 936 q 470 693 498 804 q 413 488 441 582 l 255 0 l 27 0 m 245 231 l 245 395 l 782 395 l 782 231 l 245 231 m 663 1095 q 589 1124 619 1095 q 559 1196 559 1154 q 589 1267 559 1238 q 663 1296 619 1296 q 736 1267 706 1296 q 766 1196 766 1238 q 736 1124 766 1154 q 663 1095 706 1095 m 361 1095 q 289 1124 319 1095 q 258 1196 258 1154 q 289 1267 258 1238 q 361 1296 319 1296 q 435 1267 405 1296 q 465 1196 465 1238 q 435 1124 465 1154 q 361 1095 405 1095 m 709 1487 l 709 1377 l 317 1377 l 317 1487 l 709 1487 z "},"Ǡ":{"ha":1027,"x_min":27,"x_max":1000,"o":"m 27 0 l 375 1010 l 645 1010 l 1000 0 l 769 0 l 608 488 q 548 693 578 583 q 484 936 518 804 l 532 936 q 470 693 498 804 q 413 488 441 582 l 255 0 l 27 0 m 245 231 l 245 395 l 782 395 l 782 231 l 245 231 m 513 1090 q 434 1121 467 1090 q 401 1196 401 1152 q 434 1270 401 1240 q 513 1300 467 1300 q 593 1270 560 1300 q 625 1195 625 1240 q 593 1121 625 1152 q 513 1090 560 1090 m 709 1487 l 709 1377 l 317 1377 l 317 1487 l 709 1487 z "},"Ȁ":{"ha":1027,"x_min":27,"x_max":1000,"o":"m 27 0 l 375 1010 l 645 1010 l 1000 0 l 769 0 l 608 488 q 548 693 578 583 q 484 936 518 804 l 532 936 q 470 693 498 804 q 413 488 441 582 l 255 0 l 27 0 m 245 231 l 245 395 l 782 395 l 782 231 l 245 231 m 563 1105 l 447 1316 l 629 1316 l 705 1105 l 563 1105 m 326 1105 l 159 1316 l 353 1316 l 471 1105 l 326 1105 z "},"Ȃ":{"ha":1027,"x_min":27,"x_max":1000,"o":"m 27 0 l 375 1010 l 645 1010 l 1000 0 l 769 0 l 608 488 q 548 693 578 583 q 484 936 518 804 l 532 936 q 470 693 498 804 q 413 488 441 582 l 255 0 l 27 0 m 245 231 l 245 395 l 782 395 l 782 231 l 245 231 m 512 1325 q 634 1297 581 1325 q 718 1220 687 1268 q 749 1111 749 1171 l 629 1111 q 595 1184 629 1156 q 512 1213 561 1213 q 428 1184 463 1213 q 394 1111 394 1156 l 275 1111 q 306 1220 275 1171 q 391 1297 337 1268 q 512 1325 444 1325 z "},"Ȧ":{"ha":1027,"x_min":27,"x_max":1000,"o":"m 27 0 l 375 1010 l 645 1010 l 1000 0 l 769 0 l 608 488 q 548 693 578 583 q 484 936 518 804 l 532 936 q 470 693 498 804 q 413 488 441 582 l 255 0 l 27 0 m 245 231 l 245 395 l 782 395 l 782 231 l 245 231 m 513 1107 q 433 1138 466 1107 q 400 1213 400 1168 q 433 1287 400 1257 q 512 1318 466 1318 q 592 1287 559 1318 q 625 1213 625 1257 q 592 1138 625 1168 q 513 1107 559 1107 z "},"Ḁ":{"ha":1027,"x_min":27,"x_max":1000,"o":"m 27 0 l 375 1010 l 645 1010 l 1000 0 l 769 0 l 608 488 q 548 693 578 583 q 484 936 518 804 l 532 936 q 470 693 498 804 q 413 488 441 582 l 255 0 l 27 0 m 245 231 l 245 395 l 782 395 l 782 231 l 245 231 m 513 -360 q 424 -339 464 -360 q 361 -282 385 -318 q 338 -203 338 -247 q 361 -124 338 -159 q 424 -67 385 -88 q 513 -46 464 -46 q 601 -67 562 -46 q 664 -124 641 -88 q 688 -203 688 -159 q 664 -282 688 -247 q 601 -339 641 -318 q 513 -360 562 -360 m 513 -275 q 566 -254 544 -275 q 588 -203 588 -233 q 566 -152 588 -173 q 513 -132 545 -132 q 459 -152 481 -132 q 437 -203 437 -173 q 459 -254 437 -233 q 513 -275 481 -275 z "},"Ạ":{"ha":1027,"x_min":27,"x_max":1000,"o":"m 27 0 l 375 1010 l 645 1010 l 1000 0 l 769 0 l 608 488 q 548 693 578 583 q 484 936 518 804 l 532 936 q 470 693 498 804 q 413 488 441 582 l 255 0 l 27 0 m 245 231 l 245 395 l 782 395 l 782 231 l 245 231 m 513 -311 q 434 -280 467 -311 q 401 -205 401 -250 q 434 -131 401 -161 q 513 -100 467 -100 q 593 -131 560 -100 q 625 -205 625 -161 q 593 -280 625 -250 q 513 -311 560 -311 z "},"Ả":{"ha":1027,"x_min":27,"x_max":1000,"o":"m 27 0 l 375 1010 l 645 1010 l 1000 0 l 769 0 l 608 488 q 548 693 578 583 q 484 936 518 804 l 532 936 q 470 693 498 804 q 413 488 441 582 l 255 0 l 27 0 m 245 231 l 245 395 l 782 395 l 782 231 l 245 231 m 568 1105 l 446 1105 l 498 1196 q 499 1207 502 1204 q 489 1211 497 1211 l 382 1211 l 382 1316 l 490 1316 q 580 1301 547 1316 q 625 1263 612 1286 q 631 1211 637 1239 q 605 1155 625 1182 l 568 1105 z "},"Ấ":{"ha":1027,"x_min":27,"x_max":1000,"o":"m 27 0 l 375 1010 l 645 1010 l 1000 0 l 769 0 l 608 488 q 548 693 578 583 q 484 936 518 804 l 532 936 q 470 693 498 804 q 413 488 441 582 l 255 0 l 27 0 m 245 231 l 245 395 l 782 395 l 782 231 l 245 231 m 419 1095 l 246 1095 l 246 1099 l 435 1300 l 592 1300 l 782 1099 l 782 1095 l 609 1095 l 514 1210 l 419 1095 m 613 1347 l 701 1531 l 866 1531 l 736 1347 l 613 1347 z "},"Ầ":{"ha":1027,"x_min":27,"x_max":1000,"o":"m 27 0 l 375 1010 l 645 1010 l 1000 0 l 769 0 l 608 488 q 548 693 578 583 q 484 936 518 804 l 532 936 q 470 693 498 804 q 413 488 441 582 l 255 0 l 27 0 m 245 231 l 245 395 l 782 395 l 782 231 l 245 231 m 419 1095 l 246 1095 l 246 1099 l 435 1300 l 592 1300 l 782 1099 l 782 1095 l 609 1095 l 514 1210 l 419 1095 m 671 1347 l 542 1531 l 707 1531 l 795 1347 l 671 1347 z "},"Ẩ":{"ha":1027,"x_min":27,"x_max":1000,"o":"m 27 0 l 375 1010 l 645 1010 l 1000 0 l 769 0 l 608 488 q 548 693 578 583 q 484 936 518 804 l 532 936 q 470 693 498 804 q 413 488 441 582 l 255 0 l 27 0 m 245 231 l 245 395 l 782 395 l 782 231 l 245 231 m 419 1095 l 246 1095 l 246 1099 l 435 1300 l 592 1300 l 782 1099 l 782 1095 l 609 1095 l 514 1210 l 419 1095 m 719 1347 l 613 1347 l 656 1423 q 658 1434 661 1431 q 648 1438 656 1438 l 554 1438 l 554 1531 l 650 1531 q 745 1508 715 1531 q 775 1452 775 1486 q 749 1386 774 1419 l 719 1347 z "},"Ẫ":{"ha":1027,"x_min":27,"x_max":1000,"o":"m 27 0 l 375 1010 l 645 1010 l 1000 0 l 769 0 l 608 488 q 548 693 578 583 q 484 936 518 804 l 532 936 q 470 693 498 804 q 413 488 441 582 l 255 0 l 27 0 m 245 231 l 245 395 l 782 395 l 782 231 l 245 231 m 419 1095 l 246 1095 l 246 1099 l 435 1300 l 592 1300 l 782 1099 l 782 1095 l 609 1095 l 514 1210 l 419 1095 m 608 1356 q 551 1366 576 1356 q 505 1388 526 1375 q 468 1409 485 1400 q 434 1419 450 1419 q 402 1402 413 1419 q 390 1360 391 1385 l 278 1360 q 318 1479 280 1436 q 419 1521 357 1521 q 477 1512 452 1521 q 522 1490 502 1502 q 558 1468 541 1477 q 593 1459 576 1459 q 627 1474 616 1459 q 640 1518 637 1489 l 749 1518 q 708 1399 747 1441 q 608 1356 669 1356 z "},"Ậ":{"ha":1027,"x_min":27,"x_max":1000,"o":"m 27 0 l 375 1010 l 645 1010 l 1000 0 l 769 0 l 608 488 q 548 693 578 583 q 484 936 518 804 l 532 936 q 470 693 498 804 q 413 488 441 582 l 255 0 l 27 0 m 245 231 l 245 395 l 782 395 l 782 231 l 245 231 m 417 1111 l 244 1111 l 244 1115 l 433 1316 l 590 1316 l 780 1115 l 780 1111 l 607 1111 l 512 1226 l 417 1111 m 513 -311 q 434 -280 467 -311 q 401 -205 401 -250 q 434 -131 401 -161 q 513 -100 467 -100 q 593 -131 560 -100 q 625 -205 625 -161 q 593 -280 625 -250 q 513 -311 560 -311 z "},"Ắ":{"ha":1027,"x_min":27,"x_max":1000,"o":"m 27 0 l 375 1010 l 645 1010 l 1000 0 l 769 0 l 608 488 q 548 693 578 583 q 484 936 518 804 l 532 936 q 470 693 498 804 q 413 488 441 582 l 255 0 l 27 0 m 245 231 l 245 395 l 782 395 l 782 231 l 245 231 m 513 1086 q 395 1115 448 1086 q 311 1191 342 1143 q 280 1297 280 1238 l 399 1297 q 432 1226 399 1254 q 513 1198 465 1198 q 595 1226 562 1198 q 627 1297 627 1254 l 747 1297 q 716 1191 747 1238 q 633 1115 686 1143 q 513 1086 580 1086 m 451 1347 l 539 1531 l 704 1531 l 574 1347 l 451 1347 z "},"Ằ":{"ha":1027,"x_min":27,"x_max":1000,"o":"m 27 0 l 375 1010 l 645 1010 l 1000 0 l 769 0 l 608 488 q 548 693 578 583 q 484 936 518 804 l 532 936 q 470 693 498 804 q 413 488 441 582 l 255 0 l 27 0 m 245 231 l 245 395 l 782 395 l 782 231 l 245 231 m 511 1086 q 392 1115 445 1086 q 308 1191 339 1143 q 277 1297 277 1238 l 397 1297 q 430 1226 397 1254 q 511 1198 463 1198 q 593 1226 560 1198 q 626 1297 626 1254 l 745 1297 q 714 1191 745 1238 q 630 1115 683 1143 q 511 1086 577 1086 m 574 1347 l 451 1347 l 321 1531 l 486 1531 l 574 1347 z "},"Ẳ":{"ha":1027,"x_min":27,"x_max":1000,"o":"m 27 0 l 375 1010 l 645 1010 l 1000 0 l 769 0 l 608 488 q 548 693 578 583 q 484 936 518 804 l 532 936 q 470 693 498 804 q 413 488 441 582 l 255 0 l 27 0 m 245 231 l 245 395 l 782 395 l 782 231 l 245 231 m 513 1086 q 395 1115 448 1086 q 311 1191 342 1143 q 280 1297 280 1238 l 399 1297 q 432 1226 399 1254 q 513 1198 465 1198 q 595 1226 562 1198 q 627 1297 627 1254 l 747 1297 q 716 1191 747 1238 q 633 1115 686 1143 q 513 1086 580 1086 m 566 1347 l 460 1347 l 503 1423 q 505 1434 507 1431 q 494 1438 503 1438 l 400 1438 l 400 1531 l 496 1531 q 591 1508 562 1531 q 621 1452 621 1486 q 596 1386 621 1419 l 566 1347 z "},"Ẵ":{"ha":1027,"x_min":27,"x_max":1000,"o":"m 27 0 l 375 1010 l 645 1010 l 1000 0 l 769 0 l 608 488 q 548 693 578 583 q 484 936 518 804 l 532 936 q 470 693 498 804 q 413 488 441 582 l 255 0 l 27 0 m 245 231 l 245 395 l 782 395 l 782 231 l 245 231 m 511 1090 q 393 1118 445 1090 q 311 1194 341 1146 q 280 1300 280 1242 l 397 1300 q 429 1228 397 1257 q 511 1200 462 1200 q 593 1228 560 1200 q 625 1300 625 1257 l 744 1300 q 713 1194 744 1242 q 630 1118 682 1146 q 511 1090 577 1090 m 613 1356 q 555 1365 581 1356 q 510 1388 530 1375 q 472 1409 490 1400 q 439 1419 455 1419 q 407 1402 418 1419 q 395 1360 396 1385 l 283 1360 q 323 1479 285 1436 q 424 1521 361 1521 q 481 1512 456 1521 q 526 1490 507 1502 q 563 1468 546 1477 q 598 1458 581 1458 q 632 1473 621 1458 q 644 1518 642 1488 l 753 1518 q 713 1398 752 1440 q 613 1356 673 1356 z "},"Ặ":{"ha":1027,"x_min":27,"x_max":1000,"o":"m 27 0 l 375 1010 l 645 1010 l 1000 0 l 769 0 l 608 488 q 548 693 578 583 q 484 936 518 804 l 532 936 q 470 693 498 804 q 413 488 441 582 l 255 0 l 27 0 m 245 231 l 245 395 l 782 395 l 782 231 l 245 231 m 512 1103 q 393 1131 446 1103 q 310 1207 340 1159 q 279 1314 279 1255 l 397 1314 q 430 1242 397 1270 q 512 1214 463 1214 q 593 1242 561 1214 q 626 1314 626 1270 l 746 1314 q 715 1207 746 1255 q 631 1131 684 1159 q 512 1103 578 1103 m 513 -311 q 434 -280 467 -311 q 401 -205 401 -250 q 434 -131 401 -161 q 513 -100 467 -100 q 593 -131 560 -100 q 625 -205 625 -161 q 593 -280 625 -250 q 513 -311 560 -311 z "},"Α":{"ha":1027,"x_min":27,"x_max":1000,"o":"m 27 0 l 375 1010 l 645 1010 l 1000 0 l 769 0 l 608 488 q 548 693 578 583 q 484 936 518 804 l 532 936 q 470 693 498 804 q 413 488 441 582 l 255 0 l 27 0 m 245 231 l 245 395 l 782 395 l 782 231 l 245 231 z "},"Ά":{"ha":1027,"x_min":27,"x_max":1000,"o":"m 27 0 l 375 1010 l 645 1010 l 1000 0 l 769 0 l 608 488 q 548 693 578 583 q 484 936 518 804 l 532 936 q 470 693 498 804 q 413 488 441 582 l 255 0 l 27 0 m 245 231 l 245 395 l 782 395 l 782 231 l 245 231 m 33 799 l 56 1010 l 237 1010 l 154 799 l 33 799 z "},"Ἀ":{"ha":1055,"x_min":55,"x_max":1027,"o":"m 55 0 l 403 1010 l 673 1010 l 1027 0 l 797 0 l 635 488 q 576 693 606 583 q 512 936 546 804 l 559 936 q 498 693 526 804 q 441 488 469 582 l 283 0 l 55 0 m 273 231 l 273 395 l 810 395 l 810 231 l 273 231 m 85 798 l 77 798 l 77 854 l 87 854 q 140 865 122 854 q 157 897 157 876 q 141 925 157 916 q 92 935 125 935 l 57 935 l 57 1029 l 85 1029 q 218 998 172 1029 q 264 913 264 968 q 218 828 264 857 q 85 798 172 798 z "},"Ἁ":{"ha":1065,"x_min":54,"x_max":1038,"o":"m 65 0 l 413 1010 l 683 1010 l 1038 0 l 807 0 l 646 488 q 586 693 616 583 q 522 936 556 804 l 570 936 q 508 693 536 804 q 451 488 479 582 l 293 0 l 65 0 m 283 231 l 283 395 l 820 395 l 820 231 l 283 231 m 233 785 q 100 814 146 785 q 54 899 54 844 q 100 985 54 954 q 233 1015 146 1015 l 261 1015 l 261 921 l 227 921 q 177 911 193 921 q 161 883 161 902 q 178 851 161 862 q 231 841 196 841 l 241 841 l 241 785 l 233 785 z "},"Ἂ":{"ha":1293,"x_min":46,"x_max":1265,"o":"m 293 0 l 641 1010 l 911 1010 l 1265 0 l 1035 0 l 873 488 q 814 693 844 583 q 750 936 784 804 l 798 936 q 736 693 764 804 q 679 488 707 582 l 521 0 l 293 0 m 511 231 l 511 395 l 1048 395 l 1048 231 l 511 231 m 75 785 l 66 785 l 66 841 l 76 841 q 129 851 111 841 q 146 883 146 862 q 130 911 146 902 q 81 921 114 921 l 46 921 l 46 1015 l 75 1015 q 208 985 161 1015 q 254 899 254 954 q 207 814 254 844 q 75 785 161 785 m 462 792 l 353 792 l 277 1010 l 441 1010 l 462 792 z "},"Ἃ":{"ha":1318,"x_min":46,"x_max":1291,"o":"m 319 0 l 667 1010 l 937 1010 l 1291 0 l 1061 0 l 899 488 q 840 693 870 583 q 776 936 810 804 l 823 936 q 762 693 790 804 q 705 488 733 582 l 547 0 l 319 0 m 536 231 l 536 395 l 1074 395 l 1074 231 l 536 231 m 225 785 q 93 814 139 785 q 46 899 46 844 q 92 985 46 954 q 225 1015 138 1015 l 254 1015 l 254 921 l 219 921 q 170 911 186 921 q 153 883 153 902 q 171 851 153 862 q 224 841 189 841 l 234 841 l 234 785 l 225 785 m 486 792 l 376 792 l 300 1010 l 465 1010 l 486 792 z "},"Ἄ":{"ha":1300,"x_min":46,"x_max":1273,"o":"m 300 0 l 648 1010 l 918 1010 l 1273 0 l 1042 0 l 881 488 q 822 693 852 583 q 758 936 791 804 l 805 936 q 743 693 772 804 q 686 488 715 582 l 528 0 l 300 0 m 518 231 l 518 395 l 1055 395 l 1055 231 l 518 231 m 75 785 l 66 785 l 66 841 l 76 841 q 129 851 111 841 q 146 883 146 862 q 130 911 146 902 q 81 921 114 921 l 46 921 l 46 1015 l 75 1015 q 208 985 161 1015 q 254 899 254 954 q 207 814 254 844 q 75 785 161 785 m 332 792 l 352 1010 l 516 1010 l 440 792 l 332 792 z "},"Ἅ":{"ha":1320,"x_min":46,"x_max":1293,"o":"m 320 0 l 668 1010 l 938 1010 l 1293 0 l 1062 0 l 901 488 q 841 693 871 583 q 777 936 811 804 l 825 936 q 763 693 791 804 q 706 488 734 582 l 548 0 l 320 0 m 538 231 l 538 395 l 1075 395 l 1075 231 l 538 231 m 225 785 q 93 814 139 785 q 46 899 46 844 q 92 985 46 954 q 225 1015 138 1015 l 254 1015 l 254 921 l 219 921 q 170 911 186 921 q 153 883 153 902 q 171 851 153 862 q 224 841 189 841 l 234 841 l 234 785 l 225 785 m 345 792 l 366 1010 l 530 1010 l 454 792 l 345 792 z "},"Ἆ":{"ha":1176,"x_min":46,"x_max":1149,"o":"m 176 0 l 524 1010 l 794 1010 l 1149 0 l 918 0 l 757 488 q 697 693 728 583 q 633 936 667 804 l 681 936 q 619 693 648 804 q 562 488 591 582 l 404 0 l 176 0 m 394 231 l 394 395 l 931 395 l 931 231 l 394 231 m 203 796 l 195 796 l 195 852 l 204 852 q 258 863 240 852 q 275 895 275 874 q 259 923 275 913 q 210 932 242 932 l 175 932 l 175 1027 l 203 1027 q 336 996 290 1027 q 382 911 382 966 q 336 826 382 855 q 203 796 290 796 m 372 1086 q 315 1096 340 1086 q 270 1119 290 1105 q 233 1141 250 1132 q 200 1151 216 1151 q 168 1134 179 1151 q 156 1090 157 1117 l 46 1090 q 86 1214 48 1170 q 185 1257 123 1257 q 242 1247 218 1257 q 286 1225 267 1238 q 323 1202 306 1212 q 357 1192 340 1192 q 390 1208 380 1192 q 402 1254 400 1223 l 511 1254 q 470 1130 509 1174 q 372 1086 432 1086 z "},"Ἇ":{"ha":1192,"x_min":46,"x_max":1164,"o":"m 193 0 l 541 1010 l 810 1010 l 1165 0 l 935 0 l 773 488 q 714 693 744 583 q 650 936 684 804 l 697 936 q 635 693 664 804 q 578 488 607 582 l 420 0 l 193 0 m 410 231 l 410 395 l 947 395 l 947 231 l 410 231 m 354 782 q 221 811 268 782 q 175 897 175 841 q 221 982 175 951 q 354 1013 267 1013 l 382 1013 l 382 918 l 347 918 q 298 909 315 918 q 281 880 281 899 q 299 849 281 860 q 353 838 317 838 l 362 838 l 362 782 l 354 782 m 372 1072 q 315 1081 340 1072 q 270 1104 290 1091 q 233 1127 250 1118 q 200 1137 216 1137 q 168 1120 179 1137 q 156 1076 157 1103 l 46 1076 q 86 1199 48 1156 q 185 1243 123 1243 q 242 1233 218 1243 q 286 1211 267 1223 q 323 1188 306 1198 q 357 1178 340 1178 q 390 1194 380 1178 q 402 1240 400 1209 l 511 1240 q 470 1116 509 1160 q 372 1072 432 1072 z "},"Ᾰ":{"ha":1027,"x_min":27,"x_max":1000,"o":"m 27 0 l 375 1010 l 645 1010 l 1000 0 l 769 0 l 608 488 q 548 693 578 583 q 484 936 518 804 l 532 936 q 470 693 498 804 q 413 488 441 582 l 255 0 l 27 0 m 245 231 l 245 395 l 782 395 l 782 231 l 245 231 m 512 1103 q 393 1131 446 1103 q 310 1207 340 1159 q 279 1314 279 1255 l 397 1314 q 430 1242 397 1270 q 512 1214 463 1214 q 593 1242 561 1214 q 626 1314 626 1270 l 746 1314 q 715 1207 746 1255 q 631 1131 684 1159 q 512 1103 578 1103 z "},"Ᾱ":{"ha":1027,"x_min":27,"x_max":1000,"o":"m 27 0 l 375 1010 l 645 1010 l 1000 0 l 769 0 l 608 488 q 548 693 578 583 q 484 936 518 804 l 532 936 q 470 693 498 804 q 413 488 441 582 l 255 0 l 27 0 m 245 231 l 245 395 l 782 395 l 782 231 l 245 231 m 709 1275 l 709 1146 l 316 1146 l 316 1275 l 709 1275 z "},"Ὰ":{"ha":1027,"x_min":-51,"x_max":1000,"o":"m 27 0 l 375 1010 l 645 1010 l 1000 0 l 769 0 l 608 488 q 548 693 578 583 q 484 936 518 804 l 532 936 q 470 693 498 804 q 413 488 441 582 l 255 0 l 27 0 m 245 231 l 245 395 l 782 395 l 782 231 l 245 231 m 153 839 l 33 839 l -51 1050 l 131 1050 l 153 839 z "},"Ⱥ":{"ha":1027,"x_min":27,"x_max":1000,"o":"m 776 1138 l 362 -129 l 281 -129 l 695 1138 l 776 1138 m 27 0 l 375 1010 l 645 1010 l 1000 0 l 769 0 l 608 488 q 548 693 578 583 q 484 936 518 804 l 532 936 q 470 693 498 804 q 413 488 441 582 l 255 0 l 27 0 m 245 231 l 245 395 l 782 395 l 782 231 l 245 231 z "},"Ά":{"ha":1070,"x_min":71,"x_max":1043,"o":"m 71 0 l 418 1010 l 688 1010 l 1043 0 l 812 0 l 651 488 q 592 693 622 583 q 528 936 562 804 l 575 936 q 513 693 542 804 q 456 488 485 582 l 298 0 l 71 0 m 288 231 l 288 395 l 825 395 l 825 231 l 288 231 m 77 799 l 99 1010 l 281 1010 l 197 799 l 77 799 z "},"А":{"ha":1027,"x_min":27,"x_max":1000,"o":"m 27 0 l 375 1010 l 645 1010 l 1000 0 l 769 0 l 608 488 q 548 693 578 583 q 484 936 518 804 l 532 936 q 470 693 498 804 q 413 488 441 582 l 255 0 l 27 0 m 245 231 l 245 395 l 782 395 l 782 231 l 245 231 z "},"Ӑ":{"ha":1027,"x_min":27,"x_max":1000,"o":"m 27 0 l 375 1010 l 645 1010 l 1000 0 l 769 0 l 608 488 q 548 693 578 583 q 484 936 518 804 l 532 936 q 470 693 498 804 q 413 488 441 582 l 255 0 l 27 0 m 245 231 l 245 395 l 782 395 l 782 231 l 245 231 m 512 1103 q 393 1131 446 1103 q 310 1207 340 1159 q 279 1314 279 1255 l 397 1314 q 430 1242 397 1270 q 512 1214 463 1214 q 593 1242 561 1214 q 626 1314 626 1270 l 746 1314 q 715 1207 746 1255 q 631 1131 684 1159 q 512 1103 578 1103 z "},"Ӓ":{"ha":1027,"x_min":27,"x_max":1000,"o":"m 27 0 l 375 1010 l 645 1010 l 1000 0 l 769 0 l 608 488 q 548 693 578 583 q 484 936 518 804 l 532 936 q 470 693 498 804 q 413 488 441 582 l 255 0 l 27 0 m 245 231 l 245 395 l 782 395 l 782 231 l 245 231 m 663 1112 q 589 1142 619 1112 q 559 1213 559 1171 q 589 1284 559 1255 q 663 1313 619 1313 q 736 1284 706 1313 q 766 1213 766 1255 q 736 1141 766 1171 q 663 1112 706 1112 m 361 1112 q 289 1142 319 1112 q 258 1213 258 1171 q 289 1284 258 1255 q 361 1313 319 1313 q 435 1284 405 1313 q 465 1213 465 1255 q 435 1141 465 1171 q 361 1112 405 1112 z "},"ᾈ":{"ha":1055,"x_min":55,"x_max":1027,"o":"m 55 0 l 403 1010 l 673 1010 l 1027 0 l 797 0 l 635 488 q 576 693 606 583 q 512 936 546 804 l 559 936 q 498 693 526 804 q 441 488 469 582 l 283 0 l 55 0 m 273 231 l 273 395 l 810 395 l 810 231 l 273 231 m 595 -332 q 497 -297 530 -332 q 465 -203 465 -263 l 465 -80 l 615 -80 l 615 -194 q 622 -225 615 -216 q 652 -235 629 -235 q 666 -234 659 -235 q 685 -233 673 -234 l 685 -325 q 641 -330 667 -328 q 595 -332 616 -332 m 85 798 l 77 798 l 77 854 l 87 854 q 140 865 122 854 q 157 897 157 876 q 141 925 157 916 q 92 935 125 935 l 57 935 l 57 1029 l 85 1029 q 218 998 172 1029 q 264 913 264 968 q 218 828 264 857 q 85 798 172 798 z "},"ᾉ":{"ha":1065,"x_min":54,"x_max":1038,"o":"m 65 0 l 413 1010 l 683 1010 l 1038 0 l 807 0 l 646 488 q 586 693 616 583 q 522 936 556 804 l 570 936 q 508 693 536 804 q 451 488 479 582 l 293 0 l 65 0 m 283 231 l 283 395 l 820 395 l 820 231 l 283 231 m 605 -332 q 507 -297 540 -332 q 475 -203 475 -263 l 475 -80 l 625 -80 l 625 -194 q 632 -225 625 -216 q 663 -235 640 -235 q 676 -234 669 -235 q 695 -233 684 -234 l 695 -325 q 651 -330 677 -328 q 605 -332 626 -332 m 233 785 q 100 814 146 785 q 54 899 54 844 q 100 985 54 954 q 233 1015 146 1015 l 261 1015 l 261 921 l 227 921 q 177 911 193 921 q 161 883 161 902 q 178 851 161 862 q 231 841 196 841 l 241 841 l 241 785 l 233 785 z "},"ᾊ":{"ha":1293,"x_min":46,"x_max":1265,"o":"m 293 0 l 641 1010 l 911 1010 l 1265 0 l 1035 0 l 873 488 q 814 693 844 583 q 750 936 784 804 l 798 936 q 736 693 764 804 q 679 488 707 582 l 521 0 l 293 0 m 511 231 l 511 395 l 1048 395 l 1048 231 l 511 231 m 833 -332 q 735 -297 768 -332 q 703 -203 703 -263 l 703 -80 l 853 -80 l 853 -194 q 860 -225 853 -216 q 890 -235 867 -235 q 904 -234 897 -235 q 923 -233 911 -234 l 923 -325 q 879 -330 905 -328 q 833 -332 854 -332 m 75 785 l 66 785 l 66 841 l 76 841 q 129 851 111 841 q 146 883 146 862 q 130 911 146 902 q 81 921 114 921 l 46 921 l 46 1015 l 75 1015 q 208 985 161 1015 q 254 899 254 954 q 207 814 254 844 q 75 785 161 785 m 462 792 l 353 792 l 277 1010 l 441 1010 l 462 792 z "},"ᾋ":{"ha":1318,"x_min":46,"x_max":1291,"o":"m 319 0 l 667 1010 l 937 1010 l 1291 0 l 1061 0 l 899 488 q 840 693 870 583 q 776 936 810 804 l 823 936 q 762 693 790 804 q 705 488 733 582 l 547 0 l 319 0 m 536 231 l 536 395 l 1074 395 l 1074 231 l 536 231 m 859 -332 q 761 -297 793 -332 q 728 -203 728 -263 l 728 -80 l 879 -80 l 879 -194 q 886 -225 879 -216 q 916 -235 893 -235 q 930 -234 922 -235 q 949 -233 937 -234 l 949 -325 q 905 -330 930 -328 q 859 -332 880 -332 m 225 785 q 93 814 139 785 q 46 899 46 844 q 92 985 46 954 q 225 1015 138 1015 l 254 1015 l 254 921 l 219 921 q 170 911 186 921 q 153 883 153 902 q 171 851 153 862 q 224 841 189 841 l 234 841 l 234 785 l 225 785 m 486 792 l 376 792 l 300 1010 l 465 1010 l 486 792 z "},"ᾌ":{"ha":1300,"x_min":46,"x_max":1273,"o":"m 300 0 l 648 1010 l 918 1010 l 1273 0 l 1042 0 l 881 488 q 822 693 852 583 q 758 936 791 804 l 805 936 q 743 693 772 804 q 686 488 715 582 l 528 0 l 300 0 m 518 231 l 518 395 l 1055 395 l 1055 231 l 518 231 m 75 785 l 66 785 l 66 841 l 76 841 q 129 851 111 841 q 146 883 146 862 q 130 911 146 902 q 81 921 114 921 l 46 921 l 46 1015 l 75 1015 q 208 985 161 1015 q 254 899 254 954 q 207 814 254 844 q 75 785 161 785 m 332 792 l 352 1010 l 516 1010 l 440 792 l 332 792 m 840 -332 q 743 -297 775 -332 q 710 -203 710 -263 l 710 -80 l 861 -80 l 861 -194 q 868 -225 861 -216 q 898 -235 875 -235 q 911 -234 904 -235 q 930 -233 919 -234 l 930 -325 q 887 -330 912 -328 q 840 -332 861 -332 z "},"ᾍ":{"ha":1320,"x_min":46,"x_max":1293,"o":"m 320 0 l 668 1010 l 938 1010 l 1293 0 l 1062 0 l 901 488 q 841 693 871 583 q 777 936 811 804 l 825 936 q 763 693 791 804 q 706 488 734 582 l 548 0 l 320 0 m 538 231 l 538 395 l 1075 395 l 1075 231 l 538 231 m 860 -332 q 762 -297 795 -332 q 730 -203 730 -263 l 730 -80 l 880 -80 l 880 -194 q 887 -225 880 -216 q 918 -235 895 -235 q 931 -234 924 -235 q 950 -233 939 -234 l 950 -325 q 906 -330 932 -328 q 860 -332 881 -332 m 225 785 q 93 814 139 785 q 46 899 46 844 q 92 985 46 954 q 225 1015 138 1015 l 254 1015 l 254 921 l 219 921 q 170 911 186 921 q 153 883 153 902 q 171 851 153 862 q 224 841 189 841 l 234 841 l 234 785 l 225 785 m 345 792 l 366 1010 l 530 1010 l 454 792 l 345 792 z "},"ᾎ":{"ha":1176,"x_min":46,"x_max":1149,"o":"m 176 0 l 524 1010 l 794 1010 l 1149 0 l 918 0 l 757 488 q 697 693 728 583 q 633 936 667 804 l 681 936 q 619 693 648 804 q 562 488 591 582 l 404 0 l 176 0 m 394 231 l 394 395 l 931 395 l 931 231 l 394 231 m 203 796 l 195 796 l 195 852 l 204 852 q 258 863 240 852 q 275 895 275 874 q 259 923 275 913 q 210 932 242 932 l 175 932 l 175 1027 l 203 1027 q 336 996 290 1027 q 382 911 382 966 q 336 826 382 855 q 203 796 290 796 m 372 1086 q 315 1096 340 1086 q 270 1119 290 1105 q 233 1141 250 1132 q 200 1151 216 1151 q 168 1134 179 1151 q 156 1090 157 1117 l 46 1090 q 86 1214 48 1170 q 185 1257 123 1257 q 242 1247 218 1257 q 286 1225 267 1238 q 323 1202 306 1212 q 357 1192 340 1192 q 390 1208 380 1192 q 402 1254 400 1223 l 511 1254 q 470 1130 509 1174 q 372 1086 432 1086 m 716 -332 q 618 -297 651 -332 q 586 -203 586 -263 l 586 -80 l 736 -80 l 736 -194 q 744 -225 736 -216 q 774 -235 751 -235 q 787 -234 780 -235 q 806 -233 795 -234 l 806 -325 q 763 -330 788 -328 q 716 -332 737 -332 z "},"ᾏ":{"ha":1192,"x_min":46,"x_max":1164,"o":"m 193 0 l 541 1010 l 810 1010 l 1165 0 l 935 0 l 773 488 q 714 693 744 583 q 650 936 684 804 l 697 936 q 635 693 664 804 q 578 488 607 582 l 420 0 l 193 0 m 410 231 l 410 395 l 947 395 l 947 231 l 410 231 m 732 -332 q 635 -297 667 -332 q 602 -203 602 -263 l 602 -80 l 753 -80 l 753 -194 q 760 -225 753 -216 q 790 -235 767 -235 q 804 -234 796 -235 q 823 -233 811 -234 l 823 -325 q 779 -330 804 -328 q 732 -332 753 -332 m 354 782 q 221 811 268 782 q 175 897 175 841 q 221 982 175 951 q 354 1013 267 1013 l 382 1013 l 382 918 l 347 918 q 298 909 315 918 q 281 880 281 899 q 299 849 281 860 q 353 838 317 838 l 362 838 l 362 782 l 354 782 m 372 1072 q 315 1081 340 1072 q 270 1104 290 1091 q 233 1127 250 1118 q 200 1137 216 1137 q 168 1120 179 1137 q 156 1076 157 1103 l 46 1076 q 86 1199 48 1156 q 185 1243 123 1243 q 242 1233 218 1243 q 286 1211 267 1223 q 323 1188 306 1198 q 357 1178 340 1178 q 390 1194 380 1178 q 402 1240 400 1209 l 511 1240 q 470 1116 509 1160 q 372 1072 432 1072 z "},"ᾼ":{"ha":1027,"x_min":27,"x_max":1000,"o":"m 27 0 l 375 1010 l 645 1010 l 1000 0 l 769 0 l 608 488 q 548 693 578 583 q 484 936 518 804 l 532 936 q 470 693 498 804 q 413 488 441 582 l 255 0 l 27 0 m 245 231 l 245 395 l 782 395 l 782 231 l 245 231 m 567 -332 q 469 -297 502 -332 q 437 -203 437 -263 l 437 -80 l 587 -80 l 587 -194 q 594 -225 587 -216 q 625 -235 602 -235 q 638 -234 631 -235 q 657 -233 646 -234 l 657 -325 q 613 -330 639 -328 q 567 -332 588 -332 z "},"Λ":{"ha":1027,"x_min":27,"x_max":1000,"o":"m 27 0 l 375 1010 l 645 1010 l 1000 0 l 769 0 l 608 488 q 548 693 578 583 q 484 936 518 804 l 532 936 q 470 693 498 804 q 413 488 441 582 l 255 0 l 27 0 z "},"Æ":{"ha":1419,"x_min":27,"x_max":1351,"o":"m 27 0 l 460 1010 l 1350 1010 l 1350 837 l 870 837 l 870 593 l 1314 593 l 1314 423 l 870 423 l 870 174 l 1351 174 l 1351 0 l 671 0 l 671 869 l 611 869 l 253 0 l 27 0 m 264 241 l 264 391 l 771 391 l 771 241 l 264 241 z "},"Ǣ":{"ha":1419,"x_min":27,"x_max":1351,"o":"m 27 0 l 460 1010 l 1350 1010 l 1350 837 l 870 837 l 870 593 l 1314 593 l 1314 423 l 870 423 l 870 174 l 1351 174 l 1351 0 l 671 0 l 671 869 l 611 869 l 253 0 l 27 0 m 264 241 l 264 391 l 771 391 l 771 241 l 264 241 m 1105 1275 l 1105 1146 l 713 1146 l 713 1275 l 1105 1275 z "},"Ǽ":{"ha":1419,"x_min":27,"x_max":1351,"o":"m 27 0 l 460 1010 l 1350 1010 l 1350 837 l 870 837 l 870 593 l 1314 593 l 1314 423 l 870 423 l 870 174 l 1351 174 l 1351 0 l 671 0 l 671 869 l 611 869 l 253 0 l 27 0 m 264 241 l 264 391 l 771 391 l 771 241 l 264 241 m 833 1105 l 933 1316 l 1123 1316 l 976 1105 l 833 1105 z "},"Ӕ":{"ha":1419,"x_min":27,"x_max":1351,"o":"m 27 0 l 460 1010 l 1350 1010 l 1350 837 l 870 837 l 870 593 l 1314 593 l 1314 423 l 870 423 l 870 174 l 1351 174 l 1351 0 l 671 0 l 671 869 l 611 869 l 253 0 l 27 0 m 264 241 l 264 391 l 771 391 l 771 241 l 264 241 z "},"B":{"ha":913,"x_min":87,"x_max":863,"o":"m 87 0 l 87 1010 l 490 1010 q 675 977 600 1010 q 787 885 749 944 q 825 751 825 827 q 801 647 825 692 q 737 574 778 602 q 643 533 696 545 l 643 524 q 751 491 701 522 q 832 408 802 461 q 863 280 863 354 q 824 136 863 199 q 707 36 785 73 q 515 0 629 0 l 87 0 m 294 169 l 477 169 q 608 204 566 169 q 650 298 650 239 q 630 373 650 340 q 572 424 610 406 q 481 442 534 442 l 294 442 l 294 169 m 294 587 l 463 587 q 542 603 507 587 q 596 648 576 618 q 616 718 616 677 q 576 808 616 774 q 465 843 537 843 l 294 843 l 294 587 z "},"Ḃ":{"ha":913,"x_min":87,"x_max":863,"o":"m 87 0 l 87 1010 l 490 1010 q 675 977 600 1010 q 787 885 749 944 q 825 751 825 827 q 801 647 825 692 q 737 574 778 602 q 643 533 696 545 l 643 524 q 751 491 701 522 q 832 408 802 461 q 863 280 863 354 q 824 136 863 199 q 707 36 785 73 q 515 0 629 0 l 87 0 m 294 169 l 477 169 q 608 204 566 169 q 650 298 650 239 q 630 373 650 340 q 572 424 610 406 q 481 442 534 442 l 294 442 l 294 169 m 294 587 l 463 587 q 542 603 507 587 q 596 648 576 618 q 616 718 616 677 q 576 808 616 774 q 465 843 537 843 l 294 843 l 294 587 m 442 1107 q 362 1138 395 1107 q 330 1213 330 1168 q 362 1287 330 1257 q 441 1318 395 1318 q 522 1287 489 1318 q 554 1213 554 1257 q 522 1138 554 1168 q 442 1107 489 1107 z "},"Ḅ":{"ha":913,"x_min":87,"x_max":863,"o":"m 87 0 l 87 1010 l 490 1010 q 675 977 600 1010 q 787 885 749 944 q 825 751 825 827 q 801 647 825 692 q 737 574 778 602 q 643 533 696 545 l 643 524 q 751 491 701 522 q 832 408 802 461 q 863 280 863 354 q 824 136 863 199 q 707 36 785 73 q 515 0 629 0 l 87 0 m 294 169 l 477 169 q 608 204 566 169 q 650 298 650 239 q 630 373 650 340 q 572 424 610 406 q 481 442 534 442 l 294 442 l 294 169 m 294 587 l 463 587 q 542 603 507 587 q 596 648 576 618 q 616 718 616 677 q 576 808 616 774 q 465 843 537 843 l 294 843 l 294 587 m 445 -311 q 365 -280 398 -311 q 332 -205 332 -250 q 365 -131 332 -161 q 444 -100 398 -100 q 524 -131 492 -100 q 557 -205 557 -161 q 524 -280 557 -250 q 445 -311 492 -311 z "},"Ḇ":{"ha":913,"x_min":87,"x_max":863,"o":"m 87 0 l 87 1010 l 490 1010 q 675 977 600 1010 q 787 885 749 944 q 825 751 825 827 q 801 647 825 692 q 737 574 778 602 q 643 533 696 545 l 643 524 q 751 491 701 522 q 832 408 802 461 q 863 280 863 354 q 824 136 863 199 q 707 36 785 73 q 515 0 629 0 l 87 0 m 294 169 l 477 169 q 608 204 566 169 q 650 298 650 239 q 630 373 650 340 q 572 424 610 406 q 481 442 534 442 l 294 442 l 294 169 m 294 587 l 463 587 q 542 603 507 587 q 596 648 576 618 q 616 718 616 677 q 576 808 616 774 q 465 843 537 843 l 294 843 l 294 587 m 641 -134 l 641 -263 l 248 -263 l 248 -134 l 641 -134 z "},"Ƀ":{"ha":943,"x_min":9,"x_max":893,"o":"m 117 0 l 117 1010 l 519 1010 q 705 977 630 1010 q 817 885 779 944 q 854 751 854 827 q 831 647 854 692 q 767 574 808 602 q 673 533 726 545 l 673 524 q 781 491 731 522 q 862 408 831 461 q 893 280 893 354 q 854 136 893 199 q 737 36 814 73 q 545 0 659 0 l 117 0 m 324 169 l 507 169 q 638 204 595 169 q 680 298 680 239 q 660 373 680 340 q 602 424 640 406 q 511 442 564 442 l 324 442 l 324 169 m 324 587 l 492 587 q 572 603 537 587 q 626 648 606 618 q 646 718 646 677 q 606 808 646 774 q 495 843 567 843 l 324 843 l 324 587 m 9 262 l 9 349 l 489 349 l 489 262 l 9 262 z "},"Ɓ":{"ha":1177,"x_min":31,"x_max":1126,"o":"m 31 718 l 31 779 q 96 953 31 895 q 297 1010 161 1010 l 351 1010 l 351 838 l 305 838 q 240 819 262 838 q 219 761 219 800 l 219 718 l 31 718 m 351 0 l 351 1010 l 753 1010 q 938 977 863 1010 q 1050 885 1013 944 q 1088 751 1088 827 q 1064 647 1088 692 q 1000 574 1041 602 q 906 533 959 545 l 906 524 q 1015 491 964 522 q 1096 408 1065 461 q 1126 280 1126 354 q 1087 136 1126 199 q 970 36 1048 73 q 778 0 892 0 l 351 0 m 557 169 l 740 169 q 871 204 829 169 q 913 298 913 239 q 893 373 913 340 q 835 424 873 406 q 745 442 797 442 l 557 442 l 557 169 m 557 587 l 726 587 q 805 603 770 587 q 859 648 840 618 q 879 718 879 677 q 840 808 879 774 q 728 843 800 843 l 557 843 l 557 587 z "},"В":{"ha":913,"x_min":87,"x_max":863,"o":"m 87 0 l 87 1010 l 490 1010 q 675 977 600 1010 q 787 885 749 944 q 825 751 825 827 q 801 647 825 692 q 737 574 778 602 q 643 533 696 545 l 643 524 q 751 491 701 522 q 832 408 802 461 q 863 280 863 354 q 824 136 863 199 q 707 36 785 73 q 515 0 629 0 l 87 0 m 294 169 l 477 169 q 608 204 566 169 q 650 298 650 239 q 630 373 650 340 q 572 424 610 406 q 481 442 534 442 l 294 442 l 294 169 m 294 587 l 463 587 q 542 603 507 587 q 596 648 576 618 q 616 718 616 677 q 576 808 616 774 q 465 843 537 843 l 294 843 l 294 587 z "},"Β":{"ha":913,"x_min":87,"x_max":863,"o":"m 87 0 l 87 1010 l 490 1010 q 675 977 600 1010 q 787 885 749 944 q 825 751 825 827 q 801 647 825 692 q 737 574 778 602 q 643 533 696 545 l 643 524 q 751 491 701 522 q 832 408 802 461 q 863 280 863 354 q 824 136 863 199 q 707 36 785 73 q 515 0 629 0 l 87 0 m 294 169 l 477 169 q 608 204 566 169 q 650 298 650 239 q 630 373 650 340 q 572 424 610 406 q 481 442 534 442 l 294 442 l 294 169 m 294 587 l 463 587 q 542 603 507 587 q 596 648 576 618 q 616 718 616 677 q 576 808 616 774 q 465 843 537 843 l 294 843 l 294 587 z "},"C":{"ha":1023,"x_min":59,"x_max":968,"o":"m 530 -14 q 289 47 395 -14 q 120 225 182 109 q 59 505 59 341 q 121 785 59 669 q 290 963 182 901 q 530 1025 397 1025 q 692 1000 617 1025 q 825 929 767 976 q 919 815 882 882 q 968 663 956 748 l 758 663 q 731 738 751 705 q 682 794 711 771 q 616 829 653 817 q 534 841 578 841 q 394 801 454 841 q 302 686 334 761 q 269 505 269 611 q 302 322 269 397 q 395 208 335 247 q 534 170 454 170 q 615 182 578 170 q 682 217 652 194 q 731 273 711 239 q 759 348 751 306 l 968 348 q 925 209 959 274 q 834 93 890 144 q 701 14 777 43 q 530 -14 625 -14 z "},"Ƈ":{"ha":1023,"x_min":59,"x_max":1118,"o":"m 768 663 l 768 931 q 829 1092 768 1038 q 1012 1145 890 1145 q 1070 1143 1043 1145 q 1118 1137 1097 1141 l 1118 987 q 1086 989 1103 989 q 1053 990 1069 990 q 988 976 1008 990 q 968 929 968 962 l 968 663 l 768 663 m 530 -14 q 289 47 395 -14 q 120 225 182 109 q 59 505 59 341 q 121 785 59 669 q 290 963 182 901 q 530 1025 397 1025 q 692 1000 617 1025 q 825 929 767 976 q 919 815 882 882 q 968 663 956 748 l 758 663 q 731 738 751 705 q 682 794 711 771 q 616 829 653 817 q 534 841 578 841 q 394 801 454 841 q 302 686 334 761 q 269 505 269 611 q 302 322 269 397 q 395 208 335 247 q 534 170 454 170 q 615 182 578 170 q 682 217 652 194 q 731 273 711 239 q 759 348 751 306 l 968 348 q 925 209 959 274 q 834 93 890 144 q 701 14 777 43 q 530 -14 625 -14 z "},"Ç":{"ha":1023,"x_min":59,"x_max":968,"o":"m 530 -14 q 289 47 395 -14 q 120 225 182 109 q 59 505 59 341 q 121 785 59 669 q 290 963 182 901 q 530 1025 397 1025 q 692 1000 617 1025 q 825 929 767 976 q 919 815 882 882 q 968 663 956 748 l 758 663 q 731 738 751 705 q 682 794 711 771 q 616 829 653 817 q 534 841 578 841 q 394 801 454 841 q 302 686 334 761 q 269 505 269 611 q 302 322 269 397 q 395 208 335 247 q 534 170 454 170 q 615 182 578 170 q 682 217 652 194 q 731 273 711 239 q 759 348 751 306 l 968 348 q 925 209 959 274 q 834 93 890 144 q 701 14 777 43 q 530 -14 625 -14 m 439 -284 l 439 -203 l 524 -203 q 569 -193 555 -203 q 583 -161 583 -183 q 569 -130 583 -140 q 524 -121 555 -121 l 463 -121 l 488 29 l 566 29 l 566 -1 l 563 -59 q 661 -85 626 -57 q 695 -167 695 -114 q 656 -256 695 -229 q 533 -284 616 -284 l 439 -284 z "},"Ć":{"ha":1023,"x_min":59,"x_max":968,"o":"m 530 -14 q 289 47 395 -14 q 120 225 182 109 q 59 505 59 341 q 121 785 59 669 q 290 963 182 901 q 530 1025 397 1025 q 692 1000 617 1025 q 825 929 767 976 q 919 815 882 882 q 968 663 956 748 l 758 663 q 731 738 751 705 q 682 794 711 771 q 616 829 653 817 q 534 841 578 841 q 394 801 454 841 q 302 686 334 761 q 269 505 269 611 q 302 322 269 397 q 395 208 335 247 q 534 170 454 170 q 615 182 578 170 q 682 217 652 194 q 731 273 711 239 q 759 348 751 306 l 968 348 q 925 209 959 274 q 834 93 890 144 q 701 14 777 43 q 530 -14 625 -14 m 454 1105 l 553 1316 l 743 1316 l 596 1105 l 454 1105 z "},"Ĉ":{"ha":1023,"x_min":59,"x_max":968,"o":"m 530 -14 q 289 47 395 -14 q 120 225 182 109 q 59 505 59 341 q 121 785 59 669 q 290 963 182 901 q 530 1025 397 1025 q 692 1000 617 1025 q 825 929 767 976 q 919 815 882 882 q 968 663 956 748 l 758 663 q 731 738 751 705 q 682 794 711 771 q 616 829 653 817 q 534 841 578 841 q 394 801 454 841 q 302 686 334 761 q 269 505 269 611 q 302 322 269 397 q 395 208 335 247 q 534 170 454 170 q 615 182 578 170 q 682 217 652 194 q 731 273 711 239 q 759 348 751 306 l 968 348 q 925 209 959 274 q 834 93 890 144 q 701 14 777 43 q 530 -14 625 -14 m 433 1111 l 260 1111 l 260 1115 l 450 1316 l 606 1316 l 796 1115 l 796 1111 l 623 1111 l 528 1226 l 433 1111 z "},"Ċ":{"ha":1023,"x_min":59,"x_max":968,"o":"m 530 -14 q 289 47 395 -14 q 120 225 182 109 q 59 505 59 341 q 121 785 59 669 q 290 963 182 901 q 530 1025 397 1025 q 692 1000 617 1025 q 825 929 767 976 q 919 815 882 882 q 968 663 956 748 l 758 663 q 731 738 751 705 q 682 794 711 771 q 616 829 653 817 q 534 841 578 841 q 394 801 454 841 q 302 686 334 761 q 269 505 269 611 q 302 322 269 397 q 395 208 335 247 q 534 170 454 170 q 615 182 578 170 q 682 217 652 194 q 731 273 711 239 q 759 348 751 306 l 968 348 q 925 209 959 274 q 834 93 890 144 q 701 14 777 43 q 530 -14 625 -14 m 529 1107 q 449 1138 482 1107 q 416 1213 416 1168 q 449 1287 416 1257 q 528 1318 482 1318 q 608 1287 576 1318 q 641 1213 641 1257 q 608 1138 641 1168 q 529 1107 576 1107 z "},"Č":{"ha":1023,"x_min":59,"x_max":968,"o":"m 530 -14 q 289 47 395 -14 q 120 225 182 109 q 59 505 59 341 q 121 785 59 669 q 290 963 182 901 q 530 1025 397 1025 q 692 1000 617 1025 q 825 929 767 976 q 919 815 882 882 q 968 663 956 748 l 758 663 q 731 738 751 705 q 682 794 711 771 q 616 829 653 817 q 534 841 578 841 q 394 801 454 841 q 302 686 334 761 q 269 505 269 611 q 302 322 269 397 q 395 208 335 247 q 534 170 454 170 q 615 182 578 170 q 682 217 652 194 q 731 273 711 239 q 759 348 751 306 l 968 348 q 925 209 959 274 q 834 93 890 144 q 701 14 777 43 q 530 -14 625 -14 m 433 1316 l 528 1201 l 623 1316 l 796 1316 l 796 1312 l 606 1111 l 450 1111 l 260 1312 l 260 1316 l 433 1316 z "},"Ḉ":{"ha":1023,"x_min":59,"x_max":968,"o":"m 530 -14 q 289 47 395 -14 q 120 225 182 109 q 59 505 59 341 q 121 785 59 669 q 290 963 182 901 q 530 1025 397 1025 q 692 1000 617 1025 q 825 929 767 976 q 919 815 882 882 q 968 663 956 748 l 758 663 q 731 738 751 705 q 682 794 711 771 q 616 829 653 817 q 534 841 578 841 q 394 801 454 841 q 302 686 334 761 q 269 505 269 611 q 302 322 269 397 q 395 208 335 247 q 534 170 454 170 q 615 182 578 170 q 682 217 652 194 q 731 273 711 239 q 759 348 751 306 l 968 348 q 925 209 959 274 q 834 93 890 144 q 701 14 777 43 q 530 -14 625 -14 m 439 -284 l 439 -203 l 524 -203 q 569 -193 555 -203 q 583 -161 583 -183 q 569 -130 583 -140 q 524 -121 555 -121 l 463 -121 l 488 29 l 566 29 l 566 -1 l 563 -59 q 661 -85 626 -57 q 695 -167 695 -114 q 656 -256 695 -229 q 533 -284 616 -284 l 439 -284 m 454 1105 l 553 1316 l 743 1316 l 596 1105 l 454 1105 z "},"Ȼ":{"ha":1023,"x_min":59,"x_max":968,"o":"m 250 -129 l 663 1138 l 791 1138 l 377 -129 l 250 -129 m 530 -14 q 289 47 395 -14 q 120 225 182 109 q 59 505 59 341 q 121 785 59 669 q 290 963 182 901 q 530 1025 397 1025 q 692 1000 617 1025 q 825 929 767 976 q 919 815 882 882 q 968 663 956 748 l 758 663 q 731 738 751 705 q 682 794 711 771 q 616 829 653 817 q 534 841 578 841 q 394 801 454 841 q 302 686 334 761 q 269 505 269 611 q 302 322 269 397 q 395 208 335 247 q 534 170 454 170 q 615 182 578 170 q 682 217 652 194 q 731 273 711 239 q 759 348 751 306 l 968 348 q 925 209 959 274 q 834 93 890 144 q 701 14 777 43 q 530 -14 625 -14 z "},"Ɔ":{"ha":1023,"x_min":55,"x_max":964,"o":"m 492 1025 q 734 963 628 1025 q 903 785 841 901 q 964 506 964 669 q 902 225 964 342 q 734 47 840 109 q 492 -14 627 -14 q 331 10 406 -14 q 199 81 256 35 q 104 195 141 128 q 56 348 67 262 l 265 348 q 292 273 273 306 q 340 216 311 239 q 407 181 370 193 q 488 170 445 170 q 629 210 569 170 q 721 325 688 250 q 754 506 754 399 q 721 689 754 614 q 629 802 688 764 q 489 841 569 841 q 408 829 446 841 q 341 794 371 817 q 292 738 312 771 q 264 663 273 705 l 55 663 q 99 802 64 736 q 189 917 133 867 q 322 996 245 968 q 492 1025 399 1025 z "},"Ϲ":{"ha":1023,"x_min":59,"x_max":968,"o":"m 530 -14 q 289 47 395 -14 q 120 225 182 109 q 59 505 59 341 q 121 785 59 669 q 290 963 182 901 q 530 1025 397 1025 q 692 1000 617 1025 q 825 929 767 976 q 919 815 882 882 q 968 663 956 748 l 758 663 q 731 738 751 705 q 682 794 711 771 q 616 829 653 817 q 534 841 578 841 q 394 801 454 841 q 302 686 334 761 q 269 505 269 611 q 302 322 269 397 q 395 208 335 247 q 534 170 454 170 q 615 182 578 170 q 682 217 652 194 q 731 273 711 239 q 759 348 751 306 l 968 348 q 925 209 959 274 q 834 93 890 144 q 701 14 777 43 q 530 -14 625 -14 z "},"D":{"ha":996,"x_min":87,"x_max":937,"o":"m 444 0 l 182 0 l 182 178 l 433 178 q 598 213 532 178 q 697 321 664 248 q 730 506 730 394 q 697 690 730 617 q 598 798 664 762 q 435 833 532 833 l 177 833 l 177 1010 l 447 1010 q 709 950 600 1010 q 878 776 819 889 q 937 506 937 663 q 878 235 937 349 q 708 61 819 122 q 444 0 597 0 m 295 1010 l 295 0 l 87 0 l 87 1010 l 295 1010 z "},"Ɗ":{"ha":1259,"x_min":31,"x_max":1200,"o":"m 31 718 l 31 779 q 96 953 31 895 q 297 1010 161 1010 l 351 1010 l 351 838 l 305 838 q 240 819 262 838 q 219 761 219 800 l 219 718 l 31 718 m 707 0 l 445 0 l 445 178 l 696 178 q 861 213 795 178 q 960 321 927 248 q 994 506 994 394 q 960 690 994 617 q 861 798 927 762 q 698 833 795 833 l 440 833 l 440 1010 l 710 1010 q 972 950 863 1010 q 1141 776 1082 889 q 1200 506 1200 663 q 1141 235 1200 349 q 971 61 1082 122 q 707 0 861 0 m 558 1010 l 558 0 l 351 0 l 351 1010 l 558 1010 z "},"Ď":{"ha":996,"x_min":87,"x_max":937,"o":"m 444 0 l 182 0 l 182 178 l 433 178 q 598 213 532 178 q 697 321 664 248 q 730 506 730 394 q 697 690 730 617 q 598 798 664 762 q 435 833 532 833 l 177 833 l 177 1010 l 447 1010 q 709 950 600 1010 q 878 776 819 889 q 937 506 937 663 q 878 235 937 349 q 708 61 819 122 q 444 0 597 0 m 295 1010 l 295 0 l 87 0 l 87 1010 l 295 1010 m 313 1316 l 408 1201 l 503 1316 l 675 1316 l 675 1312 l 486 1111 l 329 1111 l 140 1312 l 140 1316 l 313 1316 z "},"Ḋ":{"ha":996,"x_min":87,"x_max":937,"o":"m 444 0 l 182 0 l 182 178 l 433 178 q 598 213 532 178 q 697 321 664 248 q 730 506 730 394 q 697 690 730 617 q 598 798 664 762 q 435 833 532 833 l 177 833 l 177 1010 l 447 1010 q 709 950 600 1010 q 878 776 819 889 q 937 506 937 663 q 878 235 937 349 q 708 61 819 122 q 444 0 597 0 m 295 1010 l 295 0 l 87 0 l 87 1010 l 295 1010 m 408 1107 q 328 1138 361 1107 q 295 1213 295 1168 q 328 1287 295 1257 q 407 1318 361 1318 q 487 1287 454 1318 q 519 1213 519 1257 q 487 1138 519 1168 q 408 1107 454 1107 z "},"Ḍ":{"ha":996,"x_min":87,"x_max":937,"o":"m 444 0 l 182 0 l 182 178 l 433 178 q 598 213 532 178 q 697 321 664 248 q 730 506 730 394 q 697 690 730 617 q 598 798 664 762 q 435 833 532 833 l 177 833 l 177 1010 l 447 1010 q 709 950 600 1010 q 878 776 819 889 q 937 506 937 663 q 878 235 937 349 q 708 61 819 122 q 444 0 597 0 m 295 1010 l 295 0 l 87 0 l 87 1010 l 295 1010 m 440 -311 q 360 -280 393 -311 q 328 -205 328 -250 q 360 -131 328 -161 q 439 -100 393 -100 q 519 -131 487 -100 q 552 -205 552 -161 q 519 -280 552 -250 q 440 -311 487 -311 z "},"Ḏ":{"ha":996,"x_min":87,"x_max":937,"o":"m 444 0 l 182 0 l 182 178 l 433 178 q 598 213 532 178 q 697 321 664 248 q 730 506 730 394 q 697 690 730 617 q 598 798 664 762 q 435 833 532 833 l 177 833 l 177 1010 l 447 1010 q 709 950 600 1010 q 878 776 819 889 q 937 506 937 663 q 878 235 937 349 q 708 61 819 122 q 444 0 597 0 m 295 1010 l 295 0 l 87 0 l 87 1010 l 295 1010 m 636 -134 l 636 -263 l 243 -263 l 243 -134 l 636 -134 z "},"Ḑ":{"ha":996,"x_min":87,"x_max":937,"o":"m 444 0 l 182 0 l 182 178 l 433 178 q 598 213 532 178 q 697 321 664 248 q 730 506 730 394 q 697 690 730 617 q 598 798 664 762 q 435 833 532 833 l 177 833 l 177 1010 l 447 1010 q 709 950 600 1010 q 878 776 819 889 q 937 506 937 663 q 878 235 937 349 q 708 61 819 122 q 444 0 597 0 m 295 1010 l 295 0 l 87 0 l 87 1010 l 295 1010 m 286 -325 l 346 -80 l 534 -80 l 427 -325 l 286 -325 z "},"Ḓ":{"ha":996,"x_min":87,"x_max":937,"o":"m 444 0 l 182 0 l 182 178 l 433 178 q 598 213 532 178 q 697 321 664 248 q 730 506 730 394 q 697 690 730 617 q 598 798 664 762 q 435 833 532 833 l 177 833 l 177 1010 l 447 1010 q 709 950 600 1010 q 878 776 819 889 q 937 506 937 663 q 878 235 937 349 q 708 61 819 122 q 444 0 597 0 m 295 1010 l 295 0 l 87 0 l 87 1010 l 295 1010 m 346 -306 l 173 -306 l 173 -302 l 362 -100 l 519 -100 l 709 -302 l 709 -306 l 536 -306 l 441 -191 l 346 -306 z "},"Ɖ":{"ha":1052,"x_min":14,"x_max":993,"o":"m 499 0 l 237 0 l 237 178 l 489 178 q 653 213 587 178 q 753 321 720 248 q 786 506 786 394 q 753 690 786 617 q 654 798 720 762 q 490 833 588 833 l 233 833 l 233 1010 l 503 1010 q 765 950 655 1010 q 933 776 874 889 q 993 506 993 663 q 933 235 993 349 q 764 61 874 122 q 499 0 653 0 m 351 1010 l 351 0 l 143 0 l 143 1010 l 351 1010 m 14 435 l 14 575 l 565 575 l 565 435 l 14 435 z "},"ǲ":{"ha":1776,"x_min":87,"x_max":1699,"o":"m 444 0 l 182 0 l 182 178 l 433 178 q 598 213 532 178 q 697 321 664 248 q 730 506 730 394 q 697 690 730 617 q 598 798 664 762 q 435 833 532 833 l 177 833 l 177 1010 l 447 1010 q 709 950 600 1010 q 878 776 819 889 q 937 506 937 663 q 878 235 937 349 q 708 61 819 122 q 444 0 597 0 m 295 1010 l 295 0 l 87 0 l 87 1010 l 295 1010 m 1074 0 l 1074 125 l 1444 581 l 1444 586 l 1083 586 l 1083 749 l 1687 749 l 1687 612 l 1336 168 l 1336 163 l 1699 163 l 1699 0 l 1074 0 z "},"ǅ":{"ha":1776,"x_min":87,"x_max":1699,"o":"m 444 0 l 182 0 l 182 178 l 433 178 q 598 213 532 178 q 697 321 664 248 q 730 506 730 394 q 697 690 730 617 q 598 798 664 762 q 435 833 532 833 l 177 833 l 177 1010 l 447 1010 q 709 950 600 1010 q 878 776 819 889 q 937 506 937 663 q 878 235 937 349 q 708 61 819 122 q 444 0 597 0 m 295 1010 l 295 0 l 87 0 l 87 1010 l 295 1010 m 1074 0 l 1074 125 l 1444 581 l 1444 586 l 1083 586 l 1083 749 l 1687 749 l 1687 612 l 1336 168 l 1336 163 l 1699 163 l 1699 0 l 1074 0 m 1289 1055 l 1384 939 l 1479 1055 l 1652 1055 l 1652 1050 l 1462 849 l 1305 849 l 1116 1050 l 1116 1055 l 1289 1055 z "},"E":{"ha":844,"x_min":87,"x_max":776,"o":"m 87 0 l 87 1010 l 775 1010 l 775 837 l 295 837 l 295 595 l 739 595 l 739 425 l 295 425 l 295 174 l 776 174 l 776 0 l 87 0 z "},"È":{"ha":844,"x_min":87,"x_max":776,"o":"m 87 0 l 87 1010 l 775 1010 l 775 837 l 295 837 l 295 595 l 739 595 l 739 425 l 295 425 l 295 174 l 776 174 l 776 0 l 87 0 m 365 1105 l 218 1316 l 408 1316 l 507 1105 l 365 1105 z "},"É":{"ha":844,"x_min":87,"x_max":776,"o":"m 87 0 l 87 1010 l 775 1010 l 775 837 l 295 837 l 295 595 l 739 595 l 739 425 l 295 425 l 295 174 l 776 174 l 776 0 l 87 0 m 357 1105 l 457 1316 l 647 1316 l 500 1105 l 357 1105 z "},"Ê":{"ha":844,"x_min":87,"x_max":776,"o":"m 87 0 l 87 1010 l 775 1010 l 775 837 l 295 837 l 295 595 l 739 595 l 739 425 l 295 425 l 295 174 l 776 174 l 776 0 l 87 0 m 338 1111 l 165 1111 l 165 1115 l 354 1316 l 511 1316 l 701 1115 l 701 1111 l 528 1111 l 433 1226 l 338 1111 z "},"Ë":{"ha":844,"x_min":87,"x_max":776,"o":"m 87 0 l 87 1010 l 775 1010 l 775 837 l 295 837 l 295 595 l 739 595 l 739 425 l 295 425 l 295 174 l 776 174 l 776 0 l 87 0 m 583 1112 q 510 1142 540 1112 q 479 1213 479 1171 q 510 1284 479 1255 q 583 1313 540 1313 q 656 1284 627 1313 q 686 1213 686 1255 q 656 1141 686 1171 q 583 1112 627 1112 m 282 1112 q 209 1142 239 1112 q 179 1213 179 1171 q 209 1284 179 1255 q 282 1313 239 1313 q 355 1284 326 1313 q 385 1213 385 1255 q 355 1141 385 1171 q 282 1112 326 1112 z "},"Ē":{"ha":844,"x_min":87,"x_max":776,"o":"m 87 0 l 87 1010 l 775 1010 l 775 837 l 295 837 l 295 595 l 739 595 l 739 425 l 295 425 l 295 174 l 776 174 l 776 0 l 87 0 m 629 1275 l 629 1146 l 237 1146 l 237 1275 l 629 1275 z "},"Ĕ":{"ha":844,"x_min":87,"x_max":776,"o":"m 87 0 l 87 1010 l 775 1010 l 775 837 l 295 837 l 295 595 l 739 595 l 739 425 l 295 425 l 295 174 l 776 174 l 776 0 l 87 0 m 433 1103 q 314 1131 367 1103 q 230 1207 261 1159 q 199 1314 199 1255 l 318 1314 q 351 1242 318 1270 q 433 1214 384 1214 q 514 1242 481 1214 q 547 1314 547 1270 l 667 1314 q 636 1207 667 1255 q 552 1131 605 1159 q 433 1103 499 1103 z "},"Ė":{"ha":844,"x_min":87,"x_max":776,"o":"m 87 0 l 87 1010 l 775 1010 l 775 837 l 295 837 l 295 595 l 739 595 l 739 425 l 295 425 l 295 174 l 776 174 l 776 0 l 87 0 m 433 1107 q 353 1138 386 1107 q 320 1213 320 1168 q 353 1287 320 1257 q 432 1318 386 1318 q 512 1287 479 1318 q 545 1213 545 1257 q 512 1138 545 1168 q 433 1107 479 1107 z "},"Ę":{"ha":844,"x_min":87,"x_max":803,"o":"m 87 0 l 87 1010 l 775 1010 l 775 837 l 295 837 l 295 595 l 739 595 l 739 425 l 295 425 l 295 174 l 776 174 l 776 0 l 87 0 m 668 -290 q 537 -253 587 -290 q 488 -148 488 -216 q 514 -58 488 -100 q 587 18 540 -16 l 776 0 q 695 -55 722 -28 q 669 -116 669 -83 q 681 -152 669 -139 q 719 -165 694 -165 q 745 -161 732 -165 q 768 -153 758 -157 l 803 -263 q 742 -282 778 -275 q 668 -290 706 -290 z "},"Ě":{"ha":844,"x_min":87,"x_max":776,"o":"m 87 0 l 87 1010 l 775 1010 l 775 837 l 295 837 l 295 595 l 739 595 l 739 425 l 295 425 l 295 174 l 776 174 l 776 0 l 87 0 m 338 1316 l 433 1201 l 528 1316 l 701 1316 l 701 1312 l 511 1111 l 354 1111 l 165 1312 l 165 1316 l 338 1316 z "},"Ȅ":{"ha":844,"x_min":79,"x_max":776,"o":"m 87 0 l 87 1010 l 775 1010 l 775 837 l 295 837 l 295 595 l 739 595 l 739 425 l 295 425 l 295 174 l 776 174 l 776 0 l 87 0 m 483 1105 l 367 1316 l 549 1316 l 625 1105 l 483 1105 m 245 1105 l 79 1316 l 273 1316 l 391 1105 l 245 1105 z "},"Ȇ":{"ha":844,"x_min":87,"x_max":776,"o":"m 87 0 l 87 1010 l 775 1010 l 775 837 l 295 837 l 295 595 l 739 595 l 739 425 l 295 425 l 295 174 l 776 174 l 776 0 l 87 0 m 433 1325 q 554 1297 501 1325 q 639 1220 608 1268 q 670 1111 670 1171 l 550 1111 q 516 1184 550 1156 q 433 1213 481 1213 q 349 1184 383 1213 q 315 1111 315 1156 l 195 1111 q 227 1220 195 1171 q 311 1297 258 1268 q 433 1325 365 1325 z "},"Ȩ":{"ha":844,"x_min":87,"x_max":776,"o":"m 87 0 l 87 1010 l 775 1010 l 775 837 l 295 837 l 295 595 l 739 595 l 739 425 l 295 425 l 295 174 l 776 174 l 776 0 l 87 0 m 347 -283 l 347 -202 l 432 -202 q 478 -192 464 -202 q 492 -161 492 -182 q 478 -130 492 -139 q 432 -120 464 -120 l 371 -120 l 396 30 l 474 30 l 474 0 l 471 -58 q 569 -85 534 -56 q 604 -166 604 -113 q 564 -256 604 -228 q 441 -283 525 -283 l 347 -283 z "},"Ḕ":{"ha":844,"x_min":87,"x_max":776,"o":"m 87 0 l 87 1010 l 775 1010 l 775 837 l 295 837 l 295 595 l 739 595 l 739 425 l 295 425 l 295 174 l 776 174 l 776 0 l 87 0 m 629 1260 l 629 1131 l 237 1131 l 237 1260 l 629 1260 m 377 1349 l 245 1535 l 412 1535 l 503 1349 l 377 1349 z "},"Ḗ":{"ha":844,"x_min":87,"x_max":776,"o":"m 87 0 l 87 1010 l 775 1010 l 775 837 l 295 837 l 295 595 l 739 595 l 739 425 l 295 425 l 295 174 l 776 174 l 776 0 l 87 0 m 629 1259 l 629 1131 l 237 1131 l 237 1259 l 629 1259 m 371 1349 l 460 1535 l 629 1535 l 496 1349 l 371 1349 z "},"Ḙ":{"ha":844,"x_min":87,"x_max":776,"o":"m 87 0 l 87 1010 l 775 1010 l 775 837 l 295 837 l 295 595 l 739 595 l 739 425 l 295 425 l 295 174 l 776 174 l 776 0 l 87 0 m 339 -306 l 166 -306 l 166 -302 l 355 -100 l 512 -100 l 702 -302 l 702 -306 l 529 -306 l 434 -191 l 339 -306 z "},"Ḛ":{"ha":844,"x_min":87,"x_max":776,"o":"m 87 0 l 87 1010 l 775 1010 l 775 837 l 295 837 l 295 595 l 739 595 l 739 425 l 295 425 l 295 174 l 776 174 l 776 0 l 87 0 m 529 -295 q 471 -284 496 -295 q 425 -260 446 -274 q 388 -236 405 -246 q 354 -225 370 -225 q 322 -243 333 -225 q 310 -291 311 -262 l 198 -291 q 238 -158 200 -205 q 339 -112 277 -112 q 397 -122 372 -112 q 442 -146 422 -133 q 479 -171 462 -160 q 513 -181 496 -181 q 547 -164 536 -181 q 559 -115 557 -148 l 669 -115 q 628 -248 667 -201 q 529 -295 589 -295 z "},"Ḝ":{"ha":844,"x_min":87,"x_max":776,"o":"m 87 0 l 87 1010 l 775 1010 l 775 837 l 295 837 l 295 595 l 739 595 l 739 425 l 295 425 l 295 174 l 776 174 l 776 0 l 87 0 m 347 -283 l 347 -202 l 432 -202 q 478 -192 464 -202 q 492 -161 492 -182 q 478 -130 492 -139 q 432 -120 464 -120 l 371 -120 l 396 30 l 474 30 l 474 0 l 471 -58 q 569 -85 534 -56 q 604 -166 604 -113 q 564 -256 604 -228 q 441 -283 525 -283 l 347 -283 m 433 1103 q 314 1131 367 1103 q 230 1207 261 1159 q 199 1314 199 1255 l 318 1314 q 351 1242 318 1270 q 433 1214 384 1214 q 514 1242 481 1214 q 547 1314 547 1270 l 667 1314 q 636 1207 667 1255 q 552 1131 605 1159 q 433 1103 499 1103 z "},"Ẹ":{"ha":844,"x_min":87,"x_max":776,"o":"m 87 0 l 87 1010 l 775 1010 l 775 837 l 295 837 l 295 595 l 739 595 l 739 425 l 295 425 l 295 174 l 776 174 l 776 0 l 87 0 m 433 -311 q 354 -280 387 -311 q 321 -205 321 -250 q 354 -131 321 -161 q 433 -100 387 -100 q 513 -131 480 -100 q 545 -205 545 -161 q 513 -280 545 -250 q 433 -311 480 -311 z "},"Ẻ":{"ha":844,"x_min":87,"x_max":776,"o":"m 87 0 l 87 1010 l 775 1010 l 775 837 l 295 837 l 295 595 l 739 595 l 739 425 l 295 425 l 295 174 l 776 174 l 776 0 l 87 0 m 488 1105 l 366 1105 l 418 1196 q 420 1207 422 1204 q 410 1211 418 1211 l 302 1211 l 302 1316 l 411 1316 q 500 1301 468 1316 q 545 1263 533 1286 q 552 1211 557 1239 q 526 1155 546 1182 l 488 1105 z "},"Ẽ":{"ha":844,"x_min":87,"x_max":776,"o":"m 87 0 l 87 1010 l 775 1010 l 775 837 l 295 837 l 295 595 l 739 595 l 739 425 l 295 425 l 295 174 l 776 174 l 776 0 l 87 0 m 528 1122 q 470 1132 495 1122 q 424 1157 444 1143 q 386 1181 404 1171 q 353 1192 369 1192 q 321 1173 332 1192 q 309 1126 310 1155 l 197 1126 q 237 1258 199 1212 q 338 1305 275 1305 q 396 1294 371 1305 q 440 1270 420 1284 q 477 1246 460 1257 q 512 1236 494 1236 q 546 1252 535 1236 q 558 1301 556 1269 l 668 1301 q 627 1169 666 1216 q 528 1122 588 1122 z "},"Ế":{"ha":844,"x_min":87,"x_max":787,"o":"m 87 0 l 87 1010 l 775 1010 l 775 837 l 295 837 l 295 595 l 739 595 l 739 425 l 295 425 l 295 174 l 776 174 l 776 0 l 87 0 m 339 1095 l 166 1095 l 166 1099 l 355 1300 l 512 1300 l 702 1099 l 702 1095 l 529 1095 l 434 1210 l 339 1095 m 533 1347 l 621 1531 l 786 1531 l 656 1347 l 533 1347 z "},"Ề":{"ha":844,"x_min":87,"x_max":776,"o":"m 87 0 l 87 1010 l 775 1010 l 775 837 l 295 837 l 295 595 l 739 595 l 739 425 l 295 425 l 295 174 l 776 174 l 776 0 l 87 0 m 339 1095 l 166 1095 l 166 1099 l 355 1300 l 512 1300 l 702 1099 l 702 1095 l 529 1095 l 434 1210 l 339 1095 m 591 1347 l 462 1531 l 627 1531 l 715 1347 l 591 1347 z "},"Ể":{"ha":844,"x_min":87,"x_max":776,"o":"m 87 0 l 87 1010 l 775 1010 l 775 837 l 295 837 l 295 595 l 739 595 l 739 425 l 295 425 l 295 174 l 776 174 l 776 0 l 87 0 m 339 1095 l 166 1095 l 166 1099 l 355 1300 l 512 1300 l 702 1099 l 702 1095 l 529 1095 l 434 1210 l 339 1095 m 639 1347 l 533 1347 l 576 1423 q 578 1434 581 1431 q 568 1438 576 1438 l 474 1438 l 474 1531 l 570 1531 q 665 1508 635 1531 q 695 1452 695 1486 q 669 1386 694 1419 l 639 1347 z "},"Ễ":{"ha":844,"x_min":87,"x_max":776,"o":"m 87 0 l 87 1010 l 775 1010 l 775 837 l 295 837 l 295 595 l 739 595 l 739 425 l 295 425 l 295 174 l 776 174 l 776 0 l 87 0 m 339 1095 l 166 1095 l 166 1099 l 355 1300 l 512 1300 l 702 1099 l 702 1095 l 529 1095 l 434 1210 l 339 1095 m 528 1356 q 471 1366 496 1356 q 425 1388 446 1375 q 388 1409 405 1400 q 354 1419 370 1419 q 322 1402 333 1419 q 310 1360 311 1385 l 198 1360 q 238 1479 200 1436 q 339 1521 277 1521 q 397 1512 372 1521 q 441 1490 422 1502 q 478 1468 461 1477 q 513 1459 496 1459 q 547 1474 536 1459 q 559 1518 557 1489 l 669 1518 q 628 1399 667 1441 q 528 1356 589 1356 z "},"Ệ":{"ha":844,"x_min":87,"x_max":776,"o":"m 87 0 l 87 1010 l 775 1010 l 775 837 l 295 837 l 295 595 l 739 595 l 739 425 l 295 425 l 295 174 l 776 174 l 776 0 l 87 0 m 338 1111 l 165 1111 l 165 1115 l 354 1316 l 511 1316 l 701 1115 l 701 1111 l 528 1111 l 433 1226 l 338 1111 m 433 -311 q 354 -280 387 -311 q 321 -205 321 -250 q 354 -131 321 -161 q 433 -100 387 -100 q 513 -131 480 -100 q 545 -205 545 -161 q 513 -280 545 -250 q 433 -311 480 -311 z "},"Ɇ":{"ha":844,"x_min":87,"x_max":776,"o":"m 215 -129 l 581 1138 l 692 1138 l 328 -129 l 215 -129 m 87 0 l 87 1010 l 775 1010 l 775 837 l 295 837 l 295 595 l 739 595 l 739 425 l 295 425 l 295 174 l 776 174 l 776 0 l 87 0 z "},"Ǝ":{"ha":844,"x_min":68,"x_max":756,"o":"m 756 1010 l 756 0 l 68 0 l 68 174 l 549 174 l 549 415 l 105 415 l 105 585 l 549 585 l 549 837 l 68 837 l 68 1010 l 756 1010 z "},"Ε":{"ha":844,"x_min":87,"x_max":776,"o":"m 87 0 l 87 1010 l 775 1010 l 775 837 l 295 837 l 295 595 l 739 595 l 739 425 l 295 425 l 295 174 l 776 174 l 776 0 l 87 0 z "},"Έ":{"ha":1094,"x_min":46,"x_max":1027,"o":"m 338 0 l 338 1010 l 1025 1010 l 1025 837 l 545 837 l 545 595 l 989 595 l 989 425 l 545 425 l 545 174 l 1026 174 l 1026 0 l 338 0 m 47 799 l 69 1010 l 251 1010 l 168 799 l 47 799 z "},"Ἐ":{"ha":1098,"x_min":46,"x_max":1030,"o":"m 342 0 l 342 1010 l 1029 1010 l 1029 837 l 549 837 l 549 595 l 993 595 l 993 425 l 549 425 l 549 174 l 1030 174 l 1030 0 l 342 0 m 75 798 l 66 798 l 66 854 l 76 854 q 129 865 111 854 q 146 897 146 876 q 130 925 146 916 q 81 935 114 935 l 46 935 l 46 1029 l 75 1029 q 208 998 161 1029 q 254 913 254 968 q 207 828 254 857 q 75 798 161 798 z "},"Ἑ":{"ha":1112,"x_min":46,"x_max":1044,"o":"m 355 0 l 355 1010 l 1043 1010 l 1043 837 l 563 837 l 563 595 l 1006 595 l 1006 425 l 563 425 l 563 174 l 1044 174 l 1044 0 l 355 0 m 225 785 q 93 814 139 785 q 46 899 46 844 q 92 985 46 954 q 225 1015 138 1015 l 254 1015 l 254 921 l 219 921 q 170 911 186 921 q 153 883 153 902 q 171 851 153 862 q 224 841 189 841 l 234 841 l 234 785 l 225 785 z "},"Ἒ":{"ha":1346,"x_min":46,"x_max":1279,"o":"m 590 0 l 590 1010 l 1278 1010 l 1278 837 l 798 837 l 798 595 l 1241 595 l 1241 425 l 798 425 l 798 174 l 1278 174 l 1278 0 l 590 0 m 75 785 l 66 785 l 66 841 l 76 841 q 129 851 111 841 q 146 883 146 862 q 130 911 146 902 q 81 921 114 921 l 46 921 l 46 1015 l 75 1015 q 208 985 161 1015 q 254 899 254 954 q 207 814 254 844 q 75 785 161 785 m 462 792 l 353 792 l 277 1010 l 441 1010 l 462 792 z "},"Ἓ":{"ha":1372,"x_min":46,"x_max":1305,"o":"m 616 0 l 616 1010 l 1303 1010 l 1303 837 l 823 837 l 823 595 l 1267 595 l 1267 425 l 823 425 l 823 174 l 1304 174 l 1304 0 l 616 0 m 225 785 q 93 814 139 785 q 46 899 46 844 q 92 985 46 954 q 225 1015 138 1015 l 254 1015 l 254 921 l 219 921 q 170 911 186 921 q 153 883 153 902 q 171 851 153 862 q 224 841 189 841 l 234 841 l 234 785 l 225 785 m 486 792 l 376 792 l 300 1010 l 465 1010 l 486 792 z "},"Ἔ":{"ha":1354,"x_min":46,"x_max":1286,"o":"m 598 0 l 598 1010 l 1286 1010 l 1286 837 l 806 837 l 806 595 l 1249 595 l 1249 425 l 806 425 l 806 174 l 1286 174 l 1286 0 l 598 0 m 75 785 l 66 785 l 66 841 l 76 841 q 129 851 111 841 q 146 883 146 862 q 130 911 146 902 q 81 921 114 921 l 46 921 l 46 1015 l 75 1015 q 208 985 161 1015 q 254 899 254 954 q 207 814 254 844 q 75 785 161 785 m 332 792 l 352 1010 l 516 1010 l 440 792 l 332 792 z "},"Ἕ":{"ha":1374,"x_min":46,"x_max":1306,"o":"m 617 0 l 617 1010 l 1305 1010 l 1305 837 l 825 837 l 825 595 l 1268 595 l 1268 425 l 825 425 l 825 174 l 1305 174 l 1305 0 l 617 0 m 225 785 q 93 814 139 785 q 46 899 46 844 q 92 985 46 954 q 225 1015 138 1015 l 254 1015 l 254 921 l 219 921 q 170 911 186 921 q 153 883 153 902 q 171 851 153 862 q 224 841 189 841 l 234 841 l 234 785 l 225 785 m 345 792 l 366 1010 l 530 1010 l 454 792 l 345 792 z "},"Ὲ":{"ha":1070,"x_min":-62,"x_max":1003,"o":"m 314 0 l 314 1010 l 1002 1010 l 1002 837 l 522 837 l 522 595 l 965 595 l 965 425 l 522 425 l 522 174 l 1002 174 l 1002 0 l 314 0 m 142 839 l 22 839 l -62 1050 l 120 1050 l 142 839 z "},"Έ":{"ha":1094,"x_min":46,"x_max":1027,"o":"m 338 0 l 338 1010 l 1025 1010 l 1025 837 l 545 837 l 545 595 l 989 595 l 989 425 l 545 425 l 545 174 l 1026 174 l 1026 0 l 338 0 m 47 799 l 69 1010 l 251 1010 l 168 799 l 47 799 z "},"Е":{"ha":844,"x_min":87,"x_max":776,"o":"m 87 0 l 87 1010 l 775 1010 l 775 837 l 295 837 l 295 595 l 739 595 l 739 425 l 295 425 l 295 174 l 776 174 l 776 0 l 87 0 z "},"Ѐ":{"ha":844,"x_min":87,"x_max":776,"o":"m 87 0 l 87 1010 l 775 1010 l 775 837 l 295 837 l 295 595 l 739 595 l 739 425 l 295 425 l 295 174 l 776 174 l 776 0 l 87 0 m 365 1105 l 218 1316 l 408 1316 l 507 1105 l 365 1105 z "},"Ё":{"ha":844,"x_min":87,"x_max":776,"o":"m 87 0 l 87 1010 l 775 1010 l 775 837 l 295 837 l 295 595 l 739 595 l 739 425 l 295 425 l 295 174 l 776 174 l 776 0 l 87 0 m 583 1112 q 510 1142 540 1112 q 479 1213 479 1171 q 510 1284 479 1255 q 583 1313 540 1313 q 656 1284 627 1313 q 686 1213 686 1255 q 656 1141 686 1171 q 583 1112 627 1112 m 282 1112 q 209 1142 239 1112 q 179 1213 179 1171 q 209 1284 179 1255 q 282 1313 239 1313 q 355 1284 326 1313 q 385 1213 385 1255 q 355 1141 385 1171 q 282 1112 326 1112 z "},"Ӗ":{"ha":844,"x_min":87,"x_max":776,"o":"m 87 0 l 87 1010 l 775 1010 l 775 837 l 295 837 l 295 595 l 739 595 l 739 425 l 295 425 l 295 174 l 776 174 l 776 0 l 87 0 m 433 1103 q 314 1131 367 1103 q 230 1207 261 1159 q 199 1314 199 1255 l 318 1314 q 351 1242 318 1270 q 433 1214 384 1214 q 514 1242 481 1214 q 547 1314 547 1270 l 667 1314 q 636 1207 667 1255 q 552 1131 605 1159 q 433 1103 499 1103 z "},"F":{"ha":814,"x_min":87,"x_max":761,"o":"m 87 0 l 87 1010 l 761 1010 l 761 837 l 295 837 l 295 562 l 719 562 l 719 393 l 295 393 l 295 0 l 87 0 z "},"Ƒ":{"ha":814,"x_min":-57,"x_max":761,"o":"m -57 -283 l -57 -123 q -24 -126 -41 -125 q 8 -127 -7 -127 q 70 -113 53 -127 q 87 -66 87 -98 l 87 85 l 295 85 l 295 -77 q 233 -238 295 -184 q 50 -292 172 -292 q -9 -290 18 -292 q -57 -283 -37 -288 m 87 0 l 87 1010 l 761 1010 l 761 837 l 295 837 l 295 562 l 719 562 l 719 393 l 295 393 l 295 0 l 87 0 z "},"Ḟ":{"ha":814,"x_min":87,"x_max":761,"o":"m 87 0 l 87 1010 l 761 1010 l 761 837 l 295 837 l 295 562 l 719 562 l 719 393 l 295 393 l 295 0 l 87 0 m 425 1107 q 346 1138 378 1107 q 313 1213 313 1168 q 346 1287 313 1257 q 425 1318 378 1318 q 505 1287 472 1318 q 537 1213 537 1257 q 505 1138 537 1168 q 425 1107 472 1107 z "},"Ⅎ":{"ha":814,"x_min":53,"x_max":726,"o":"m 726 1010 l 726 0 l 53 0 l 53 174 l 518 174 l 518 448 l 95 448 l 95 618 l 518 618 l 518 1010 l 726 1010 z "},"G":{"ha":1038,"x_min":59,"x_max":975,"o":"m 536 -14 q 287 49 394 -14 q 119 229 179 113 q 59 504 59 345 q 121 784 59 667 q 291 963 184 901 q 532 1025 397 1025 q 691 1000 617 1025 q 823 929 766 975 q 918 820 881 883 q 965 682 955 758 l 754 682 q 725 748 744 719 q 677 798 705 777 q 614 830 650 819 q 535 841 578 841 q 396 802 456 841 q 302 687 336 762 q 269 506 269 612 q 302 324 269 399 q 395 209 335 249 q 538 170 456 170 q 663 196 610 170 q 744 272 716 223 q 772 387 772 321 l 817 380 l 553 380 l 553 538 l 975 538 l 975 411 q 918 185 975 280 q 762 38 861 90 q 536 -14 663 -14 z "},"Ǥ":{"ha":1038,"x_min":59,"x_max":1040,"o":"m 536 -14 q 287 49 394 -14 q 119 229 179 113 q 59 504 59 345 q 121 784 59 667 q 291 963 184 901 q 532 1025 397 1025 q 691 1000 617 1025 q 823 929 766 975 q 918 820 881 883 q 965 682 955 758 l 754 682 q 725 748 744 719 q 677 798 705 777 q 614 830 650 819 q 535 841 578 841 q 396 802 456 841 q 302 687 336 762 q 269 506 269 612 q 302 324 269 399 q 395 209 335 249 q 538 170 456 170 q 663 196 610 170 q 744 272 716 223 q 772 387 772 321 l 817 380 l 553 380 l 553 538 l 975 538 l 975 411 q 918 185 975 280 q 762 38 861 90 q 536 -14 663 -14 m 553 242 l 553 319 l 1040 319 l 1040 242 l 553 242 z "},"Ɠ":{"ha":1038,"x_min":59,"x_max":1115,"o":"m 766 682 l 766 926 q 826 1087 766 1033 q 1008 1141 887 1141 q 1067 1138 1040 1141 q 1115 1132 1095 1136 l 1115 982 q 1083 985 1100 984 q 1050 985 1066 985 q 985 971 1005 985 q 965 924 965 957 l 965 682 l 766 682 m 536 -14 q 287 49 394 -14 q 119 229 179 113 q 59 504 59 345 q 121 784 59 667 q 291 963 184 901 q 532 1025 397 1025 q 691 1000 617 1025 q 823 929 766 975 q 918 820 881 883 q 965 682 955 758 l 754 682 q 725 748 744 719 q 677 798 705 777 q 614 830 650 819 q 535 841 578 841 q 396 802 456 841 q 302 687 336 762 q 269 506 269 612 q 302 324 269 399 q 395 209 335 249 q 538 170 456 170 q 663 196 610 170 q 744 272 716 223 q 772 387 772 321 l 817 380 l 553 380 l 553 538 l 975 538 l 975 411 q 918 185 975 280 q 762 38 861 90 q 536 -14 663 -14 z "},"Ĝ":{"ha":1038,"x_min":59,"x_max":975,"o":"m 536 -14 q 287 49 394 -14 q 119 229 179 113 q 59 504 59 345 q 121 784 59 667 q 291 963 184 901 q 532 1025 397 1025 q 691 1000 617 1025 q 823 929 766 975 q 918 820 881 883 q 965 682 955 758 l 754 682 q 725 748 744 719 q 677 798 705 777 q 614 830 650 819 q 535 841 578 841 q 396 802 456 841 q 302 687 336 762 q 269 506 269 612 q 302 324 269 399 q 395 209 335 249 q 538 170 456 170 q 663 196 610 170 q 744 272 716 223 q 772 387 772 321 l 817 380 l 553 380 l 553 538 l 975 538 l 975 411 q 918 185 975 280 q 762 38 861 90 q 536 -14 663 -14 m 431 1111 l 258 1111 l 258 1115 l 448 1316 l 604 1316 l 794 1115 l 794 1111 l 621 1111 l 526 1226 l 431 1111 z "},"Ğ":{"ha":1038,"x_min":59,"x_max":975,"o":"m 536 -14 q 287 49 394 -14 q 119 229 179 113 q 59 504 59 345 q 121 784 59 667 q 291 963 184 901 q 532 1025 397 1025 q 691 1000 617 1025 q 823 929 766 975 q 918 820 881 883 q 965 682 955 758 l 754 682 q 725 748 744 719 q 677 798 705 777 q 614 830 650 819 q 535 841 578 841 q 396 802 456 841 q 302 687 336 762 q 269 506 269 612 q 302 324 269 399 q 395 209 335 249 q 538 170 456 170 q 663 196 610 170 q 744 272 716 223 q 772 387 772 321 l 817 380 l 553 380 l 553 538 l 975 538 l 975 411 q 918 185 975 280 q 762 38 861 90 q 536 -14 663 -14 m 526 1103 q 408 1131 460 1103 q 324 1207 355 1159 q 293 1314 293 1255 l 412 1314 q 445 1242 412 1270 q 526 1214 477 1214 q 608 1242 575 1214 q 640 1314 640 1270 l 760 1314 q 729 1207 760 1255 q 646 1131 699 1159 q 526 1103 593 1103 z "},"Ġ":{"ha":1038,"x_min":59,"x_max":975,"o":"m 536 -14 q 287 49 394 -14 q 119 229 179 113 q 59 504 59 345 q 121 784 59 667 q 291 963 184 901 q 532 1025 397 1025 q 691 1000 617 1025 q 823 929 766 975 q 918 820 881 883 q 965 682 955 758 l 754 682 q 725 748 744 719 q 677 798 705 777 q 614 830 650 819 q 535 841 578 841 q 396 802 456 841 q 302 687 336 762 q 269 506 269 612 q 302 324 269 399 q 395 209 335 249 q 538 170 456 170 q 663 196 610 170 q 744 272 716 223 q 772 387 772 321 l 817 380 l 553 380 l 553 538 l 975 538 l 975 411 q 918 185 975 280 q 762 38 861 90 q 536 -14 663 -14 m 527 1107 q 447 1138 480 1107 q 414 1213 414 1168 q 447 1287 414 1257 q 526 1318 480 1318 q 606 1287 574 1318 q 639 1213 639 1257 q 606 1138 639 1168 q 527 1107 574 1107 z "},"Ģ":{"ha":1038,"x_min":59,"x_max":975,"o":"m 536 -14 q 287 49 394 -14 q 119 229 179 113 q 59 504 59 345 q 121 784 59 667 q 291 963 184 901 q 532 1025 397 1025 q 691 1000 617 1025 q 823 929 766 975 q 918 820 881 883 q 965 682 955 758 l 754 682 q 725 748 744 719 q 677 798 705 777 q 614 830 650 819 q 535 841 578 841 q 396 802 456 841 q 302 687 336 762 q 269 506 269 612 q 302 324 269 399 q 395 209 335 249 q 538 170 456 170 q 663 196 610 170 q 744 272 716 223 q 772 387 772 321 l 817 380 l 553 380 l 553 538 l 975 538 l 975 411 q 918 185 975 280 q 762 38 861 90 q 536 -14 663 -14 m 370 -325 l 431 -80 l 619 -80 l 512 -325 l 370 -325 z "},"Ǧ":{"ha":1038,"x_min":59,"x_max":975,"o":"m 536 -14 q 287 49 394 -14 q 119 229 179 113 q 59 504 59 345 q 121 784 59 667 q 291 963 184 901 q 532 1025 397 1025 q 691 1000 617 1025 q 823 929 766 975 q 918 820 881 883 q 965 682 955 758 l 754 682 q 725 748 744 719 q 677 798 705 777 q 614 830 650 819 q 535 841 578 841 q 396 802 456 841 q 302 687 336 762 q 269 506 269 612 q 302 324 269 399 q 395 209 335 249 q 538 170 456 170 q 663 196 610 170 q 744 272 716 223 q 772 387 772 321 l 817 380 l 553 380 l 553 538 l 975 538 l 975 411 q 918 185 975 280 q 762 38 861 90 q 536 -14 663 -14 m 431 1316 l 526 1201 l 621 1316 l 794 1316 l 794 1312 l 604 1111 l 448 1111 l 258 1312 l 258 1316 l 431 1316 z "},"Ǵ":{"ha":1038,"x_min":59,"x_max":975,"o":"m 536 -14 q 287 49 394 -14 q 119 229 179 113 q 59 504 59 345 q 121 784 59 667 q 291 963 184 901 q 532 1025 397 1025 q 691 1000 617 1025 q 823 929 766 975 q 918 820 881 883 q 965 682 955 758 l 754 682 q 725 748 744 719 q 677 798 705 777 q 614 830 650 819 q 535 841 578 841 q 396 802 456 841 q 302 687 336 762 q 269 506 269 612 q 302 324 269 399 q 395 209 335 249 q 538 170 456 170 q 663 196 610 170 q 744 272 716 223 q 772 387 772 321 l 817 380 l 553 380 l 553 538 l 975 538 l 975 411 q 918 185 975 280 q 762 38 861 90 q 536 -14 663 -14 m 451 1105 l 551 1316 l 741 1316 l 593 1105 l 451 1105 z "},"Ḡ":{"ha":1038,"x_min":59,"x_max":975,"o":"m 536 -14 q 287 49 394 -14 q 119 229 179 113 q 59 504 59 345 q 121 784 59 667 q 291 963 184 901 q 532 1025 397 1025 q 691 1000 617 1025 q 823 929 766 975 q 918 820 881 883 q 965 682 955 758 l 754 682 q 725 748 744 719 q 677 798 705 777 q 614 830 650 819 q 535 841 578 841 q 396 802 456 841 q 302 687 336 762 q 269 506 269 612 q 302 324 269 399 q 395 209 335 249 q 538 170 456 170 q 663 196 610 170 q 744 272 716 223 q 772 387 772 321 l 817 380 l 553 380 l 553 538 l 975 538 l 975 411 q 918 185 975 280 q 762 38 861 90 q 536 -14 663 -14 m 723 1275 l 723 1146 l 330 1146 l 330 1275 l 723 1275 z "},"":{"ha":1051,"x_min":59,"x_max":975,"o":"m 513 -14 q 282 49 385 -14 q 119 229 179 113 q 59 504 59 345 q 121 784 59 667 q 291 963 184 901 q 532 1025 397 1025 q 691 1000 617 1025 q 823 929 766 975 q 918 820 881 883 q 965 682 955 758 l 754 682 q 725 748 744 719 q 677 798 705 777 q 614 830 650 819 q 535 841 578 841 q 396 802 456 841 q 302 687 336 762 q 269 506 269 612 q 302 324 269 399 q 396 209 336 249 q 541 170 457 170 q 665 197 612 170 q 745 275 717 224 q 774 394 774 326 l 831 394 l 831 315 q 812 187 831 247 q 756 82 794 127 q 657 12 718 37 q 513 -14 597 -14 m 837 0 l 810 233 l 810 380 l 553 380 l 553 538 l 975 538 l 975 0 l 837 0 z "},"":{"ha":1051,"x_min":59,"x_max":1040,"o":"m 513 -14 q 282 49 385 -14 q 119 229 179 113 q 59 504 59 345 q 121 784 59 667 q 291 963 184 901 q 532 1025 397 1025 q 691 1000 617 1025 q 823 929 766 975 q 918 820 881 883 q 965 682 955 758 l 754 682 q 725 748 744 719 q 677 798 705 777 q 614 830 650 819 q 535 841 578 841 q 396 802 456 841 q 302 687 336 762 q 269 506 269 612 q 302 324 269 399 q 396 209 336 249 q 541 170 457 170 q 665 197 612 170 q 745 275 717 224 q 774 394 774 326 l 831 394 l 831 315 q 812 187 831 247 q 756 82 794 127 q 657 12 718 37 q 513 -14 597 -14 m 837 0 l 810 233 l 810 380 l 553 380 l 553 538 l 975 538 l 975 0 l 837 0 m 553 242 l 553 319 l 1040 319 l 1040 242 l 553 242 z "},"":{"ha":1051,"x_min":59,"x_max":1115,"o":"m 766 682 l 766 926 q 826 1087 766 1033 q 1008 1141 887 1141 q 1067 1138 1040 1141 q 1115 1132 1095 1136 l 1115 982 q 1083 985 1100 984 q 1050 985 1066 985 q 985 971 1005 985 q 965 924 965 957 l 965 682 l 766 682 m 513 -14 q 282 49 385 -14 q 119 229 179 113 q 59 504 59 345 q 121 784 59 667 q 291 963 184 901 q 532 1025 397 1025 q 691 1000 617 1025 q 823 929 766 975 q 918 820 881 883 q 965 682 955 758 l 754 682 q 725 748 744 719 q 677 798 705 777 q 614 830 650 819 q 535 841 578 841 q 396 802 456 841 q 302 687 336 762 q 269 506 269 612 q 302 324 269 399 q 396 209 336 249 q 541 170 457 170 q 665 197 612 170 q 745 275 717 224 q 774 394 774 326 l 831 394 l 831 315 q 812 187 831 247 q 756 82 794 127 q 657 12 718 37 q 513 -14 597 -14 m 837 0 l 810 233 l 810 380 l 553 380 l 553 538 l 975 538 l 975 0 l 837 0 z "},"":{"ha":1051,"x_min":59,"x_max":975,"o":"m 513 -14 q 282 49 385 -14 q 119 229 179 113 q 59 504 59 345 q 121 784 59 667 q 291 963 184 901 q 532 1025 397 1025 q 691 1000 617 1025 q 823 929 766 975 q 918 820 881 883 q 965 682 955 758 l 754 682 q 725 748 744 719 q 677 798 705 777 q 614 830 650 819 q 535 841 578 841 q 396 802 456 841 q 302 687 336 762 q 269 506 269 612 q 302 324 269 399 q 396 209 336 249 q 541 170 457 170 q 665 197 612 170 q 745 275 717 224 q 774 394 774 326 l 831 394 l 831 315 q 812 187 831 247 q 756 82 794 127 q 657 12 718 37 q 513 -14 597 -14 m 837 0 l 810 233 l 810 380 l 553 380 l 553 538 l 975 538 l 975 0 l 837 0 m 431 1111 l 258 1111 l 258 1115 l 448 1316 l 604 1316 l 794 1115 l 794 1111 l 621 1111 l 526 1226 l 431 1111 z "},"":{"ha":1051,"x_min":59,"x_max":975,"o":"m 513 -14 q 282 49 385 -14 q 119 229 179 113 q 59 504 59 345 q 121 784 59 667 q 291 963 184 901 q 532 1025 397 1025 q 691 1000 617 1025 q 823 929 766 975 q 918 820 881 883 q 965 682 955 758 l 754 682 q 725 748 744 719 q 677 798 705 777 q 614 830 650 819 q 535 841 578 841 q 396 802 456 841 q 302 687 336 762 q 269 506 269 612 q 302 324 269 399 q 396 209 336 249 q 541 170 457 170 q 665 197 612 170 q 745 275 717 224 q 774 394 774 326 l 831 394 l 831 315 q 812 187 831 247 q 756 82 794 127 q 657 12 718 37 q 513 -14 597 -14 m 837 0 l 810 233 l 810 380 l 553 380 l 553 538 l 975 538 l 975 0 l 837 0 m 526 1103 q 408 1131 460 1103 q 324 1207 355 1159 q 293 1314 293 1255 l 412 1314 q 445 1242 412 1270 q 526 1214 477 1214 q 608 1242 575 1214 q 640 1314 640 1270 l 760 1314 q 729 1207 760 1255 q 646 1131 699 1159 q 526 1103 593 1103 z "},"":{"ha":1051,"x_min":59,"x_max":975,"o":"m 513 -14 q 282 49 385 -14 q 119 229 179 113 q 59 504 59 345 q 121 784 59 667 q 291 963 184 901 q 532 1025 397 1025 q 691 1000 617 1025 q 823 929 766 975 q 918 820 881 883 q 965 682 955 758 l 754 682 q 725 748 744 719 q 677 798 705 777 q 614 830 650 819 q 535 841 578 841 q 396 802 456 841 q 302 687 336 762 q 269 506 269 612 q 302 324 269 399 q 396 209 336 249 q 541 170 457 170 q 665 197 612 170 q 745 275 717 224 q 774 394 774 326 l 831 394 l 831 315 q 812 187 831 247 q 756 82 794 127 q 657 12 718 37 q 513 -14 597 -14 m 837 0 l 810 233 l 810 380 l 553 380 l 553 538 l 975 538 l 975 0 l 837 0 m 527 1107 q 447 1138 480 1107 q 414 1213 414 1168 q 447 1287 414 1257 q 526 1318 480 1318 q 606 1287 574 1318 q 639 1213 639 1257 q 606 1138 639 1168 q 527 1107 574 1107 z "},"":{"ha":1051,"x_min":59,"x_max":975,"o":"m 513 -14 q 282 49 385 -14 q 119 229 179 113 q 59 504 59 345 q 121 784 59 667 q 291 963 184 901 q 532 1025 397 1025 q 691 1000 617 1025 q 823 929 766 975 q 918 820 881 883 q 965 682 955 758 l 754 682 q 725 748 744 719 q 677 798 705 777 q 614 830 650 819 q 535 841 578 841 q 396 802 456 841 q 302 687 336 762 q 269 506 269 612 q 302 324 269 399 q 396 209 336 249 q 541 170 457 170 q 665 197 612 170 q 745 275 717 224 q 774 394 774 326 l 831 394 l 831 315 q 812 187 831 247 q 756 82 794 127 q 657 12 718 37 q 513 -14 597 -14 m 837 0 l 810 233 l 810 380 l 553 380 l 553 538 l 975 538 l 975 0 l 837 0 m 370 -325 l 431 -80 l 619 -80 l 512 -325 l 370 -325 z "},"":{"ha":1051,"x_min":59,"x_max":975,"o":"m 513 -14 q 282 49 385 -14 q 119 229 179 113 q 59 504 59 345 q 121 784 59 667 q 291 963 184 901 q 532 1025 397 1025 q 691 1000 617 1025 q 823 929 766 975 q 918 820 881 883 q 965 682 955 758 l 754 682 q 725 748 744 719 q 677 798 705 777 q 614 830 650 819 q 535 841 578 841 q 396 802 456 841 q 302 687 336 762 q 269 506 269 612 q 302 324 269 399 q 396 209 336 249 q 541 170 457 170 q 665 197 612 170 q 745 275 717 224 q 774 394 774 326 l 831 394 l 831 315 q 812 187 831 247 q 756 82 794 127 q 657 12 718 37 q 513 -14 597 -14 m 837 0 l 810 233 l 810 380 l 553 380 l 553 538 l 975 538 l 975 0 l 837 0 m 431 1316 l 526 1201 l 621 1316 l 794 1316 l 794 1312 l 604 1111 l 448 1111 l 258 1312 l 258 1316 l 431 1316 z "},"":{"ha":1051,"x_min":59,"x_max":975,"o":"m 513 -14 q 282 49 385 -14 q 119 229 179 113 q 59 504 59 345 q 121 784 59 667 q 291 963 184 901 q 532 1025 397 1025 q 691 1000 617 1025 q 823 929 766 975 q 918 820 881 883 q 965 682 955 758 l 754 682 q 725 748 744 719 q 677 798 705 777 q 614 830 650 819 q 535 841 578 841 q 396 802 456 841 q 302 687 336 762 q 269 506 269 612 q 302 324 269 399 q 396 209 336 249 q 541 170 457 170 q 665 197 612 170 q 745 275 717 224 q 774 394 774 326 l 831 394 l 831 315 q 812 187 831 247 q 756 82 794 127 q 657 12 718 37 q 513 -14 597 -14 m 837 0 l 810 233 l 810 380 l 553 380 l 553 538 l 975 538 l 975 0 l 837 0 m 452 1105 l 551 1316 l 741 1316 l 594 1105 l 452 1105 z "},"":{"ha":1051,"x_min":59,"x_max":975,"o":"m 513 -14 q 282 49 385 -14 q 119 229 179 113 q 59 504 59 345 q 121 784 59 667 q 291 963 184 901 q 532 1025 397 1025 q 691 1000 617 1025 q 823 929 766 975 q 918 820 881 883 q 965 682 955 758 l 754 682 q 725 748 744 719 q 677 798 705 777 q 614 830 650 819 q 535 841 578 841 q 396 802 456 841 q 302 687 336 762 q 269 506 269 612 q 302 324 269 399 q 396 209 336 249 q 541 170 457 170 q 665 197 612 170 q 745 275 717 224 q 774 394 774 326 l 831 394 l 831 315 q 812 187 831 247 q 756 82 794 127 q 657 12 718 37 q 513 -14 597 -14 m 837 0 l 810 233 l 810 380 l 553 380 l 553 538 l 975 538 l 975 0 l 837 0 m 723 1275 l 723 1146 l 330 1146 l 330 1275 l 723 1275 z "},"H":{"ha":1028,"x_min":87,"x_max":941,"o":"m 87 0 l 87 1010 l 295 1010 l 295 603 l 733 603 l 733 1010 l 941 1010 l 941 0 l 733 0 l 733 429 l 295 429 l 295 0 l 87 0 z "},"Ḩ":{"ha":1028,"x_min":87,"x_max":941,"o":"m 87 0 l 87 1010 l 295 1010 l 295 603 l 733 603 l 733 1010 l 941 1010 l 941 0 l 733 0 l 733 429 l 295 429 l 295 0 l 87 0 m 104 -283 l 104 -202 l 189 -202 q 235 -192 221 -202 q 249 -161 249 -182 q 235 -130 249 -139 q 189 -120 221 -120 l 128 -120 l 153 30 l 231 30 l 231 0 l 229 -58 q 326 -85 292 -56 q 361 -166 361 -113 q 321 -256 361 -228 q 199 -283 282 -283 l 104 -283 z "},"Ĥ":{"ha":1028,"x_min":87,"x_max":941,"o":"m 87 0 l 87 1010 l 295 1010 l 295 603 l 733 603 l 733 1010 l 941 1010 l 941 0 l 733 0 l 733 429 l 295 429 l 295 0 l 87 0 m 419 1111 l 246 1111 l 246 1115 l 435 1316 l 592 1316 l 782 1115 l 782 1111 l 609 1111 l 514 1226 l 419 1111 z "},"Ȟ":{"ha":1028,"x_min":87,"x_max":941,"o":"m 87 0 l 87 1010 l 295 1010 l 295 603 l 733 603 l 733 1010 l 941 1010 l 941 0 l 733 0 l 733 429 l 295 429 l 295 0 l 87 0 m 419 1316 l 514 1201 l 609 1316 l 782 1316 l 782 1312 l 592 1111 l 435 1111 l 246 1312 l 246 1316 l 419 1316 z "},"Ḣ":{"ha":1028,"x_min":87,"x_max":941,"o":"m 87 0 l 87 1010 l 295 1010 l 295 603 l 733 603 l 733 1010 l 941 1010 l 941 0 l 733 0 l 733 429 l 295 429 l 295 0 l 87 0 m 514 1107 q 434 1138 467 1107 q 401 1213 401 1168 q 434 1287 401 1257 q 513 1318 467 1318 q 593 1287 561 1318 q 626 1213 626 1257 q 593 1138 626 1168 q 514 1107 561 1107 z "},"Ḥ":{"ha":1028,"x_min":87,"x_max":941,"o":"m 87 0 l 87 1010 l 295 1010 l 295 603 l 733 603 l 733 1010 l 941 1010 l 941 0 l 733 0 l 733 429 l 295 429 l 295 0 l 87 0 m 515 -311 q 435 -280 468 -311 q 402 -205 402 -250 q 435 -131 402 -161 q 514 -100 468 -100 q 594 -131 562 -100 q 627 -205 627 -161 q 594 -280 627 -250 q 515 -311 562 -311 z "},"Ḧ":{"ha":1028,"x_min":87,"x_max":941,"o":"m 87 0 l 87 1010 l 295 1010 l 295 603 l 733 603 l 733 1010 l 941 1010 l 941 0 l 733 0 l 733 429 l 295 429 l 295 0 l 87 0 m 665 1112 q 591 1142 621 1112 q 561 1213 561 1171 q 591 1284 561 1255 q 665 1313 621 1313 q 738 1284 708 1313 q 768 1213 768 1255 q 738 1141 768 1171 q 665 1112 708 1112 m 363 1112 q 291 1142 321 1112 q 260 1213 260 1171 q 291 1284 260 1255 q 363 1313 321 1313 q 437 1284 407 1313 q 467 1213 467 1255 q 437 1141 467 1171 q 363 1112 407 1112 z "},"Ḫ":{"ha":1028,"x_min":87,"x_max":941,"o":"m 87 0 l 87 1010 l 295 1010 l 295 603 l 733 603 l 733 1010 l 941 1010 l 941 0 l 733 0 l 733 429 l 295 429 l 295 0 l 87 0 m 515 -314 q 396 -286 449 -314 q 312 -210 343 -258 q 281 -103 281 -162 l 400 -103 q 433 -175 400 -146 q 515 -203 466 -203 q 596 -175 564 -203 q 629 -103 629 -146 l 749 -103 q 718 -210 749 -162 q 634 -286 687 -258 q 515 -314 581 -314 z "},"Ħ":{"ha":1112,"x_min":46,"x_max":1065,"o":"m 1065 831 l 1065 713 l 46 713 l 46 831 l 1065 831 m 130 0 l 130 1010 l 337 1010 l 337 603 l 774 603 l 774 1010 l 982 1010 l 982 0 l 774 0 l 774 429 l 337 429 l 337 0 l 130 0 z "},"Ӈ":{"ha":1028,"x_min":87,"x_max":941,"o":"m 589 -283 l 589 -123 q 621 -126 604 -125 q 654 -127 638 -127 q 716 -113 699 -127 q 733 -66 733 -98 l 733 85 l 941 85 l 941 -77 q 879 -238 941 -184 q 695 -292 817 -292 q 636 -290 664 -292 q 589 -283 609 -288 m 87 0 l 87 1010 l 295 1010 l 295 603 l 733 603 l 733 1010 l 941 1010 l 941 0 l 733 0 l 733 429 l 295 429 l 295 0 l 87 0 z "},"Ң":{"ha":1066,"x_min":87,"x_max":1048,"o":"m 87 0 l 87 1010 l 295 1010 l 295 603 l 733 603 l 733 1010 l 941 1010 l 941 0 l 733 0 l 733 429 l 295 429 l 295 0 l 87 0 m 842 -217 l 842 0 l 783 0 l 783 165 l 1048 165 l 1038 -217 l 842 -217 z "},"Ӊ":{"ha":1028,"x_min":87,"x_max":1069,"o":"m 87 0 l 87 1010 l 295 1010 l 295 603 l 733 603 l 733 1010 l 941 1010 l 941 0 l 733 0 l 733 429 l 295 429 l 295 0 l 87 0 m 763 -217 l 831 0 l 776 0 l 776 161 l 1069 161 l 951 -217 l 763 -217 z "},"Ҥ":{"ha":1387,"x_min":87,"x_max":1340,"o":"m 1340 1010 l 1340 841 l 902 841 l 737 1010 l 1340 1010 m 87 0 l 87 1010 l 295 1010 l 295 603 l 733 603 l 733 1010 l 941 1010 l 941 0 l 733 0 l 733 429 l 295 429 l 295 0 l 87 0 z "},"Ƕ":{"ha":1542,"x_min":87,"x_max":1459,"o":"m 1098 -14 q 905 27 987 -14 q 778 144 823 67 q 733 327 733 220 l 733 421 l 295 421 l 295 0 l 87 0 l 87 1010 l 295 1010 l 295 594 l 733 594 l 733 1010 l 941 1010 l 941 330 q 960 236 941 274 q 1014 179 979 198 q 1098 159 1049 159 q 1182 179 1147 159 q 1235 236 1217 198 q 1253 330 1253 274 l 1253 734 l 1459 734 l 1459 327 q 1415 143 1459 220 q 1289 27 1370 67 q 1098 -14 1207 -14 z "},"Η":{"ha":1028,"x_min":87,"x_max":941,"o":"m 87 0 l 87 1010 l 295 1010 l 295 603 l 733 603 l 733 1010 l 941 1010 l 941 0 l 733 0 l 733 429 l 295 429 l 295 0 l 87 0 z "},"Ή":{"ha":1278,"x_min":46,"x_max":1191,"o":"m 338 0 l 338 1010 l 545 1010 l 545 603 l 983 603 l 983 1010 l 1191 1010 l 1191 0 l 983 0 l 983 429 l 545 429 l 545 0 l 338 0 m 47 799 l 69 1010 l 251 1010 l 168 799 l 47 799 z "},"Ἠ":{"ha":1282,"x_min":46,"x_max":1195,"o":"m 342 0 l 342 1010 l 549 1010 l 549 603 l 987 603 l 987 1010 l 1195 1010 l 1195 0 l 987 0 l 987 429 l 549 429 l 549 0 l 342 0 m 75 798 l 66 798 l 66 854 l 76 854 q 129 865 111 854 q 146 897 146 876 q 130 925 146 916 q 81 935 114 935 l 46 935 l 46 1029 l 75 1029 q 208 998 161 1029 q 254 913 254 968 q 207 828 254 857 q 75 798 161 798 z "},"Ἡ":{"ha":1297,"x_min":46,"x_max":1208,"o":"m 355 0 l 355 1010 l 563 1010 l 563 603 l 1001 603 l 1001 1010 l 1208 1010 l 1208 0 l 1001 0 l 1001 429 l 563 429 l 563 0 l 355 0 m 225 785 q 93 814 139 785 q 46 899 46 844 q 92 985 46 954 q 225 1015 138 1015 l 254 1015 l 254 921 l 219 921 q 170 911 186 921 q 153 883 153 902 q 171 851 153 862 q 224 841 189 841 l 234 841 l 234 785 l 225 785 z "},"Ἢ":{"ha":1531,"x_min":46,"x_max":1443,"o":"m 590 0 l 590 1010 l 798 1010 l 798 603 l 1236 603 l 1236 1010 l 1443 1010 l 1443 0 l 1236 0 l 1236 429 l 798 429 l 798 0 l 590 0 m 75 785 l 66 785 l 66 841 l 76 841 q 129 851 111 841 q 146 883 146 862 q 130 911 146 902 q 81 921 114 921 l 46 921 l 46 1015 l 75 1015 q 208 985 161 1015 q 254 899 254 954 q 207 814 254 844 q 75 785 161 785 m 462 792 l 353 792 l 277 1010 l 441 1010 l 462 792 z "},"Ἣ":{"ha":1556,"x_min":46,"x_max":1469,"o":"m 616 0 l 616 1010 l 823 1010 l 823 603 l 1261 603 l 1261 1010 l 1469 1010 l 1469 0 l 1261 0 l 1261 429 l 823 429 l 823 0 l 616 0 m 225 785 q 93 814 139 785 q 46 899 46 844 q 92 985 46 954 q 225 1015 138 1015 l 254 1015 l 254 921 l 219 921 q 170 911 186 921 q 153 883 153 902 q 171 851 153 862 q 224 841 189 841 l 234 841 l 234 785 l 225 785 m 486 792 l 376 792 l 300 1010 l 465 1010 l 486 792 z "},"Ἤ":{"ha":1539,"x_min":46,"x_max":1451,"o":"m 598 0 l 598 1010 l 806 1010 l 806 603 l 1244 603 l 1244 1010 l 1451 1010 l 1451 0 l 1244 0 l 1244 429 l 806 429 l 806 0 l 598 0 m 75 785 l 66 785 l 66 841 l 76 841 q 129 851 111 841 q 146 883 146 862 q 130 911 146 902 q 81 921 114 921 l 46 921 l 46 1015 l 75 1015 q 208 985 161 1015 q 254 899 254 954 q 207 814 254 844 q 75 785 161 785 m 332 792 l 352 1010 l 516 1010 l 440 792 l 332 792 z "},"Ἥ":{"ha":1558,"x_min":46,"x_max":1470,"o":"m 617 0 l 617 1010 l 825 1010 l 825 603 l 1263 603 l 1263 1010 l 1470 1010 l 1470 0 l 1263 0 l 1263 429 l 825 429 l 825 0 l 617 0 m 225 785 q 93 814 139 785 q 46 899 46 844 q 92 985 46 954 q 225 1015 138 1015 l 254 1015 l 254 921 l 219 921 q 170 911 186 921 q 153 883 153 902 q 171 851 153 862 q 224 841 189 841 l 234 841 l 234 785 l 225 785 m 345 792 l 366 1010 l 530 1010 l 454 792 l 345 792 z "},"Ἦ":{"ha":1415,"x_min":46,"x_max":1327,"o":"m 474 0 l 474 1010 l 682 1010 l 682 603 l 1120 603 l 1120 1010 l 1327 1010 l 1327 0 l 1120 0 l 1120 429 l 682 429 l 682 0 l 474 0 m 203 796 l 195 796 l 195 852 l 204 852 q 258 863 240 852 q 275 895 275 874 q 259 923 275 913 q 210 932 242 932 l 175 932 l 175 1027 l 203 1027 q 336 996 290 1027 q 382 911 382 966 q 336 826 382 855 q 203 796 290 796 m 372 1086 q 315 1096 340 1086 q 270 1119 290 1105 q 233 1141 250 1132 q 200 1151 216 1151 q 168 1134 179 1151 q 156 1090 157 1117 l 46 1090 q 86 1214 48 1170 q 185 1257 123 1257 q 242 1247 218 1257 q 286 1225 267 1238 q 323 1202 306 1212 q 357 1192 340 1192 q 390 1208 380 1192 q 402 1254 400 1223 l 511 1254 q 470 1130 509 1174 q 372 1086 432 1086 z "},"Ἧ":{"ha":1430,"x_min":46,"x_max":1343,"o":"m 490 0 l 490 1010 l 697 1010 l 697 603 l 1135 603 l 1135 1010 l 1343 1010 l 1343 0 l 1135 0 l 1135 429 l 697 429 l 697 0 l 490 0 m 354 782 q 221 811 268 782 q 175 897 175 841 q 221 982 175 951 q 354 1013 267 1013 l 382 1013 l 382 918 l 347 918 q 298 909 315 918 q 281 880 281 899 q 299 849 281 860 q 353 838 317 838 l 362 838 l 362 782 l 354 782 m 372 1072 q 315 1081 340 1072 q 270 1104 290 1091 q 233 1127 250 1118 q 200 1137 216 1137 q 168 1120 179 1137 q 156 1076 157 1103 l 46 1076 q 86 1199 48 1156 q 185 1243 123 1243 q 242 1233 218 1243 q 286 1211 267 1223 q 323 1188 306 1198 q 357 1178 340 1178 q 390 1194 380 1178 q 402 1240 400 1209 l 511 1240 q 470 1116 509 1160 q 372 1072 432 1072 z "},"Ὴ":{"ha":1255,"x_min":-62,"x_max":1167,"o":"m 314 0 l 314 1010 l 522 1010 l 522 603 l 960 603 l 960 1010 l 1167 1010 l 1167 0 l 960 0 l 960 429 l 522 429 l 522 0 l 314 0 m 142 839 l 22 839 l -62 1050 l 120 1050 l 142 839 z "},"Ή":{"ha":1278,"x_min":46,"x_max":1191,"o":"m 338 0 l 338 1010 l 545 1010 l 545 603 l 983 603 l 983 1010 l 1191 1010 l 1191 0 l 983 0 l 983 429 l 545 429 l 545 0 l 338 0 m 47 799 l 69 1010 l 251 1010 l 168 799 l 47 799 z "},"Н":{"ha":1028,"x_min":87,"x_max":941,"o":"m 87 0 l 87 1010 l 295 1010 l 295 603 l 733 603 l 733 1010 l 941 1010 l 941 0 l 733 0 l 733 429 l 295 429 l 295 0 l 87 0 z "},"ᾘ":{"ha":1282,"x_min":46,"x_max":1195,"o":"m 342 0 l 342 1010 l 549 1010 l 549 603 l 987 603 l 987 1010 l 1195 1010 l 1195 0 l 987 0 l 987 429 l 549 429 l 549 0 l 342 0 m 823 -332 q 725 -297 758 -332 q 692 -203 692 -263 l 692 -80 l 843 -80 l 843 -194 q 850 -225 843 -216 q 880 -235 857 -235 q 894 -234 886 -235 q 913 -233 901 -234 l 913 -325 q 869 -330 895 -328 q 823 -332 844 -332 m 75 798 l 66 798 l 66 854 l 76 854 q 129 865 111 854 q 146 897 146 876 q 130 925 146 916 q 81 935 114 935 l 46 935 l 46 1029 l 75 1029 q 208 998 161 1029 q 254 913 254 968 q 207 828 254 857 q 75 798 161 798 z "},"ᾙ":{"ha":1297,"x_min":46,"x_max":1208,"o":"m 355 0 l 355 1010 l 563 1010 l 563 603 l 1001 603 l 1001 1010 l 1208 1010 l 1208 0 l 1001 0 l 1001 429 l 563 429 l 563 0 l 355 0 m 837 -332 q 739 -297 772 -332 q 707 -203 707 -263 l 707 -80 l 857 -80 l 857 -194 q 864 -225 857 -216 q 895 -235 871 -235 q 908 -234 901 -235 q 927 -233 916 -234 l 927 -325 q 883 -330 909 -328 q 837 -332 858 -332 m 225 785 q 93 814 139 785 q 46 899 46 844 q 92 985 46 954 q 225 1015 138 1015 l 254 1015 l 254 921 l 219 921 q 170 911 186 921 q 153 883 153 902 q 171 851 153 862 q 224 841 189 841 l 234 841 l 234 785 l 225 785 z "},"ᾚ":{"ha":1531,"x_min":46,"x_max":1443,"o":"m 590 0 l 590 1010 l 798 1010 l 798 603 l 1236 603 l 1236 1010 l 1443 1010 l 1443 0 l 1236 0 l 1236 429 l 798 429 l 798 0 l 590 0 m 1072 -332 q 974 -297 1006 -332 q 941 -203 941 -263 l 941 -80 l 1092 -80 l 1092 -194 q 1099 -225 1092 -216 q 1129 -235 1106 -235 q 1143 -234 1135 -235 q 1162 -233 1150 -234 l 1162 -325 q 1118 -330 1143 -328 q 1072 -332 1093 -332 m 75 785 l 66 785 l 66 841 l 76 841 q 129 851 111 841 q 146 883 146 862 q 130 911 146 902 q 81 921 114 921 l 46 921 l 46 1015 l 75 1015 q 208 985 161 1015 q 254 899 254 954 q 207 814 254 844 q 75 785 161 785 m 462 792 l 353 792 l 277 1010 l 441 1010 l 462 792 z "},"ᾛ":{"ha":1556,"x_min":46,"x_max":1469,"o":"m 616 0 l 616 1010 l 823 1010 l 823 603 l 1261 603 l 1261 1010 l 1469 1010 l 1469 0 l 1261 0 l 1261 429 l 823 429 l 823 0 l 616 0 m 1097 -332 q 999 -297 1031 -332 q 966 -203 966 -263 l 966 -80 l 1117 -80 l 1117 -194 q 1124 -225 1117 -216 q 1154 -235 1131 -235 q 1168 -234 1160 -235 q 1187 -233 1175 -234 l 1187 -325 q 1143 -330 1168 -328 q 1097 -332 1118 -332 m 225 785 q 93 814 139 785 q 46 899 46 844 q 92 985 46 954 q 225 1015 138 1015 l 254 1015 l 254 921 l 219 921 q 170 911 186 921 q 153 883 153 902 q 171 851 153 862 q 224 841 189 841 l 234 841 l 234 785 l 225 785 m 486 792 l 376 792 l 300 1010 l 465 1010 l 486 792 z "},"ᾜ":{"ha":1539,"x_min":46,"x_max":1451,"o":"m 598 0 l 598 1010 l 806 1010 l 806 603 l 1244 603 l 1244 1010 l 1451 1010 l 1451 0 l 1244 0 l 1244 429 l 806 429 l 806 0 l 598 0 m 1079 -332 q 981 -297 1014 -332 q 949 -203 949 -263 l 949 -80 l 1099 -80 l 1099 -194 q 1106 -225 1099 -216 q 1137 -235 1114 -235 q 1150 -234 1143 -235 q 1169 -233 1158 -234 l 1169 -325 q 1125 -330 1151 -328 q 1079 -332 1100 -332 m 75 785 l 66 785 l 66 841 l 76 841 q 129 851 111 841 q 146 883 146 862 q 130 911 146 902 q 81 921 114 921 l 46 921 l 46 1015 l 75 1015 q 208 985 161 1015 q 254 899 254 954 q 207 814 254 844 q 75 785 161 785 m 332 792 l 352 1010 l 516 1010 l 440 792 l 332 792 z "},"ᾝ":{"ha":1558,"x_min":46,"x_max":1470,"o":"m 617 0 l 617 1010 l 825 1010 l 825 603 l 1263 603 l 1263 1010 l 1470 1010 l 1470 0 l 1263 0 l 1263 429 l 825 429 l 825 0 l 617 0 m 1099 -332 q 1001 -297 1034 -332 q 968 -203 968 -263 l 968 -80 l 1119 -80 l 1119 -194 q 1126 -225 1119 -216 q 1156 -235 1133 -235 q 1170 -234 1162 -235 q 1189 -233 1177 -234 l 1189 -325 q 1145 -330 1171 -328 q 1099 -332 1120 -332 m 225 785 q 93 814 139 785 q 46 899 46 844 q 92 985 46 954 q 225 1015 138 1015 l 254 1015 l 254 921 l 219 921 q 170 911 186 921 q 153 883 153 902 q 171 851 153 862 q 224 841 189 841 l 234 841 l 234 785 l 225 785 m 345 792 l 366 1010 l 530 1010 l 454 792 l 345 792 z "},"ᾞ":{"ha":1415,"x_min":46,"x_max":1327,"o":"m 474 0 l 474 1010 l 682 1010 l 682 603 l 1120 603 l 1120 1010 l 1327 1010 l 1327 0 l 1120 0 l 1120 429 l 682 429 l 682 0 l 474 0 m 955 -332 q 857 -297 890 -332 q 825 -203 825 -263 l 825 -80 l 975 -80 l 975 -194 q 982 -225 975 -216 q 1013 -235 989 -235 q 1026 -234 1019 -235 q 1045 -233 1034 -234 l 1045 -325 q 1001 -330 1027 -328 q 955 -332 976 -332 m 203 796 l 195 796 l 195 852 l 204 852 q 258 863 240 852 q 275 895 275 874 q 259 923 275 913 q 210 932 242 932 l 175 932 l 175 1027 l 203 1027 q 336 996 290 1027 q 382 911 382 966 q 336 826 382 855 q 203 796 290 796 m 372 1086 q 315 1096 340 1086 q 270 1119 290 1105 q 233 1141 250 1132 q 200 1151 216 1151 q 168 1134 179 1151 q 156 1090 157 1117 l 46 1090 q 86 1214 48 1170 q 185 1257 123 1257 q 242 1247 218 1257 q 286 1225 267 1238 q 323 1202 306 1212 q 357 1192 340 1192 q 390 1208 380 1192 q 402 1254 400 1223 l 511 1254 q 470 1130 509 1174 q 372 1086 432 1086 z "},"ᾟ":{"ha":1430,"x_min":46,"x_max":1343,"o":"m 490 0 l 490 1010 l 697 1010 l 697 603 l 1135 603 l 1135 1010 l 1343 1010 l 1343 0 l 1135 0 l 1135 429 l 697 429 l 697 0 l 490 0 m 970 -332 q 873 -297 905 -332 q 840 -203 840 -263 l 840 -80 l 991 -80 l 991 -194 q 998 -225 991 -216 q 1028 -235 1005 -235 q 1042 -234 1034 -235 q 1061 -233 1049 -234 l 1061 -325 q 1017 -330 1042 -328 q 970 -332 991 -332 m 354 782 q 221 811 268 782 q 175 897 175 841 q 221 982 175 951 q 354 1013 267 1013 l 382 1013 l 382 918 l 347 918 q 298 909 315 918 q 281 880 281 899 q 299 849 281 860 q 353 838 317 838 l 362 838 l 362 782 l 354 782 m 372 1072 q 315 1081 340 1072 q 270 1104 290 1091 q 233 1127 250 1118 q 200 1137 216 1137 q 168 1120 179 1137 q 156 1076 157 1103 l 46 1076 q 86 1199 48 1156 q 185 1243 123 1243 q 242 1233 218 1243 q 286 1211 267 1223 q 323 1188 306 1198 q 357 1178 340 1178 q 390 1194 380 1178 q 402 1240 400 1209 l 511 1240 q 470 1116 509 1160 q 372 1072 432 1072 z "},"ῌ":{"ha":1028,"x_min":87,"x_max":941,"o":"m 87 0 l 87 1010 l 295 1010 l 295 603 l 733 603 l 733 1010 l 941 1010 l 941 0 l 733 0 l 733 429 l 295 429 l 295 0 l 87 0 m 568 -332 q 471 -297 503 -332 q 438 -203 438 -263 l 438 -80 l 589 -80 l 589 -194 q 596 -225 589 -216 q 626 -235 603 -235 q 640 -234 632 -235 q 659 -233 647 -234 l 659 -325 q 615 -330 640 -328 q 568 -332 589 -332 z "},"I":{"ha":383,"x_min":87,"x_max":295,"o":"m 295 1010 l 295 0 l 87 0 l 87 1010 l 295 1010 z "},"":{"ha":766,"x_min":87,"x_max":678,"o":"m 295 1010 l 295 0 l 87 0 l 87 1010 l 295 1010 m 678 1010 l 678 0 l 471 0 l 471 1010 l 678 1010 z "},"Ï":{"ha":383,"x_min":-62,"x_max":446,"o":"m 295 1010 l 295 0 l 87 0 l 87 1010 l 295 1010 m 342 1112 q 269 1142 299 1112 q 239 1213 239 1171 q 269 1284 239 1255 q 342 1313 299 1313 q 416 1284 386 1313 q 446 1213 446 1255 q 416 1141 446 1171 q 342 1112 386 1112 m 41 1112 q -32 1142 -1 1112 q -62 1213 -62 1171 q -32 1284 -62 1255 q 41 1313 -1 1313 q 115 1284 85 1313 q 144 1213 144 1255 q 115 1141 144 1171 q 41 1112 85 1112 z "},"Ḯ":{"ha":383,"x_min":-62,"x_max":445,"o":"m 295 1010 l 295 0 l 87 0 l 87 1010 l 295 1010 m 342 1095 q 268 1124 298 1095 q 238 1196 238 1154 q 268 1267 238 1238 q 342 1296 298 1296 q 415 1267 385 1296 q 445 1196 445 1238 q 415 1124 445 1154 q 342 1095 385 1095 m 41 1095 q -32 1124 -2 1095 q -62 1196 -62 1154 q -32 1267 -62 1238 q 41 1296 -2 1296 q 114 1267 84 1296 q 144 1196 144 1238 q 114 1124 144 1154 q 41 1095 84 1095 m 127 1350 l 216 1534 l 385 1534 l 252 1350 l 127 1350 z "},"Ɨ":{"ha":500,"x_min":9,"x_max":490,"o":"m 353 1010 l 353 0 l 146 0 l 146 1010 l 353 1010 m 9 485 l 9 572 l 490 572 l 490 485 l 9 485 z "},"Ḭ":{"ha":383,"x_min":-43,"x_max":428,"o":"m 295 1010 l 295 0 l 87 0 l 87 1010 l 295 1010 m 288 -295 q 230 -284 255 -295 q 184 -260 204 -274 q 146 -236 163 -246 q 113 -225 129 -225 q 81 -243 92 -225 q 68 -291 70 -262 l -43 -291 q -3 -158 -41 -205 q 98 -112 35 -112 q 156 -122 131 -112 q 200 -146 180 -133 q 237 -171 220 -160 q 272 -181 254 -181 q 306 -164 295 -181 q 318 -115 316 -148 l 428 -115 q 387 -248 426 -201 q 288 -295 348 -295 z "},"Ì":{"ha":383,"x_min":-23,"x_max":295,"o":"m 295 1010 l 295 0 l 87 0 l 87 1010 l 295 1010 m 124 1105 l -23 1316 l 167 1316 l 267 1105 l 124 1105 z "},"Í":{"ha":383,"x_min":87,"x_max":407,"o":"m 295 1010 l 295 0 l 87 0 l 87 1010 l 295 1010 m 117 1105 l 216 1316 l 406 1316 l 259 1105 l 117 1105 z "},"Î":{"ha":383,"x_min":-75,"x_max":460,"o":"m 295 1010 l 295 0 l 87 0 l 87 1010 l 295 1010 m 97 1111 l -76 1111 l -76 1115 l 113 1316 l 270 1316 l 460 1115 l 460 1111 l 287 1111 l 192 1226 l 97 1111 z "},"Ĩ":{"ha":383,"x_min":-43,"x_max":428,"o":"m 295 1010 l 295 0 l 87 0 l 87 1010 l 295 1010 m 288 1122 q 230 1132 255 1122 q 184 1157 204 1143 q 146 1181 163 1171 q 113 1192 129 1192 q 81 1173 92 1192 q 68 1126 70 1155 l -43 1126 q -3 1258 -41 1212 q 98 1305 35 1305 q 156 1294 131 1305 q 200 1270 180 1284 q 237 1246 220 1257 q 272 1236 254 1236 q 306 1252 295 1236 q 318 1301 316 1269 l 428 1301 q 387 1169 426 1216 q 288 1122 348 1122 z "},"Ī":{"ha":383,"x_min":-4,"x_max":389,"o":"m 295 1010 l 295 0 l 87 0 l 87 1010 l 295 1010 m 389 1275 l 389 1146 l -4 1146 l -4 1275 l 389 1275 z "},"Ĭ":{"ha":383,"x_min":-41,"x_max":426,"o":"m 295 1010 l 295 0 l 87 0 l 87 1010 l 295 1010 m 192 1103 q 73 1131 126 1103 q -11 1207 20 1159 q -41 1314 -41 1255 l 77 1314 q 110 1242 77 1270 q 192 1214 143 1214 q 273 1242 241 1214 q 306 1314 306 1270 l 426 1314 q 395 1207 426 1255 q 311 1131 364 1159 q 192 1103 258 1103 z "},"Į":{"ha":383,"x_min":7,"x_max":322,"o":"m 295 1010 l 295 0 l 87 0 l 87 1010 l 295 1010 m 187 -290 q 57 -253 106 -290 q 7 -148 7 -216 q 33 -58 7 -100 q 106 18 59 -16 l 295 0 q 215 -55 241 -28 q 188 -116 188 -83 q 200 -152 188 -139 q 238 -165 213 -165 q 264 -161 252 -165 q 288 -153 277 -157 l 322 -263 q 261 -282 297 -275 q 187 -290 225 -290 z "},"İ":{"ha":383,"x_min":80,"x_max":304,"o":"m 295 1010 l 295 0 l 87 0 l 87 1010 l 295 1010 m 193 1107 q 113 1138 146 1107 q 80 1213 80 1168 q 113 1287 80 1257 q 192 1318 146 1318 q 272 1287 239 1318 q 304 1213 304 1257 q 272 1138 304 1168 q 193 1107 239 1107 z "},"Ǐ":{"ha":383,"x_min":-75,"x_max":460,"o":"m 295 1010 l 295 0 l 87 0 l 87 1010 l 295 1010 m 97 1316 l 192 1201 l 287 1316 l 460 1316 l 460 1312 l 270 1111 l 113 1111 l -76 1312 l -76 1316 l 97 1316 z "},"Ȉ":{"ha":383,"x_min":-161,"x_max":385,"o":"m 295 1010 l 295 0 l 87 0 l 87 1010 l 295 1010 m 243 1105 l 127 1316 l 309 1316 l 385 1105 l 243 1105 m 5 1105 l -161 1316 l 33 1316 l 151 1105 l 5 1105 z "},"Ȋ":{"ha":383,"x_min":-45,"x_max":429,"o":"m 295 1010 l 295 0 l 87 0 l 87 1010 l 295 1010 m 192 1325 q 314 1297 260 1325 q 398 1220 367 1268 q 429 1111 429 1171 l 309 1111 q 275 1184 309 1156 q 192 1213 241 1213 q 108 1184 142 1213 q 74 1111 74 1156 l -45 1111 q -14 1220 -45 1171 q 71 1297 17 1268 q 192 1325 124 1325 z "},"Ỉ":{"ha":383,"x_min":62,"x_max":317,"o":"m 295 1010 l 295 0 l 87 0 l 87 1010 l 295 1010 m 248 1105 l 125 1105 l 178 1196 q 179 1207 182 1204 q 169 1211 177 1211 l 62 1211 l 62 1316 l 170 1316 q 260 1301 227 1316 q 304 1263 292 1286 q 311 1211 317 1239 q 285 1155 305 1182 l 248 1105 z "},"Ị":{"ha":383,"x_min":79,"x_max":304,"o":"m 295 1010 l 295 0 l 87 0 l 87 1010 l 295 1010 m 192 -311 q 112 -280 145 -311 q 79 -205 79 -250 q 112 -131 79 -161 q 191 -100 145 -100 q 271 -131 239 -100 q 304 -205 304 -161 q 271 -280 304 -250 q 192 -311 239 -311 z "},"Ɩ":{"ha":418,"x_min":83,"x_max":406,"o":"m 310 -3 q 138 45 193 -3 q 83 196 83 94 l 83 1010 l 286 1010 l 286 222 q 298 171 286 186 q 342 155 311 155 q 366 156 357 155 q 381 159 374 157 l 406 9 q 366 1 391 5 q 310 -3 340 -3 z "},"Ι":{"ha":383,"x_min":87,"x_max":295,"o":"m 295 1010 l 295 0 l 87 0 l 87 1010 l 295 1010 z "},"Ί":{"ha":633,"x_min":46,"x_max":545,"o":"m 545 1010 l 545 0 l 338 0 l 338 1010 l 545 1010 m 47 799 l 69 1010 l 251 1010 l 168 799 l 47 799 z "},"Ϊ":{"ha":383,"x_min":-62,"x_max":446,"o":"m 295 1010 l 295 0 l 87 0 l 87 1010 l 295 1010 m 342 1112 q 269 1142 299 1112 q 239 1213 239 1171 q 269 1284 239 1255 q 342 1313 299 1313 q 416 1284 386 1313 q 446 1213 446 1255 q 416 1141 446 1171 q 342 1112 386 1112 m 41 1112 q -32 1142 -1 1112 q -62 1213 -62 1171 q -32 1284 -62 1255 q 41 1313 -1 1313 q 115 1284 85 1313 q 144 1213 144 1255 q 115 1141 144 1171 q 41 1112 85 1112 z "},"Ἰ":{"ha":637,"x_min":46,"x_max":549,"o":"m 549 1010 l 549 0 l 342 0 l 342 1010 l 549 1010 m 75 798 l 66 798 l 66 854 l 76 854 q 129 865 111 854 q 146 897 146 876 q 130 925 146 916 q 81 935 114 935 l 46 935 l 46 1029 l 75 1029 q 208 998 161 1029 q 254 913 254 968 q 207 828 254 857 q 75 798 161 798 z "},"Ἱ":{"ha":651,"x_min":46,"x_max":564,"o":"m 563 1010 l 563 0 l 355 0 l 355 1010 l 563 1010 m 225 785 q 93 814 139 785 q 46 899 46 844 q 92 985 46 954 q 225 1015 138 1015 l 254 1015 l 254 921 l 219 921 q 170 911 186 921 q 153 883 153 902 q 171 851 153 862 q 224 841 189 841 l 234 841 l 234 785 l 225 785 z "},"Ἲ":{"ha":886,"x_min":46,"x_max":798,"o":"m 798 1010 l 798 0 l 590 0 l 590 1010 l 798 1010 m 75 785 l 66 785 l 66 841 l 76 841 q 129 851 111 841 q 146 883 146 862 q 130 911 146 902 q 81 921 114 921 l 46 921 l 46 1015 l 75 1015 q 208 985 161 1015 q 254 899 254 954 q 207 814 254 844 q 75 785 161 785 m 462 792 l 353 792 l 277 1010 l 441 1010 l 462 792 z "},"Ἳ":{"ha":911,"x_min":46,"x_max":823,"o":"m 823 1010 l 823 0 l 616 0 l 616 1010 l 823 1010 m 225 785 q 93 814 139 785 q 46 899 46 844 q 92 985 46 954 q 225 1015 138 1015 l 254 1015 l 254 921 l 219 921 q 170 911 186 921 q 153 883 153 902 q 171 851 153 862 q 224 841 189 841 l 234 841 l 234 785 l 225 785 m 486 792 l 376 792 l 300 1010 l 465 1010 l 486 792 z "},"Ἴ":{"ha":894,"x_min":46,"x_max":806,"o":"m 806 1010 l 806 0 l 598 0 l 598 1010 l 806 1010 m 75 785 l 66 785 l 66 841 l 76 841 q 129 851 111 841 q 146 883 146 862 q 130 911 146 902 q 81 921 114 921 l 46 921 l 46 1015 l 75 1015 q 208 985 161 1015 q 254 899 254 954 q 207 814 254 844 q 75 785 161 785 m 332 792 l 352 1010 l 516 1010 l 440 792 l 332 792 z "},"Ἵ":{"ha":913,"x_min":46,"x_max":825,"o":"m 825 1010 l 825 0 l 617 0 l 617 1010 l 825 1010 m 225 785 q 93 814 139 785 q 46 899 46 844 q 92 985 46 954 q 225 1015 138 1015 l 254 1015 l 254 921 l 219 921 q 170 911 186 921 q 153 883 153 902 q 171 851 153 862 q 224 841 189 841 l 234 841 l 234 785 l 225 785 m 345 792 l 366 1010 l 530 1010 l 454 792 l 345 792 z "},"Ἶ":{"ha":770,"x_min":46,"x_max":682,"o":"m 682 1010 l 682 0 l 474 0 l 474 1010 l 682 1010 m 203 796 l 195 796 l 195 852 l 204 852 q 258 863 240 852 q 275 895 275 874 q 259 923 275 913 q 210 932 242 932 l 175 932 l 175 1027 l 203 1027 q 336 996 290 1027 q 382 911 382 966 q 336 826 382 855 q 203 796 290 796 m 372 1086 q 315 1096 340 1086 q 270 1119 290 1105 q 233 1141 250 1132 q 200 1151 216 1151 q 168 1134 179 1151 q 156 1090 157 1117 l 46 1090 q 86 1214 48 1170 q 185 1257 123 1257 q 242 1247 218 1257 q 286 1225 267 1238 q 323 1202 306 1212 q 357 1192 340 1192 q 390 1208 380 1192 q 402 1254 400 1223 l 511 1254 q 470 1130 509 1174 q 372 1086 432 1086 z "},"Ἷ":{"ha":785,"x_min":46,"x_max":697,"o":"m 697 1010 l 697 0 l 490 0 l 490 1010 l 697 1010 m 354 782 q 221 811 268 782 q 175 897 175 841 q 221 982 175 951 q 354 1013 267 1013 l 382 1013 l 382 918 l 347 918 q 298 909 315 918 q 281 880 281 899 q 299 849 281 860 q 353 838 317 838 l 362 838 l 362 782 l 354 782 m 372 1072 q 315 1081 340 1072 q 270 1104 290 1091 q 233 1127 250 1118 q 200 1137 216 1137 q 168 1120 179 1137 q 156 1076 157 1103 l 46 1076 q 86 1199 48 1156 q 185 1243 123 1243 q 242 1233 218 1243 q 286 1211 267 1223 q 323 1188 306 1198 q 357 1178 340 1178 q 390 1194 380 1178 q 402 1240 400 1209 l 511 1240 q 470 1116 509 1160 q 372 1072 432 1072 z "},"Ῐ":{"ha":383,"x_min":-41,"x_max":426,"o":"m 295 1010 l 295 0 l 87 0 l 87 1010 l 295 1010 m 192 1103 q 73 1131 126 1103 q -11 1207 20 1159 q -41 1314 -41 1255 l 77 1314 q 110 1242 77 1270 q 192 1214 143 1214 q 273 1242 241 1214 q 306 1314 306 1270 l 426 1314 q 395 1207 426 1255 q 311 1131 364 1159 q 192 1103 258 1103 z "},"Ῑ":{"ha":383,"x_min":-4,"x_max":389,"o":"m 295 1010 l 295 0 l 87 0 l 87 1010 l 295 1010 m 389 1275 l 389 1146 l -4 1146 l -4 1275 l 389 1275 z "},"Ὶ":{"ha":610,"x_min":-62,"x_max":522,"o":"m 522 1010 l 522 0 l 314 0 l 314 1010 l 522 1010 m 142 839 l 22 839 l -62 1050 l 120 1050 l 142 839 z "},"Ί":{"ha":633,"x_min":46,"x_max":545,"o":"m 545 1010 l 545 0 l 338 0 l 338 1010 l 545 1010 m 47 799 l 69 1010 l 251 1010 l 168 799 l 47 799 z "},"І":{"ha":383,"x_min":87,"x_max":295,"o":"m 295 1010 l 295 0 l 87 0 l 87 1010 l 295 1010 z "},"Ї":{"ha":383,"x_min":-62,"x_max":446,"o":"m 295 1010 l 295 0 l 87 0 l 87 1010 l 295 1010 m 342 1112 q 269 1142 299 1112 q 239 1213 239 1171 q 269 1284 239 1255 q 342 1313 299 1313 q 416 1284 386 1313 q 446 1213 446 1255 q 416 1141 446 1171 q 342 1112 386 1112 m 41 1112 q -32 1142 -1 1112 q -62 1213 -62 1171 q -32 1284 -62 1255 q 41 1313 -1 1313 q 115 1284 85 1313 q 144 1213 144 1255 q 115 1141 144 1171 q 41 1112 85 1112 z "},"":{"ha":635,"x_min":48,"x_max":587,"o":"m 48 0 l 48 171 l 214 171 l 214 840 l 48 840 l 48 1010 l 587 1010 l 587 840 l 422 840 l 422 171 l 587 171 l 587 0 l 48 0 z "},"":{"ha":635,"x_min":48,"x_max":587,"o":"m 48 0 l 48 171 l 214 171 l 214 840 l 48 840 l 48 1010 l 587 1010 l 587 840 l 422 840 l 422 171 l 587 171 l 587 0 l 48 0 m 469 1112 q 395 1142 425 1112 q 365 1213 365 1171 q 395 1284 365 1255 q 469 1313 425 1313 q 542 1284 512 1313 q 572 1213 572 1255 q 542 1141 572 1171 q 469 1112 512 1112 m 168 1112 q 95 1142 125 1112 q 64 1213 64 1171 q 95 1284 64 1255 q 168 1313 125 1313 q 241 1284 211 1313 q 271 1213 271 1255 q 241 1141 271 1171 q 168 1112 211 1112 z "},"":{"ha":635,"x_min":48,"x_max":587,"o":"m 48 0 l 48 171 l 214 171 l 214 840 l 48 840 l 48 1010 l 587 1010 l 587 840 l 422 840 l 422 171 l 587 171 l 587 0 l 48 0 m 468 1095 q 394 1124 425 1095 q 364 1196 364 1154 q 394 1267 364 1238 q 468 1296 425 1296 q 541 1267 511 1296 q 571 1196 571 1238 q 541 1124 571 1154 q 468 1095 511 1095 m 167 1095 q 94 1124 124 1095 q 64 1196 64 1154 q 94 1267 64 1238 q 167 1296 124 1296 q 240 1267 210 1296 q 270 1196 270 1238 q 240 1124 270 1154 q 167 1095 210 1095 m 253 1350 l 342 1534 l 511 1534 l 378 1350 l 253 1350 z "},"":{"ha":635,"x_min":48,"x_max":587,"o":"m 48 0 l 48 171 l 214 171 l 214 840 l 48 840 l 48 1010 l 587 1010 l 587 840 l 422 840 l 422 171 l 587 171 l 587 0 l 48 0 m 77 485 l 77 572 l 557 572 l 557 485 l 77 485 z "},"":{"ha":635,"x_min":48,"x_max":587,"o":"m 48 0 l 48 171 l 214 171 l 214 840 l 48 840 l 48 1010 l 587 1010 l 587 840 l 422 840 l 422 171 l 587 171 l 587 0 l 48 0 m 414 -295 q 356 -284 382 -295 q 311 -260 331 -274 q 273 -236 290 -246 q 239 -225 256 -225 q 208 -243 218 -225 q 195 -291 197 -262 l 83 -291 q 124 -158 85 -205 q 224 -112 162 -112 q 282 -122 258 -112 q 327 -146 307 -133 q 364 -171 347 -160 q 399 -181 381 -181 q 432 -164 422 -181 q 445 -115 443 -148 l 555 -115 q 514 -248 553 -201 q 414 -295 475 -295 z "},"":{"ha":635,"x_min":48,"x_max":587,"o":"m 48 0 l 48 171 l 214 171 l 214 840 l 48 840 l 48 1010 l 587 1010 l 587 840 l 422 840 l 422 171 l 587 171 l 587 0 l 48 0 m 250 1105 l 103 1316 l 293 1316 l 393 1105 l 250 1105 z "},"":{"ha":635,"x_min":48,"x_max":587,"o":"m 48 0 l 48 171 l 214 171 l 214 840 l 48 840 l 48 1010 l 587 1010 l 587 840 l 422 840 l 422 171 l 587 171 l 587 0 l 48 0 m 243 1105 l 342 1316 l 532 1316 l 385 1105 l 243 1105 z "},"":{"ha":635,"x_min":48,"x_max":587,"o":"m 48 0 l 48 171 l 214 171 l 214 840 l 48 840 l 48 1010 l 587 1010 l 587 840 l 422 840 l 422 171 l 587 171 l 587 0 l 48 0 m 223 1111 l 50 1111 l 50 1115 l 239 1316 l 396 1316 l 586 1115 l 586 1111 l 413 1111 l 318 1226 l 223 1111 z "},"":{"ha":635,"x_min":48,"x_max":587,"o":"m 48 0 l 48 171 l 214 171 l 214 840 l 48 840 l 48 1010 l 587 1010 l 587 840 l 422 840 l 422 171 l 587 171 l 587 0 l 48 0 m 413 1122 q 355 1132 380 1122 q 309 1157 330 1143 q 272 1181 289 1171 q 238 1192 254 1192 q 206 1173 217 1192 q 194 1126 195 1155 l 82 1126 q 122 1258 84 1212 q 223 1305 161 1305 q 281 1294 256 1305 q 326 1270 306 1284 q 363 1246 346 1257 q 397 1236 380 1236 q 431 1252 420 1236 q 444 1301 441 1269 l 553 1301 q 512 1169 551 1216 q 413 1122 473 1122 z "},"":{"ha":635,"x_min":48,"x_max":587,"o":"m 48 0 l 48 171 l 214 171 l 214 840 l 48 840 l 48 1010 l 587 1010 l 587 840 l 422 840 l 422 171 l 587 171 l 587 0 l 48 0 m 515 1275 l 515 1146 l 122 1146 l 122 1275 l 515 1275 z "},"":{"ha":635,"x_min":48,"x_max":587,"o":"m 48 0 l 48 171 l 214 171 l 214 840 l 48 840 l 48 1010 l 587 1010 l 587 840 l 422 840 l 422 171 l 587 171 l 587 0 l 48 0 m 318 1103 q 199 1131 252 1103 q 116 1207 146 1159 q 85 1314 85 1255 l 203 1314 q 236 1242 203 1270 q 318 1214 269 1214 q 399 1242 367 1214 q 432 1314 432 1270 l 552 1314 q 521 1207 552 1255 q 437 1131 490 1159 q 318 1103 385 1103 z "},"":{"ha":635,"x_min":48,"x_max":614,"o":"m 48 0 l 48 171 l 214 171 l 214 840 l 48 840 l 48 1010 l 587 1010 l 587 840 l 422 840 l 422 171 l 587 171 l 587 0 l 48 0 m 479 -290 q 348 -253 398 -290 q 298 -148 298 -216 q 325 -58 298 -100 q 397 18 351 -16 l 587 0 q 506 -55 533 -28 q 479 -116 479 -83 q 492 -152 479 -139 q 530 -165 505 -165 q 556 -161 543 -165 q 579 -153 568 -157 l 614 -263 q 553 -282 589 -275 q 479 -290 517 -290 z "},"":{"ha":635,"x_min":48,"x_max":587,"o":"m 48 0 l 48 171 l 214 171 l 214 840 l 48 840 l 48 1010 l 587 1010 l 587 840 l 422 840 l 422 171 l 587 171 l 587 0 l 48 0 m 318 1107 q 238 1138 271 1107 q 205 1213 205 1168 q 238 1287 205 1257 q 317 1318 271 1318 q 397 1287 365 1318 q 430 1213 430 1257 q 397 1138 430 1168 q 318 1107 365 1107 z "},"":{"ha":635,"x_min":48,"x_max":587,"o":"m 48 0 l 48 171 l 214 171 l 214 840 l 48 840 l 48 1010 l 587 1010 l 587 840 l 422 840 l 422 171 l 587 171 l 587 0 l 48 0 m 223 1316 l 318 1201 l 413 1316 l 586 1316 l 586 1312 l 396 1111 l 239 1111 l 50 1312 l 50 1316 l 223 1316 z "},"":{"ha":635,"x_min":-36,"x_max":587,"o":"m 48 0 l 48 171 l 214 171 l 214 840 l 48 840 l 48 1010 l 587 1010 l 587 840 l 422 840 l 422 171 l 587 171 l 587 0 l 48 0 m 368 1105 l 252 1316 l 434 1316 l 510 1105 l 368 1105 m 131 1105 l -36 1316 l 158 1316 l 277 1105 l 131 1105 z "},"":{"ha":635,"x_min":48,"x_max":587,"o":"m 48 0 l 48 171 l 214 171 l 214 840 l 48 840 l 48 1010 l 587 1010 l 587 840 l 422 840 l 422 171 l 587 171 l 587 0 l 48 0 m 318 1325 q 440 1297 387 1325 q 524 1220 493 1268 q 555 1111 555 1171 l 435 1111 q 401 1184 435 1156 q 318 1213 367 1213 q 234 1184 269 1213 q 200 1111 200 1156 l 81 1111 q 112 1220 81 1171 q 197 1297 143 1268 q 318 1325 250 1325 z "},"":{"ha":635,"x_min":48,"x_max":587,"o":"m 48 0 l 48 171 l 214 171 l 214 840 l 48 840 l 48 1010 l 587 1010 l 587 840 l 422 840 l 422 171 l 587 171 l 587 0 l 48 0 m 374 1105 l 252 1105 l 304 1196 q 306 1207 308 1204 q 295 1211 303 1211 l 188 1211 l 188 1316 l 296 1316 q 386 1301 353 1316 q 431 1263 418 1286 q 437 1211 443 1239 q 411 1155 431 1182 l 374 1105 z "},"":{"ha":635,"x_min":48,"x_max":587,"o":"m 48 0 l 48 171 l 214 171 l 214 840 l 48 840 l 48 1010 l 587 1010 l 587 840 l 422 840 l 422 171 l 587 171 l 587 0 l 48 0 m 319 -311 q 239 -280 272 -311 q 206 -205 206 -250 q 239 -131 206 -161 q 318 -100 272 -100 q 398 -131 366 -100 q 431 -205 431 -161 q 398 -280 431 -250 q 319 -311 366 -311 z "},"":{"ha":924,"x_min":46,"x_max":876,"o":"m 336 0 l 336 171 l 503 171 l 503 840 l 336 840 l 336 1010 l 876 1010 l 876 840 l 710 840 l 710 171 l 876 171 l 876 0 l 336 0 m 75 798 l 66 798 l 66 854 l 76 854 q 129 865 111 854 q 146 897 146 876 q 130 925 146 916 q 81 935 114 935 l 46 935 l 46 1029 l 75 1029 q 208 998 161 1029 q 254 913 254 968 q 207 828 254 857 q 75 798 161 798 z "},"":{"ha":938,"x_min":46,"x_max":890,"o":"m 351 0 l 351 171 l 517 171 l 517 840 l 351 840 l 351 1010 l 890 1010 l 890 840 l 724 840 l 724 171 l 890 171 l 890 0 l 351 0 m 225 785 q 93 814 139 785 q 46 899 46 844 q 92 985 46 954 q 225 1015 138 1015 l 254 1015 l 254 921 l 219 921 q 170 911 186 921 q 153 883 153 902 q 171 851 153 862 q 224 841 189 841 l 234 841 l 234 785 l 225 785 z "},"":{"ha":1186,"x_min":46,"x_max":1124,"o":"m 585 0 l 585 171 l 751 171 l 751 840 l 585 840 l 585 1010 l 1124 1010 l 1124 840 l 959 840 l 959 171 l 1124 171 l 1124 0 l 585 0 m 75 785 l 66 785 l 66 841 l 76 841 q 129 851 111 841 q 146 883 146 862 q 130 911 146 902 q 81 921 114 921 l 46 921 l 46 1015 l 75 1015 q 208 985 161 1015 q 254 899 254 954 q 207 814 254 844 q 75 785 161 785 m 462 792 l 353 792 l 277 1010 l 441 1010 l 462 792 z "},"":{"ha":1198,"x_min":46,"x_max":1149,"o":"m 611 0 l 611 171 l 777 171 l 777 840 l 611 840 l 611 1010 l 1150 1010 l 1150 840 l 985 840 l 985 171 l 1150 171 l 1150 0 l 611 0 m 225 785 q 93 814 139 785 q 46 899 46 844 q 92 985 46 954 q 225 1015 138 1015 l 254 1015 l 254 921 l 219 921 q 170 911 186 921 q 153 883 153 902 q 171 851 153 862 q 224 841 189 841 l 234 841 l 234 785 l 225 785 m 486 792 l 376 792 l 300 1010 l 465 1010 l 486 792 z "},"":{"ha":1181,"x_min":46,"x_max":1132,"o":"m 593 0 l 593 171 l 759 171 l 759 840 l 593 840 l 593 1010 l 1132 1010 l 1132 840 l 966 840 l 966 171 l 1132 171 l 1132 0 l 593 0 m 75 785 l 66 785 l 66 841 l 76 841 q 129 851 111 841 q 146 883 146 862 q 130 911 146 902 q 81 921 114 921 l 46 921 l 46 1015 l 75 1015 q 208 985 161 1015 q 254 899 254 954 q 207 814 254 844 q 75 785 161 785 m 332 792 l 352 1010 l 516 1010 l 440 792 l 332 792 z "},"":{"ha":1200,"x_min":46,"x_max":1152,"o":"m 612 0 l 612 171 l 779 171 l 779 840 l 612 840 l 612 1010 l 1152 1010 l 1152 840 l 986 840 l 986 171 l 1152 171 l 1152 0 l 612 0 m 225 785 q 93 814 139 785 q 46 899 46 844 q 92 985 46 954 q 225 1015 138 1015 l 254 1015 l 254 921 l 219 921 q 170 911 186 921 q 153 883 153 902 q 171 851 153 862 q 224 841 189 841 l 234 841 l 234 785 l 225 785 m 345 792 l 366 1010 l 530 1010 l 454 792 l 345 792 z "},"":{"ha":1057,"x_min":46,"x_max":1008,"o":"m 469 0 l 469 171 l 635 171 l 635 840 l 469 840 l 469 1010 l 1008 1010 l 1008 840 l 842 840 l 842 171 l 1008 171 l 1008 0 l 469 0 m 203 796 l 195 796 l 195 852 l 204 852 q 258 863 240 852 q 275 895 275 874 q 259 923 275 913 q 210 932 242 932 l 175 932 l 175 1027 l 203 1027 q 336 996 290 1027 q 382 911 382 966 q 336 826 382 855 q 203 796 290 796 m 372 1086 q 315 1096 340 1086 q 270 1119 290 1105 q 233 1141 250 1132 q 200 1151 216 1151 q 168 1134 179 1151 q 156 1090 157 1117 l 46 1090 q 86 1214 48 1170 q 185 1257 123 1257 q 242 1247 218 1257 q 286 1225 267 1238 q 323 1202 306 1212 q 357 1192 340 1192 q 390 1208 380 1192 q 402 1254 400 1223 l 511 1254 q 470 1130 509 1174 q 372 1086 432 1086 z "},"":{"ha":1072,"x_min":46,"x_max":1023,"o":"m 485 0 l 485 171 l 651 171 l 651 840 l 485 840 l 485 1010 l 1024 1010 l 1024 840 l 859 840 l 859 171 l 1024 171 l 1024 0 l 485 0 m 354 782 q 221 811 268 782 q 175 897 175 841 q 221 982 175 951 q 354 1013 267 1013 l 382 1013 l 382 918 l 347 918 q 298 909 315 918 q 281 880 281 899 q 299 849 281 860 q 353 838 317 838 l 362 838 l 362 782 l 354 782 m 372 1072 q 315 1081 340 1072 q 270 1104 290 1091 q 233 1127 250 1118 q 200 1137 216 1137 q 168 1120 179 1137 q 156 1076 157 1103 l 46 1076 q 86 1199 48 1156 q 185 1243 123 1243 q 242 1233 218 1243 q 286 1211 267 1223 q 323 1188 306 1198 q 357 1178 340 1178 q 390 1194 380 1178 q 402 1240 400 1209 l 511 1240 q 470 1116 509 1160 q 372 1072 432 1072 z "},"":{"ha":635,"x_min":48,"x_max":587,"o":"m 48 0 l 48 171 l 214 171 l 214 840 l 48 840 l 48 1010 l 587 1010 l 587 840 l 422 840 l 422 171 l 587 171 l 587 0 l 48 0 m 318 1103 q 199 1131 252 1103 q 116 1207 146 1159 q 85 1314 85 1255 l 203 1314 q 236 1242 203 1270 q 318 1214 269 1214 q 399 1242 367 1214 q 432 1314 432 1270 l 552 1314 q 521 1207 552 1255 q 437 1131 490 1159 q 318 1103 385 1103 z "},"":{"ha":635,"x_min":48,"x_max":587,"o":"m 48 0 l 48 171 l 214 171 l 214 840 l 48 840 l 48 1010 l 587 1010 l 587 840 l 422 840 l 422 171 l 587 171 l 587 0 l 48 0 m 515 1275 l 515 1146 l 122 1146 l 122 1275 l 515 1275 z "},"":{"ha":862,"x_min":-96,"x_max":814,"o":"m 275 0 l 275 171 l 441 171 l 441 840 l 275 840 l 275 1010 l 814 1010 l 814 840 l 648 840 l 648 171 l 814 171 l 814 0 l 275 0 m 109 839 l -12 839 l -96 1050 l 86 1050 l 109 839 z "},"":{"ha":920,"x_min":46,"x_max":871,"o":"m 333 0 l 333 171 l 499 171 l 499 840 l 333 840 l 333 1010 l 872 1010 l 872 840 l 707 840 l 707 171 l 872 171 l 872 0 l 333 0 m 47 799 l 69 1010 l 251 1010 l 168 799 l 47 799 z "},"":{"ha":635,"x_min":48,"x_max":587,"o":"m 48 0 l 48 171 l 214 171 l 214 840 l 48 840 l 48 1010 l 587 1010 l 587 840 l 422 840 l 422 171 l 587 171 l 587 0 l 48 0 z "},"":{"ha":635,"x_min":48,"x_max":587,"o":"m 48 0 l 48 171 l 214 171 l 214 840 l 48 840 l 48 1010 l 587 1010 l 587 840 l 422 840 l 422 171 l 587 171 l 587 0 l 48 0 m 469 1112 q 395 1142 425 1112 q 365 1213 365 1171 q 395 1284 365 1255 q 469 1313 425 1313 q 542 1284 512 1313 q 572 1213 572 1255 q 542 1141 572 1171 q 469 1112 512 1112 m 168 1112 q 95 1142 125 1112 q 64 1213 64 1171 q 95 1284 64 1255 q 168 1313 125 1313 q 241 1284 211 1313 q 271 1213 271 1255 q 241 1141 271 1171 q 168 1112 211 1112 z "},"J":{"ha":804,"x_min":45,"x_max":718,"o":"m 382 -14 q 135 69 225 -14 q 45 304 45 151 l 45 365 l 250 365 l 250 302 q 285 193 250 230 q 381 155 320 155 q 476 193 441 155 q 511 302 511 230 l 511 1010 l 718 1010 l 718 304 q 628 69 718 151 q 382 -14 538 -14 z "},"Ĵ":{"ha":804,"x_min":45,"x_max":882,"o":"m 382 -14 q 135 69 225 -14 q 45 304 45 151 l 45 365 l 250 365 l 250 302 q 285 193 250 230 q 381 155 320 155 q 476 193 441 155 q 511 302 511 230 l 511 1010 l 718 1010 l 718 304 q 628 69 718 151 q 382 -14 538 -14 m 519 1111 l 347 1111 l 347 1115 l 536 1316 l 692 1316 l 882 1115 l 882 1111 l 709 1111 l 614 1226 l 519 1111 z "},"Ɉ":{"ha":863,"x_min":45,"x_max":853,"o":"m 382 -14 q 135 69 225 -14 q 45 304 45 151 l 45 365 l 250 365 l 250 302 q 285 193 250 230 q 381 155 320 155 q 476 193 441 155 q 511 302 511 230 l 511 1010 l 718 1010 l 718 304 q 628 69 718 151 q 382 -14 538 -14 m 373 556 l 373 643 l 853 643 l 853 556 l 373 556 z "},"Ϳ":{"ha":804,"x_min":45,"x_max":718,"o":"m 382 -14 q 135 69 225 -14 q 45 304 45 151 l 45 365 l 250 365 l 250 302 q 285 193 250 230 q 381 155 320 155 q 476 193 441 155 q 511 302 511 230 l 511 1010 l 718 1010 l 718 304 q 628 69 718 151 q 382 -14 538 -14 z "},"Ј":{"ha":804,"x_min":45,"x_max":718,"o":"m 382 -14 q 135 69 225 -14 q 45 304 45 151 l 45 365 l 250 365 l 250 302 q 285 193 250 230 q 381 155 320 155 q 476 193 441 155 q 511 302 511 230 l 511 1010 l 718 1010 l 718 304 q 628 69 718 151 q 382 -14 538 -14 z "},"K":{"ha":988,"x_min":87,"x_max":960,"o":"m 240 224 l 240 429 q 303 528 272 481 q 370 621 334 574 q 449 720 405 667 l 696 1010 l 949 1010 l 523 517 l 506 522 l 240 224 m 87 0 l 87 1010 l 295 1010 l 295 734 l 292 477 l 295 376 l 295 0 l 87 0 m 716 0 l 416 456 l 545 612 l 960 0 l 716 0 z "},"Ķ":{"ha":988,"x_min":87,"x_max":960,"o":"m 240 224 l 240 429 q 303 528 272 481 q 370 621 334 574 q 449 720 405 667 l 696 1010 l 949 1010 l 523 517 l 506 522 l 240 224 m 87 0 l 87 1010 l 295 1010 l 295 734 l 292 477 l 295 376 l 295 0 l 87 0 m 716 0 l 416 456 l 545 612 l 960 0 l 716 0 m 336 -325 l 397 -80 l 585 -80 l 478 -325 l 336 -325 z "},"Ǩ":{"ha":988,"x_min":87,"x_max":960,"o":"m 240 224 l 240 429 q 303 528 272 481 q 370 621 334 574 q 449 720 405 667 l 696 1010 l 949 1010 l 523 517 l 506 522 l 240 224 m 87 0 l 87 1010 l 295 1010 l 295 734 l 292 477 l 295 376 l 295 0 l 87 0 m 716 0 l 416 456 l 545 612 l 960 0 l 716 0 m 395 1316 l 490 1201 l 585 1316 l 758 1316 l 758 1312 l 568 1111 l 412 1111 l 222 1312 l 222 1316 l 395 1316 z "},"Ḱ":{"ha":988,"x_min":87,"x_max":960,"o":"m 240 224 l 240 429 q 303 528 272 481 q 370 621 334 574 q 449 720 405 667 l 696 1010 l 949 1010 l 523 517 l 506 522 l 240 224 m 87 0 l 87 1010 l 295 1010 l 295 734 l 292 477 l 295 376 l 295 0 l 87 0 m 716 0 l 416 456 l 545 612 l 960 0 l 716 0 m 415 1105 l 515 1316 l 705 1316 l 557 1105 l 415 1105 z "},"Ḳ":{"ha":988,"x_min":87,"x_max":960,"o":"m 240 224 l 240 429 q 303 528 272 481 q 370 621 334 574 q 449 720 405 667 l 696 1010 l 949 1010 l 523 517 l 506 522 l 240 224 m 87 0 l 87 1010 l 295 1010 l 295 734 l 292 477 l 295 376 l 295 0 l 87 0 m 716 0 l 416 456 l 545 612 l 960 0 l 716 0 m 491 -311 q 411 -280 444 -311 q 378 -205 378 -250 q 411 -131 378 -161 q 490 -100 444 -100 q 570 -131 538 -100 q 603 -205 603 -161 q 570 -280 603 -250 q 491 -311 538 -311 z "},"Ḵ":{"ha":988,"x_min":87,"x_max":960,"o":"m 240 224 l 240 429 q 303 528 272 481 q 370 621 334 574 q 449 720 405 667 l 696 1010 l 949 1010 l 523 517 l 506 522 l 240 224 m 87 0 l 87 1010 l 295 1010 l 295 734 l 292 477 l 295 376 l 295 0 l 87 0 m 716 0 l 416 456 l 545 612 l 960 0 l 716 0 m 687 -134 l 687 -263 l 294 -263 l 294 -134 l 687 -134 z "},"Ҡ":{"ha":1220,"x_min":46,"x_max":1192,"o":"m 420 1010 l 420 839 l 46 839 l 46 1010 l 420 1010 m 319 0 l 319 1010 l 527 1010 l 527 602 l 640 602 l 930 1010 l 1175 1010 l 811 519 l 1192 0 l 947 0 l 640 430 l 527 430 l 527 0 l 319 0 z "},"Қ":{"ha":1048,"x_min":87,"x_max":1017,"o":"m 87 0 l 87 1010 l 295 1010 l 295 602 l 408 602 l 698 1010 l 943 1010 l 579 519 l 960 0 l 715 0 l 408 430 l 295 430 l 295 0 l 87 0 m 811 -217 l 811 0 l 753 0 l 753 165 l 1017 165 l 1008 -217 l 811 -217 z "},"Ƙ":{"ha":1000,"x_min":87,"x_max":995,"o":"m 87 0 l 87 1010 l 294 1010 l 294 570 l 307 570 l 644 928 q 753 1005 695 981 q 872 1022 810 1028 q 995 978 933 1015 l 928 831 q 856 843 886 853 q 791 797 826 832 l 550 545 l 967 0 l 719 0 l 418 399 l 294 265 l 294 0 l 87 0 z "},"Κ":{"ha":988,"x_min":87,"x_max":960,"o":"m 240 224 l 240 429 q 303 528 272 481 q 370 621 334 574 q 449 720 405 667 l 696 1010 l 949 1010 l 523 517 l 506 522 l 240 224 m 87 0 l 87 1010 l 295 1010 l 295 734 l 292 477 l 295 376 l 295 0 l 87 0 m 716 0 l 416 456 l 545 612 l 960 0 l 716 0 z "},"L":{"ha":783,"x_min":87,"x_max":736,"o":"m 87 0 l 87 1010 l 295 1010 l 295 174 l 736 174 l 736 0 l 87 0 z "},"Ĺ":{"ha":783,"x_min":87,"x_max":736,"o":"m 87 0 l 87 1010 l 295 1010 l 295 174 l 736 174 l 736 0 l 87 0 m 115 1105 l 215 1316 l 405 1316 l 258 1105 l 115 1105 z "},"Ļ":{"ha":783,"x_min":87,"x_max":736,"o":"m 87 0 l 87 1010 l 295 1010 l 295 174 l 736 174 l 736 0 l 87 0 m 256 -325 l 316 -80 l 505 -80 l 397 -325 l 256 -325 z "},"Ľ":{"ha":783,"x_min":87,"x_max":736,"o":"m 87 0 l 87 1010 l 295 1010 l 295 174 l 736 174 l 736 0 l 87 0 m 448 802 l 448 1061 l 604 1061 l 568 802 l 448 802 z "},"Ḷ":{"ha":783,"x_min":87,"x_max":736,"o":"m 87 0 l 87 1010 l 295 1010 l 295 174 l 736 174 l 736 0 l 87 0 m 410 -311 q 331 -280 363 -311 q 298 -205 298 -250 q 331 -131 298 -161 q 410 -100 363 -100 q 490 -131 457 -100 q 522 -205 522 -161 q 490 -280 522 -250 q 410 -311 457 -311 z "},"Ḹ":{"ha":783,"x_min":-6,"x_max":736,"o":"m 87 0 l 87 1010 l 295 1010 l 295 174 l 736 174 l 736 0 l 87 0 m 410 -311 q 331 -280 363 -311 q 298 -205 298 -250 q 331 -131 298 -161 q 410 -100 363 -100 q 490 -131 457 -100 q 522 -205 522 -161 q 490 -280 522 -250 q 410 -311 457 -311 m 387 1275 l 387 1146 l -6 1146 l -6 1275 l 387 1275 z "},"Ḻ":{"ha":783,"x_min":87,"x_max":736,"o":"m 87 0 l 87 1010 l 295 1010 l 295 174 l 736 174 l 736 0 l 87 0 m 606 -134 l 606 -263 l 214 -263 l 214 -134 l 606 -134 z "},"Ḽ":{"ha":783,"x_min":87,"x_max":736,"o":"m 87 0 l 87 1010 l 295 1010 l 295 174 l 736 174 l 736 0 l 87 0 m 316 -306 l 143 -306 l 143 -302 l 332 -100 l 489 -100 l 679 -302 l 679 -306 l 506 -306 l 411 -191 l 316 -306 z "},"Ł":{"ha":838,"x_min":12,"x_max":791,"o":"m 143 0 l 143 1010 l 351 1010 l 351 174 l 792 174 l 792 0 l 143 0 m 12 276 l 12 454 l 587 786 l 587 608 l 12 276 z "},"Ƚ":{"ha":838,"x_min":14,"x_max":791,"o":"m 143 0 l 143 1010 l 351 1010 l 351 174 l 792 174 l 792 0 l 143 0 m 14 435 l 14 575 l 566 575 l 566 435 l 14 435 z "},"ǈ":{"ha":1152,"x_min":87,"x_max":1080,"o":"m 87 0 l 87 1010 l 295 1010 l 295 174 l 736 174 l 736 0 l 87 0 m 865 749 l 1068 749 l 1068 -43 q 1036 -180 1069 -127 q 942 -258 1004 -233 q 795 -283 881 -283 l 745 -283 l 745 -123 l 777 -123 q 845 -102 825 -123 q 865 -37 865 -81 l 865 749 m 967 846 q 887 876 920 846 q 854 951 854 907 q 887 1025 854 995 q 966 1056 920 1056 q 1046 1025 1014 1056 q 1079 951 1079 995 q 1046 876 1079 907 q 967 846 1014 846 z "},"M":{"ha":1282,"x_min":87,"x_max":1195,"o":"m 87 0 l 87 1010 l 403 1010 l 567 545 q 591 462 577 513 q 618 354 604 412 q 644 242 632 296 q 664 149 656 189 l 621 149 q 641 241 629 188 q 666 353 652 295 q 693 462 680 411 q 718 545 707 513 l 879 1010 l 1195 1010 l 1195 0 l 987 0 l 987 477 q 988 559 987 511 q 991 665 989 608 q 994 778 993 721 q 996 886 996 836 l 1012 886 q 982 772 998 831 q 950 657 966 713 q 921 554 935 601 q 897 477 907 508 l 728 0 l 555 0 l 385 477 q 360 554 374 508 q 330 656 346 600 q 297 770 313 711 q 266 886 281 829 l 285 886 q 287 781 286 838 q 290 667 288 724 q 292 561 291 610 q 294 477 294 511 l 294 0 l 87 0 z "},"Ḿ":{"ha":1282,"x_min":87,"x_max":1195,"o":"m 87 0 l 87 1010 l 403 1010 l 567 545 q 591 462 577 513 q 618 354 604 412 q 644 242 632 296 q 664 149 656 189 l 621 149 q 641 241 629 188 q 666 353 652 295 q 693 462 680 411 q 718 545 707 513 l 879 1010 l 1195 1010 l 1195 0 l 987 0 l 987 477 q 988 559 987 511 q 991 665 989 608 q 994 778 993 721 q 996 886 996 836 l 1012 886 q 982 772 998 831 q 950 657 966 713 q 921 554 935 601 q 897 477 907 508 l 728 0 l 555 0 l 385 477 q 360 554 374 508 q 330 656 346 600 q 297 770 313 711 q 266 886 281 829 l 285 886 q 287 781 286 838 q 290 667 288 724 q 292 561 291 610 q 294 477 294 511 l 294 0 l 87 0 m 565 1105 l 665 1316 l 854 1316 l 707 1105 l 565 1105 z "},"Ṁ":{"ha":1282,"x_min":87,"x_max":1195,"o":"m 87 0 l 87 1010 l 403 1010 l 567 545 q 591 462 577 513 q 618 354 604 412 q 644 242 632 296 q 664 149 656 189 l 621 149 q 641 241 629 188 q 666 353 652 295 q 693 462 680 411 q 718 545 707 513 l 879 1010 l 1195 1010 l 1195 0 l 987 0 l 987 477 q 988 559 987 511 q 991 665 989 608 q 994 778 993 721 q 996 886 996 836 l 1012 886 q 982 772 998 831 q 950 657 966 713 q 921 554 935 601 q 897 477 907 508 l 728 0 l 555 0 l 385 477 q 360 554 374 508 q 330 656 346 600 q 297 770 313 711 q 266 886 281 829 l 285 886 q 287 781 286 838 q 290 667 288 724 q 292 561 291 610 q 294 477 294 511 l 294 0 l 87 0 m 640 1107 q 561 1138 593 1107 q 528 1213 528 1168 q 561 1287 528 1257 q 640 1318 593 1318 q 720 1287 687 1318 q 752 1213 752 1257 q 720 1138 752 1168 q 640 1107 687 1107 z "},"Ṃ":{"ha":1282,"x_min":87,"x_max":1195,"o":"m 87 0 l 87 1010 l 403 1010 l 567 545 q 591 462 577 513 q 618 354 604 412 q 644 242 632 296 q 664 149 656 189 l 621 149 q 641 241 629 188 q 666 353 652 295 q 693 462 680 411 q 718 545 707 513 l 879 1010 l 1195 1010 l 1195 0 l 987 0 l 987 477 q 988 559 987 511 q 991 665 989 608 q 994 778 993 721 q 996 886 996 836 l 1012 886 q 982 772 998 831 q 950 657 966 713 q 921 554 935 601 q 897 477 907 508 l 728 0 l 555 0 l 385 477 q 360 554 374 508 q 330 656 346 600 q 297 770 313 711 q 266 886 281 829 l 285 886 q 287 781 286 838 q 290 667 288 724 q 292 561 291 610 q 294 477 294 511 l 294 0 l 87 0 m 641 -311 q 561 -280 594 -311 q 528 -205 528 -250 q 561 -131 528 -161 q 640 -100 594 -100 q 720 -131 688 -100 q 753 -205 753 -161 q 720 -280 753 -250 q 641 -311 688 -311 z "},"Ӎ":{"ha":1282,"x_min":87,"x_max":1322,"o":"m 87 0 l 87 1010 l 403 1010 l 567 545 q 591 462 577 513 q 618 354 604 412 q 644 242 632 296 q 664 149 656 189 l 621 149 q 641 241 629 188 q 666 353 652 295 q 693 462 680 411 q 718 545 707 513 l 879 1010 l 1195 1010 l 1195 0 l 987 0 l 987 477 q 988 559 987 511 q 991 665 989 608 q 994 778 993 721 q 996 886 996 836 l 1012 886 q 982 772 998 831 q 950 657 966 713 q 921 554 935 601 q 897 477 907 508 l 728 0 l 555 0 l 385 477 q 360 554 374 508 q 330 656 346 600 q 297 770 313 711 q 266 886 281 829 l 285 886 q 287 781 286 838 q 290 667 288 724 q 292 561 291 610 q 294 477 294 511 l 294 0 l 87 0 m 1016 -217 l 1084 0 l 1029 0 l 1029 161 l 1322 161 l 1204 -217 l 1016 -217 z "},"Μ":{"ha":1282,"x_min":87,"x_max":1195,"o":"m 87 0 l 87 1010 l 403 1010 l 567 545 q 591 462 577 513 q 618 354 604 412 q 644 242 632 296 q 664 149 656 189 l 621 149 q 641 241 629 188 q 666 353 652 295 q 693 462 680 411 q 718 545 707 513 l 879 1010 l 1195 1010 l 1195 0 l 987 0 l 987 477 q 988 559 987 511 q 991 665 989 608 q 994 778 993 721 q 996 886 996 836 l 1012 886 q 982 772 998 831 q 950 657 966 713 q 921 554 935 601 q 897 477 907 508 l 728 0 l 555 0 l 385 477 q 360 554 374 508 q 330 656 346 600 q 297 770 313 711 q 266 886 281 829 l 285 886 q 287 781 286 838 q 290 667 288 724 q 292 561 291 610 q 294 477 294 511 l 294 0 l 87 0 z "},"Ϻ":{"ha":1282,"x_min":87,"x_max":1195,"o":"m 87 0 l 87 1010 l 403 1010 l 567 545 q 591 462 577 513 q 618 354 604 412 q 644 242 632 296 q 664 149 656 189 l 621 149 q 641 241 629 188 q 666 353 652 295 q 693 462 680 411 q 718 545 707 513 l 879 1010 l 1195 1010 l 1195 0 l 987 0 l 987 477 q 988 559 987 511 q 991 665 989 608 q 994 778 993 721 q 996 886 996 836 l 1012 886 q 982 772 998 831 q 950 657 966 713 q 921 554 935 601 q 897 477 907 508 l 728 0 l 555 0 l 385 477 q 360 554 374 508 q 330 656 346 600 q 297 770 313 711 q 266 886 281 829 l 285 886 q 287 781 286 838 q 290 667 288 724 q 292 561 291 610 q 294 477 294 511 l 294 0 l 87 0 z "},"М":{"ha":1282,"x_min":87,"x_max":1195,"o":"m 87 0 l 87 1010 l 403 1010 l 567 545 q 591 462 577 513 q 618 354 604 412 q 644 242 632 296 q 664 149 656 189 l 621 149 q 641 241 629 188 q 666 353 652 295 q 693 462 680 411 q 718 545 707 513 l 879 1010 l 1195 1010 l 1195 0 l 987 0 l 987 477 q 988 559 987 511 q 991 665 989 608 q 994 778 993 721 q 996 886 996 836 l 1012 886 q 982 772 998 831 q 950 657 966 713 q 921 554 935 601 q 897 477 907 508 l 728 0 l 555 0 l 385 477 q 360 554 374 508 q 330 656 346 600 q 297 770 313 711 q 266 886 281 829 l 285 886 q 287 781 286 838 q 290 667 288 724 q 292 561 291 610 q 294 477 294 511 l 294 0 l 87 0 z "},"N":{"ha":1047,"x_min":87,"x_max":960,"o":"m 87 0 l 87 1010 l 316 1010 l 637 498 q 684 417 659 462 q 734 319 708 373 q 786 201 760 264 l 764 189 q 756 306 760 243 q 751 426 753 368 q 749 522 749 484 l 749 1010 l 960 1010 l 960 0 l 730 0 l 439 465 q 383 561 410 512 q 325 669 355 609 q 255 808 295 728 l 283 813 q 291 672 288 739 q 297 552 295 606 q 299 465 299 498 l 299 0 l 87 0 z "},"Ñ":{"ha":1047,"x_min":87,"x_max":960,"o":"m 87 0 l 87 1010 l 316 1010 l 637 498 q 684 417 659 462 q 734 319 708 373 q 786 201 760 264 l 764 189 q 756 306 760 243 q 751 426 753 368 q 749 522 749 484 l 749 1010 l 960 1010 l 960 0 l 730 0 l 439 465 q 383 561 410 512 q 325 669 355 609 q 255 808 295 728 l 283 813 q 291 672 288 739 q 297 552 295 606 q 299 465 299 498 l 299 0 l 87 0 m 619 1122 q 561 1132 587 1122 q 515 1157 536 1143 q 478 1181 495 1171 q 444 1192 460 1192 q 412 1173 423 1192 q 400 1126 401 1155 l 288 1126 q 329 1258 290 1212 q 429 1305 367 1305 q 487 1294 463 1305 q 532 1270 512 1284 q 569 1246 552 1257 q 604 1236 586 1236 q 637 1252 627 1236 q 650 1301 648 1269 l 760 1301 q 719 1169 758 1216 q 619 1122 680 1122 z "},"Ń":{"ha":1047,"x_min":87,"x_max":960,"o":"m 87 0 l 87 1010 l 316 1010 l 637 498 q 684 417 659 462 q 734 319 708 373 q 786 201 760 264 l 764 189 q 756 306 760 243 q 751 426 753 368 q 749 522 749 484 l 749 1010 l 960 1010 l 960 0 l 730 0 l 439 465 q 383 561 410 512 q 325 669 355 609 q 255 808 295 728 l 283 813 q 291 672 288 739 q 297 552 295 606 q 299 465 299 498 l 299 0 l 87 0 m 448 1105 l 548 1316 l 738 1316 l 591 1105 l 448 1105 z "},"Ņ":{"ha":1047,"x_min":87,"x_max":960,"o":"m 87 0 l 87 1010 l 316 1010 l 637 498 q 684 417 659 462 q 734 319 708 373 q 786 201 760 264 l 764 189 q 756 306 760 243 q 751 426 753 368 q 749 522 749 484 l 749 1010 l 960 1010 l 960 0 l 730 0 l 439 465 q 383 561 410 512 q 325 669 355 609 q 255 808 295 728 l 283 813 q 291 672 288 739 q 297 552 295 606 q 299 465 299 498 l 299 0 l 87 0 m 370 -325 l 431 -80 l 619 -80 l 512 -325 l 370 -325 z "},"Ň":{"ha":1047,"x_min":87,"x_max":960,"o":"m 87 0 l 87 1010 l 316 1010 l 637 498 q 684 417 659 462 q 734 319 708 373 q 786 201 760 264 l 764 189 q 756 306 760 243 q 751 426 753 368 q 749 522 749 484 l 749 1010 l 960 1010 l 960 0 l 730 0 l 439 465 q 383 561 410 512 q 325 669 355 609 q 255 808 295 728 l 283 813 q 291 672 288 739 q 297 552 295 606 q 299 465 299 498 l 299 0 l 87 0 m 429 1316 l 524 1201 l 618 1316 l 791 1316 l 791 1312 l 602 1111 l 445 1111 l 256 1312 l 256 1316 l 429 1316 z "},"Ǹ":{"ha":1047,"x_min":87,"x_max":960,"o":"m 87 0 l 87 1010 l 316 1010 l 637 498 q 684 417 659 462 q 734 319 708 373 q 786 201 760 264 l 764 189 q 756 306 760 243 q 751 426 753 368 q 749 522 749 484 l 749 1010 l 960 1010 l 960 0 l 730 0 l 439 465 q 383 561 410 512 q 325 669 355 609 q 255 808 295 728 l 283 813 q 291 672 288 739 q 297 552 295 606 q 299 465 299 498 l 299 0 l 87 0 m 456 1105 l 309 1316 l 498 1316 l 598 1105 l 456 1105 z "},"Ṅ":{"ha":1047,"x_min":87,"x_max":960,"o":"m 87 0 l 87 1010 l 316 1010 l 637 498 q 684 417 659 462 q 734 319 708 373 q 786 201 760 264 l 764 189 q 756 306 760 243 q 751 426 753 368 q 749 522 749 484 l 749 1010 l 960 1010 l 960 0 l 730 0 l 439 465 q 383 561 410 512 q 325 669 355 609 q 255 808 295 728 l 283 813 q 291 672 288 739 q 297 552 295 606 q 299 465 299 498 l 299 0 l 87 0 m 524 1107 q 445 1138 477 1107 q 412 1213 412 1168 q 445 1287 412 1257 q 524 1318 477 1318 q 604 1287 571 1318 q 636 1213 636 1257 q 604 1138 636 1168 q 524 1107 571 1107 z "},"Ṇ":{"ha":1047,"x_min":87,"x_max":960,"o":"m 87 0 l 87 1010 l 316 1010 l 637 498 q 684 417 659 462 q 734 319 708 373 q 786 201 760 264 l 764 189 q 756 306 760 243 q 751 426 753 368 q 749 522 749 484 l 749 1010 l 960 1010 l 960 0 l 730 0 l 439 465 q 383 561 410 512 q 325 669 355 609 q 255 808 295 728 l 283 813 q 291 672 288 739 q 297 552 295 606 q 299 465 299 498 l 299 0 l 87 0 m 525 -311 q 445 -280 478 -311 q 412 -205 412 -250 q 445 -131 412 -161 q 524 -100 478 -100 q 604 -131 572 -100 q 637 -205 637 -161 q 604 -280 637 -250 q 525 -311 572 -311 z "},"Ṉ":{"ha":1047,"x_min":87,"x_max":960,"o":"m 87 0 l 87 1010 l 316 1010 l 637 498 q 684 417 659 462 q 734 319 708 373 q 786 201 760 264 l 764 189 q 756 306 760 243 q 751 426 753 368 q 749 522 749 484 l 749 1010 l 960 1010 l 960 0 l 730 0 l 439 465 q 383 561 410 512 q 325 669 355 609 q 255 808 295 728 l 283 813 q 291 672 288 739 q 297 552 295 606 q 299 465 299 498 l 299 0 l 87 0 m 721 -134 l 721 -263 l 328 -263 l 328 -134 l 721 -134 z "},"Ṋ":{"ha":1047,"x_min":87,"x_max":960,"o":"m 87 0 l 87 1010 l 316 1010 l 637 498 q 684 417 659 462 q 734 319 708 373 q 786 201 760 264 l 764 189 q 756 306 760 243 q 751 426 753 368 q 749 522 749 484 l 749 1010 l 960 1010 l 960 0 l 730 0 l 439 465 q 383 561 410 512 q 325 669 355 609 q 255 808 295 728 l 283 813 q 291 672 288 739 q 297 552 295 606 q 299 465 299 498 l 299 0 l 87 0 m 431 -306 l 258 -306 l 258 -302 l 447 -100 l 604 -100 l 793 -302 l 793 -306 l 621 -306 l 526 -191 l 431 -306 z "},"Ɲ":{"ha":1047,"x_min":-57,"x_max":960,"o":"m -57 -283 l -57 -123 q -24 -126 -41 -125 q 8 -127 -7 -127 q 70 -113 53 -127 q 87 -66 87 -98 l 87 85 l 295 85 l 295 -77 q 233 -238 295 -184 q 50 -292 172 -292 q -9 -290 19 -292 q -57 -283 -37 -288 m 87 0 l 87 1010 l 316 1010 l 637 498 q 684 417 659 462 q 734 319 708 373 q 786 201 760 264 l 764 189 q 756 306 760 243 q 751 426 753 368 q 749 522 749 484 l 749 1010 l 960 1010 l 960 0 l 730 0 l 439 465 q 383 561 410 512 q 325 669 355 609 q 255 808 295 728 l 283 813 q 291 672 288 739 q 297 552 295 606 q 299 465 299 498 l 299 0 l 87 0 z "},"Ŋ":{"ha":1047,"x_min":87,"x_max":962,"o":"m 610 -283 l 610 -123 q 642 -126 625 -125 q 675 -127 659 -127 q 737 -113 720 -127 q 755 -66 755 -98 l 755 85 l 962 85 l 962 -77 q 900 -238 962 -184 q 717 -292 838 -292 q 658 -290 686 -292 q 610 -283 630 -288 m 87 0 l 87 1010 l 316 1010 l 637 498 q 684 417 659 462 q 734 319 708 373 q 786 201 760 264 l 764 189 q 756 306 760 243 q 751 426 753 368 q 749 522 749 484 l 749 1010 l 960 1010 l 960 0 l 730 0 l 439 465 q 383 561 410 512 q 325 669 355 609 q 255 808 295 728 l 283 813 q 291 672 288 739 q 297 552 295 606 q 299 465 299 498 l 299 0 l 87 0 z "},"И":{"ha":1047,"x_min":87,"x_max":960,"o":"m 960 0 l 748 0 l 748 465 q 750 552 748 498 q 756 672 752 606 q 764 813 760 739 l 792 808 q 722 669 753 728 q 664 561 691 609 q 608 465 637 512 l 317 0 l 87 0 l 87 1010 l 298 1010 l 298 522 q 296 426 298 484 q 291 306 294 368 q 283 189 288 243 l 262 201 q 313 319 287 264 q 364 417 339 373 q 410 498 389 462 l 731 1010 l 960 1010 l 960 0 z "},"Ѝ":{"ha":1047,"x_min":87,"x_max":960,"o":"m 960 0 l 748 0 l 748 465 q 750 552 748 498 q 756 672 752 606 q 764 813 760 739 l 792 808 q 722 669 753 728 q 664 561 691 609 q 608 465 637 512 l 317 0 l 87 0 l 87 1010 l 298 1010 l 298 522 q 296 426 298 484 q 291 306 294 368 q 283 189 288 243 l 262 201 q 313 319 287 264 q 364 417 339 373 q 410 498 389 462 l 731 1010 l 960 1010 l 960 0 m 443 1105 l 296 1316 l 486 1316 l 585 1105 l 443 1105 z "},"Й":{"ha":1047,"x_min":87,"x_max":960,"o":"m 960 0 l 748 0 l 748 465 q 750 552 748 498 q 756 672 752 606 q 764 813 760 739 l 792 808 q 722 669 753 728 q 664 561 691 609 q 608 465 637 512 l 317 0 l 87 0 l 87 1010 l 298 1010 l 298 522 q 296 426 298 484 q 291 306 294 368 q 283 189 288 243 l 262 201 q 313 319 287 264 q 364 417 339 373 q 410 498 389 462 l 731 1010 l 960 1010 l 960 0 m 511 1103 q 392 1131 445 1103 q 308 1207 339 1159 q 277 1314 277 1255 l 396 1314 q 429 1242 396 1270 q 511 1214 462 1214 q 592 1242 559 1214 q 625 1314 625 1270 l 745 1314 q 714 1207 745 1255 q 630 1131 683 1159 q 511 1103 577 1103 z "},"Ӣ":{"ha":1047,"x_min":87,"x_max":960,"o":"m 960 0 l 748 0 l 748 465 q 750 552 748 498 q 756 672 752 606 q 764 813 760 739 l 792 808 q 722 669 753 728 q 664 561 691 609 q 608 465 637 512 l 317 0 l 87 0 l 87 1010 l 298 1010 l 298 522 q 296 426 298 484 q 291 306 294 368 q 283 189 288 243 l 262 201 q 313 319 287 264 q 364 417 339 373 q 410 498 389 462 l 731 1010 l 960 1010 l 960 0 m 707 1275 l 707 1146 l 315 1146 l 315 1275 l 707 1275 z "},"Ӥ":{"ha":1047,"x_min":87,"x_max":960,"o":"m 960 0 l 748 0 l 748 465 q 750 552 748 498 q 756 672 752 606 q 764 813 760 739 l 792 808 q 722 669 753 728 q 664 561 691 609 q 608 465 637 512 l 317 0 l 87 0 l 87 1010 l 298 1010 l 298 522 q 296 426 298 484 q 291 306 294 368 q 283 189 288 243 l 262 201 q 313 319 287 264 q 364 417 339 373 q 410 498 389 462 l 731 1010 l 960 1010 l 960 0 m 661 1112 q 588 1142 618 1112 q 557 1213 557 1171 q 588 1284 557 1255 q 661 1313 618 1313 q 734 1284 705 1313 q 764 1213 764 1255 q 734 1141 764 1171 q 661 1112 705 1112 m 360 1112 q 287 1142 317 1112 q 257 1213 257 1171 q 287 1284 257 1255 q 360 1313 317 1313 q 433 1284 404 1313 q 463 1213 463 1255 q 433 1141 463 1171 q 360 1112 404 1112 z "},"Ҋ":{"ha":1047,"x_min":87,"x_max":1062,"o":"m 960 0 l 748 0 l 748 465 q 750 552 748 498 q 756 672 752 606 q 764 813 760 739 l 792 808 q 722 669 753 728 q 664 561 691 609 q 608 465 637 512 l 317 0 l 87 0 l 87 1010 l 298 1010 l 298 522 q 296 426 298 484 q 291 306 294 368 q 283 189 288 243 l 262 201 q 313 319 287 264 q 364 417 339 373 q 410 498 389 462 l 731 1010 l 960 1010 l 960 0 m 511 1103 q 392 1131 445 1103 q 308 1207 339 1159 q 277 1314 277 1255 l 396 1314 q 429 1242 396 1270 q 511 1214 462 1214 q 592 1242 559 1214 q 625 1314 625 1270 l 745 1314 q 714 1207 745 1255 q 630 1131 683 1159 q 511 1103 577 1103 m 755 -217 l 823 0 l 768 0 l 768 161 l 1062 161 l 943 -217 l 755 -217 z "},"Ͷ":{"ha":1047,"x_min":87,"x_max":960,"o":"m 960 0 l 748 0 l 748 465 q 750 552 748 498 q 756 672 752 606 q 764 813 760 739 l 792 808 q 722 669 753 728 q 664 561 691 609 q 608 465 637 512 l 317 0 l 87 0 l 87 1010 l 298 1010 l 298 522 q 296 426 298 484 q 291 306 294 368 q 283 189 288 243 l 262 201 q 313 319 287 264 q 364 417 339 373 q 410 498 389 462 l 731 1010 l 960 1010 l 960 0 z "},"Ν":{"ha":1047,"x_min":87,"x_max":960,"o":"m 87 0 l 87 1010 l 316 1010 l 637 498 q 684 417 659 462 q 734 319 708 373 q 786 201 760 264 l 764 189 q 756 306 760 243 q 751 426 753 368 q 749 522 749 484 l 749 1010 l 960 1010 l 960 0 l 730 0 l 439 465 q 383 561 410 512 q 325 669 355 609 q 255 808 295 728 l 283 813 q 291 672 288 739 q 297 552 295 606 q 299 465 299 498 l 299 0 l 87 0 z "},"ǋ":{"ha":1416,"x_min":87,"x_max":1344,"o":"m 87 0 l 87 1010 l 316 1010 l 637 498 q 684 417 659 462 q 734 319 708 373 q 786 201 760 264 l 764 189 q 756 306 760 243 q 751 426 753 368 q 749 522 749 484 l 749 1010 l 960 1010 l 960 0 l 730 0 l 439 465 q 383 561 410 512 q 325 669 355 609 q 255 808 295 728 l 283 813 q 291 672 288 739 q 297 552 295 606 q 299 465 299 498 l 299 0 l 87 0 m 1130 749 l 1333 749 l 1333 -43 q 1301 -180 1333 -127 q 1207 -258 1268 -233 q 1060 -283 1145 -283 l 1010 -283 l 1010 -123 l 1041 -123 q 1110 -102 1090 -123 q 1130 -37 1130 -81 l 1130 749 m 1232 846 q 1152 876 1185 846 q 1119 951 1119 907 q 1152 1025 1119 995 q 1231 1056 1185 1056 q 1311 1025 1278 1056 q 1343 951 1343 995 q 1311 876 1343 907 q 1232 846 1278 846 z "},"O":{"ha":1063,"x_min":59,"x_max":1004,"o":"m 532 -14 q 290 47 397 -14 q 121 225 183 109 q 59 505 59 341 q 121 785 59 669 q 290 963 183 901 q 532 1025 397 1025 q 773 963 666 1025 q 942 785 880 901 q 1004 505 1004 669 q 942 225 1004 341 q 773 47 880 109 q 532 -14 666 -14 m 532 170 q 669 208 610 170 q 761 322 728 247 q 794 505 794 397 q 761 688 794 613 q 669 802 728 764 q 532 841 610 841 q 394 802 454 841 q 302 688 335 763 q 269 505 269 613 q 302 322 269 397 q 394 209 335 248 q 532 170 454 170 z "},"Ö":{"ha":1063,"x_min":59,"x_max":1004,"o":"m 532 -14 q 290 47 397 -14 q 121 225 183 109 q 59 505 59 341 q 121 785 59 669 q 290 963 183 901 q 532 1025 397 1025 q 773 963 666 1025 q 942 785 880 901 q 1004 505 1004 669 q 942 225 1004 341 q 773 47 880 109 q 532 -14 666 -14 m 532 170 q 669 208 610 170 q 761 322 728 247 q 794 505 794 397 q 761 688 794 613 q 669 802 728 764 q 532 841 610 841 q 394 802 454 841 q 302 688 335 763 q 269 505 269 613 q 302 322 269 397 q 394 209 335 248 q 532 170 454 170 m 682 1112 q 609 1142 639 1112 q 578 1213 578 1171 q 609 1284 578 1255 q 682 1313 639 1313 q 755 1284 726 1313 q 785 1213 785 1255 q 755 1141 785 1171 q 682 1112 726 1112 m 381 1112 q 308 1142 338 1112 q 278 1213 278 1171 q 308 1284 278 1255 q 381 1313 338 1313 q 454 1284 425 1313 q 484 1213 484 1255 q 454 1141 484 1171 q 381 1112 425 1112 z "},"Õ":{"ha":1063,"x_min":59,"x_max":1004,"o":"m 532 -14 q 290 47 397 -14 q 121 225 183 109 q 59 505 59 341 q 121 785 59 669 q 290 963 183 901 q 532 1025 397 1025 q 773 963 666 1025 q 942 785 880 901 q 1004 505 1004 669 q 942 225 1004 341 q 773 47 880 109 q 532 -14 666 -14 m 532 170 q 669 208 610 170 q 761 322 728 247 q 794 505 794 397 q 761 688 794 613 q 669 802 728 764 q 532 841 610 841 q 394 802 454 841 q 302 688 335 763 q 269 505 269 613 q 302 322 269 397 q 394 209 335 248 q 532 170 454 170 m 627 1122 q 569 1132 595 1122 q 524 1157 544 1143 q 486 1181 503 1171 q 452 1192 469 1192 q 420 1173 431 1192 q 408 1126 410 1155 l 296 1126 q 337 1258 298 1212 q 437 1305 375 1305 q 495 1294 471 1305 q 540 1270 520 1284 q 577 1246 560 1257 q 612 1236 594 1236 q 645 1252 635 1236 q 658 1301 656 1269 l 768 1301 q 727 1169 766 1216 q 627 1122 688 1122 z "},"Ø":{"ha":1063,"x_min":59,"x_max":1004,"o":"m 532 -14 q 290 47 397 -14 q 121 225 183 109 q 59 505 59 341 q 121 785 59 669 q 290 963 183 901 q 532 1025 397 1025 q 773 963 666 1025 q 942 785 880 901 q 1004 505 1004 669 q 942 225 1004 341 q 773 47 880 109 q 532 -14 666 -14 m 532 170 q 669 208 610 170 q 761 322 728 247 q 794 505 794 397 q 761 688 794 613 q 669 802 728 764 q 532 841 610 841 q 394 802 454 841 q 302 688 335 763 q 269 505 269 613 q 302 322 269 397 q 394 209 335 248 q 532 170 454 170 m 205 -45 l 102 31 l 858 1055 l 961 979 l 205 -45 z "},"Ơ":{"ha":1073,"x_min":59,"x_max":1008,"o":"m 536 897 l 536 1025 q 595 1023 571 1025 q 646 1018 620 1021 q 710 1013 672 1015 q 810 1010 749 1010 q 827 1028 827 1010 l 827 1156 l 1008 1156 l 1008 1017 q 968 915 1008 946 q 861 883 927 883 q 795 885 827 883 q 727 890 763 887 q 644 895 690 893 q 536 897 598 897 m 532 -14 q 290 47 397 -14 q 121 225 183 109 q 59 505 59 341 q 121 785 59 669 q 290 963 183 901 q 532 1025 397 1025 q 773 963 666 1025 q 942 785 880 901 q 1004 505 1004 669 q 942 225 1004 341 q 773 47 880 109 q 532 -14 666 -14 m 532 170 q 669 208 610 170 q 761 322 728 247 q 794 505 794 397 q 761 688 794 613 q 669 802 728 764 q 532 841 610 841 q 394 802 454 841 q 302 688 335 763 q 269 505 269 613 q 302 322 269 397 q 394 209 335 248 q 532 170 454 170 z "},"Ò":{"ha":1063,"x_min":59,"x_max":1004,"o":"m 532 -14 q 290 47 397 -14 q 121 225 183 109 q 59 505 59 341 q 121 785 59 669 q 290 963 183 901 q 532 1025 397 1025 q 773 963 666 1025 q 942 785 880 901 q 1004 505 1004 669 q 942 225 1004 341 q 773 47 880 109 q 532 -14 666 -14 m 532 170 q 669 208 610 170 q 761 322 728 247 q 794 505 794 397 q 761 688 794 613 q 669 802 728 764 q 532 841 610 841 q 394 802 454 841 q 302 688 335 763 q 269 505 269 613 q 302 322 269 397 q 394 209 335 248 q 532 170 454 170 m 464 1105 l 317 1316 l 507 1316 l 606 1105 l 464 1105 z "},"Ó":{"ha":1063,"x_min":59,"x_max":1004,"o":"m 532 -14 q 290 47 397 -14 q 121 225 183 109 q 59 505 59 341 q 121 785 59 669 q 290 963 183 901 q 532 1025 397 1025 q 773 963 666 1025 q 942 785 880 901 q 1004 505 1004 669 q 942 225 1004 341 q 773 47 880 109 q 532 -14 666 -14 m 532 170 q 669 208 610 170 q 761 322 728 247 q 794 505 794 397 q 761 688 794 613 q 669 802 728 764 q 532 841 610 841 q 394 802 454 841 q 302 688 335 763 q 269 505 269 613 q 302 322 269 397 q 394 209 335 248 q 532 170 454 170 m 456 1105 l 556 1316 l 746 1316 l 599 1105 l 456 1105 z "},"Ô":{"ha":1063,"x_min":59,"x_max":1004,"o":"m 532 -14 q 290 47 397 -14 q 121 225 183 109 q 59 505 59 341 q 121 785 59 669 q 290 963 183 901 q 532 1025 397 1025 q 773 963 666 1025 q 942 785 880 901 q 1004 505 1004 669 q 942 225 1004 341 q 773 47 880 109 q 532 -14 666 -14 m 532 170 q 669 208 610 170 q 761 322 728 247 q 794 505 794 397 q 761 688 794 613 q 669 802 728 764 q 532 841 610 841 q 394 802 454 841 q 302 688 335 763 q 269 505 269 613 q 302 322 269 397 q 394 209 335 248 q 532 170 454 170 m 437 1111 l 264 1111 l 264 1115 l 453 1316 l 610 1316 l 800 1115 l 800 1111 l 627 1111 l 532 1226 l 437 1111 z "},"Ō":{"ha":1063,"x_min":59,"x_max":1004,"o":"m 532 -14 q 290 47 397 -14 q 121 225 183 109 q 59 505 59 341 q 121 785 59 669 q 290 963 183 901 q 532 1025 397 1025 q 773 963 666 1025 q 942 785 880 901 q 1004 505 1004 669 q 942 225 1004 341 q 773 47 880 109 q 532 -14 666 -14 m 532 170 q 669 208 610 170 q 761 322 728 247 q 794 505 794 397 q 761 688 794 613 q 669 802 728 764 q 532 841 610 841 q 394 802 454 841 q 302 688 335 763 q 269 505 269 613 q 302 322 269 397 q 394 209 335 248 q 532 170 454 170 m 728 1275 l 728 1146 l 336 1146 l 336 1275 l 728 1275 z "},"Ŏ":{"ha":1063,"x_min":59,"x_max":1004,"o":"m 532 -14 q 290 47 397 -14 q 121 225 183 109 q 59 505 59 341 q 121 785 59 669 q 290 963 183 901 q 532 1025 397 1025 q 773 963 666 1025 q 942 785 880 901 q 1004 505 1004 669 q 942 225 1004 341 q 773 47 880 109 q 532 -14 666 -14 m 532 170 q 669 208 610 170 q 761 322 728 247 q 794 505 794 397 q 761 688 794 613 q 669 802 728 764 q 532 841 610 841 q 394 802 454 841 q 302 688 335 763 q 269 505 269 613 q 302 322 269 397 q 394 209 335 248 q 532 170 454 170 m 532 1103 q 413 1131 466 1103 q 329 1207 360 1159 q 298 1314 298 1255 l 417 1314 q 450 1242 417 1270 q 532 1214 483 1214 q 613 1242 581 1214 q 646 1314 646 1270 l 766 1314 q 735 1207 766 1255 q 651 1131 704 1159 q 532 1103 598 1103 z "},"Ő":{"ha":1063,"x_min":59,"x_max":1004,"o":"m 532 -14 q 290 47 397 -14 q 121 225 183 109 q 59 505 59 341 q 121 785 59 669 q 290 963 183 901 q 532 1025 397 1025 q 773 963 666 1025 q 942 785 880 901 q 1004 505 1004 669 q 942 225 1004 341 q 773 47 880 109 q 532 -14 666 -14 m 532 170 q 669 208 610 170 q 761 322 728 247 q 794 505 794 397 q 761 688 794 613 q 669 802 728 764 q 532 841 610 841 q 394 802 454 841 q 302 688 335 763 q 269 505 269 613 q 302 322 269 397 q 394 209 335 248 q 532 170 454 170 m 435 1105 l 293 1105 l 370 1316 l 551 1316 l 435 1105 m 672 1105 l 527 1105 l 646 1316 l 840 1316 l 672 1105 z "},"Ǒ":{"ha":1063,"x_min":59,"x_max":1004,"o":"m 532 -14 q 290 47 397 -14 q 121 225 183 109 q 59 505 59 341 q 121 785 59 669 q 290 963 183 901 q 532 1025 397 1025 q 773 963 666 1025 q 942 785 880 901 q 1004 505 1004 669 q 942 225 1004 341 q 773 47 880 109 q 532 -14 666 -14 m 532 170 q 669 208 610 170 q 761 322 728 247 q 794 505 794 397 q 761 688 794 613 q 669 802 728 764 q 532 841 610 841 q 394 802 454 841 q 302 688 335 763 q 269 505 269 613 q 302 322 269 397 q 394 209 335 248 q 532 170 454 170 m 437 1316 l 532 1201 l 627 1316 l 800 1316 l 800 1312 l 610 1111 l 453 1111 l 264 1312 l 264 1316 l 437 1316 z "},"Ǫ":{"ha":1063,"x_min":59,"x_max":1004,"o":"m 532 -14 q 290 47 397 -14 q 121 225 183 109 q 59 505 59 341 q 121 785 59 669 q 290 963 183 901 q 532 1025 397 1025 q 773 963 666 1025 q 942 785 880 901 q 1004 505 1004 669 q 942 225 1004 341 q 773 47 880 109 q 532 -14 666 -14 m 532 170 q 669 208 610 170 q 761 322 728 247 q 794 505 794 397 q 761 688 794 613 q 669 802 728 764 q 532 841 610 841 q 394 802 454 841 q 302 688 335 763 q 269 505 269 613 q 302 322 269 397 q 394 209 335 248 q 532 170 454 170 m 572 -290 q 440 -253 490 -290 q 391 -148 391 -216 q 421 -60 391 -96 q 500 4 451 -24 q 609 59 550 31 q 728 121 669 86 q 836 206 787 156 q 916 328 886 256 q 946 505 946 401 l 1004 505 q 980 316 1004 395 q 919 181 957 237 q 834 89 880 126 q 742 25 788 51 q 657 -22 696 -1 q 595 -64 618 -43 q 572 -116 572 -86 q 584 -152 572 -139 q 623 -165 597 -165 q 648 -161 636 -165 q 672 -153 661 -157 l 706 -263 q 645 -282 682 -275 q 572 -290 609 -290 z "},"Ǭ":{"ha":1063,"x_min":59,"x_max":1004,"o":"m 532 -14 q 290 47 397 -14 q 121 225 183 109 q 59 505 59 341 q 121 785 59 669 q 290 963 183 901 q 532 1025 397 1025 q 773 963 666 1025 q 942 785 880 901 q 1004 505 1004 669 q 942 225 1004 341 q 773 47 880 109 q 532 -14 666 -14 m 532 170 q 669 208 610 170 q 761 322 728 247 q 794 505 794 397 q 761 688 794 613 q 669 802 728 764 q 532 841 610 841 q 394 802 454 841 q 302 688 335 763 q 269 505 269 613 q 302 322 269 397 q 394 209 335 248 q 532 170 454 170 m 572 -290 q 440 -253 490 -290 q 391 -148 391 -216 q 421 -60 391 -96 q 500 4 451 -24 q 609 59 550 31 q 728 121 669 86 q 836 206 787 156 q 916 328 886 256 q 946 505 946 401 l 1004 505 q 980 316 1004 395 q 919 181 957 237 q 834 89 880 126 q 742 25 788 51 q 657 -22 696 -1 q 595 -64 618 -43 q 572 -116 572 -86 q 584 -152 572 -139 q 623 -165 597 -165 q 648 -161 636 -165 q 672 -153 661 -157 l 706 -263 q 645 -282 682 -275 q 572 -290 609 -290 m 728 1275 l 728 1146 l 336 1146 l 336 1275 l 728 1275 z "},"Ȍ":{"ha":1063,"x_min":59,"x_max":1004,"o":"m 532 -14 q 290 47 397 -14 q 121 225 183 109 q 59 505 59 341 q 121 785 59 669 q 290 963 183 901 q 532 1025 397 1025 q 773 963 666 1025 q 942 785 880 901 q 1004 505 1004 669 q 942 225 1004 341 q 773 47 880 109 q 532 -14 666 -14 m 532 170 q 669 208 610 170 q 761 322 728 247 q 794 505 794 397 q 761 688 794 613 q 669 802 728 764 q 532 841 610 841 q 394 802 454 841 q 302 688 335 763 q 269 505 269 613 q 302 322 269 397 q 394 209 335 248 q 532 170 454 170 m 582 1105 l 466 1316 l 648 1316 l 724 1105 l 582 1105 m 345 1105 l 178 1316 l 372 1316 l 490 1105 l 345 1105 z "},"Ȏ":{"ha":1063,"x_min":59,"x_max":1004,"o":"m 532 -14 q 290 47 397 -14 q 121 225 183 109 q 59 505 59 341 q 121 785 59 669 q 290 963 183 901 q 532 1025 397 1025 q 773 963 666 1025 q 942 785 880 901 q 1004 505 1004 669 q 942 225 1004 341 q 773 47 880 109 q 532 -14 666 -14 m 532 170 q 669 208 610 170 q 761 322 728 247 q 794 505 794 397 q 761 688 794 613 q 669 802 728 764 q 532 841 610 841 q 394 802 454 841 q 302 688 335 763 q 269 505 269 613 q 302 322 269 397 q 394 209 335 248 q 532 170 454 170 m 532 1325 q 653 1297 600 1325 q 738 1220 707 1268 q 769 1111 769 1171 l 649 1111 q 615 1184 649 1156 q 532 1213 581 1213 q 448 1184 482 1213 q 414 1111 414 1156 l 294 1111 q 326 1220 294 1171 q 410 1297 357 1268 q 532 1325 464 1325 z "},"Ȫ":{"ha":1063,"x_min":59,"x_max":1004,"o":"m 532 -14 q 290 47 397 -14 q 121 225 183 109 q 59 505 59 341 q 121 785 59 669 q 290 963 183 901 q 532 1025 397 1025 q 773 963 666 1025 q 942 785 880 901 q 1004 505 1004 669 q 942 225 1004 341 q 773 47 880 109 q 532 -14 666 -14 m 532 170 q 669 208 610 170 q 761 322 728 247 q 794 505 794 397 q 761 688 794 613 q 669 802 728 764 q 532 841 610 841 q 394 802 454 841 q 302 688 335 763 q 269 505 269 613 q 302 322 269 397 q 394 209 335 248 q 532 170 454 170 m 682 1095 q 608 1124 638 1095 q 578 1196 578 1154 q 608 1267 578 1238 q 682 1296 638 1296 q 755 1267 725 1296 q 785 1196 785 1238 q 755 1124 785 1154 q 682 1095 725 1095 m 380 1095 q 308 1124 338 1095 q 277 1196 277 1154 q 308 1267 277 1238 q 380 1296 338 1296 q 454 1267 424 1296 q 484 1196 484 1238 q 454 1124 484 1154 q 380 1095 424 1095 m 728 1487 l 728 1377 l 336 1377 l 336 1487 l 728 1487 z "},"Ȭ":{"ha":1063,"x_min":59,"x_max":1004,"o":"m 532 -14 q 290 47 397 -14 q 121 225 183 109 q 59 505 59 341 q 121 785 59 669 q 290 963 183 901 q 532 1025 397 1025 q 773 963 666 1025 q 942 785 880 901 q 1004 505 1004 669 q 942 225 1004 341 q 773 47 880 109 q 532 -14 666 -14 m 532 170 q 669 208 610 170 q 761 322 728 247 q 794 505 794 397 q 761 688 794 613 q 669 802 728 764 q 532 841 610 841 q 394 802 454 841 q 302 688 335 763 q 269 505 269 613 q 302 322 269 397 q 394 209 335 248 q 532 170 454 170 m 628 1105 q 570 1115 595 1105 q 524 1140 545 1126 q 487 1164 504 1154 q 453 1175 469 1175 q 421 1156 432 1175 q 409 1109 410 1138 l 297 1109 q 337 1241 299 1195 q 438 1288 376 1288 q 496 1277 471 1288 q 541 1253 521 1267 q 578 1229 561 1240 q 612 1219 595 1219 q 646 1235 635 1219 q 659 1284 656 1252 l 768 1284 q 727 1152 766 1199 q 628 1105 688 1105 m 728 1487 l 728 1377 l 336 1377 l 336 1487 l 728 1487 z "},"Ȯ":{"ha":1063,"x_min":59,"x_max":1004,"o":"m 532 -14 q 290 47 397 -14 q 121 225 183 109 q 59 505 59 341 q 121 785 59 669 q 290 963 183 901 q 532 1025 397 1025 q 773 963 666 1025 q 942 785 880 901 q 1004 505 1004 669 q 942 225 1004 341 q 773 47 880 109 q 532 -14 666 -14 m 532 170 q 669 208 610 170 q 761 322 728 247 q 794 505 794 397 q 761 688 794 613 q 669 802 728 764 q 532 841 610 841 q 394 802 454 841 q 302 688 335 763 q 269 505 269 613 q 302 322 269 397 q 394 209 335 248 q 532 170 454 170 m 532 1107 q 452 1138 485 1107 q 419 1213 419 1168 q 452 1287 419 1257 q 531 1318 485 1318 q 611 1287 578 1318 q 644 1213 644 1257 q 611 1138 644 1168 q 532 1107 578 1107 z "},"Ȱ":{"ha":1063,"x_min":59,"x_max":1004,"o":"m 532 -14 q 290 47 397 -14 q 121 225 183 109 q 59 505 59 341 q 121 785 59 669 q 290 963 183 901 q 532 1025 397 1025 q 773 963 666 1025 q 942 785 880 901 q 1004 505 1004 669 q 942 225 1004 341 q 773 47 880 109 q 532 -14 666 -14 m 532 170 q 669 208 610 170 q 761 322 728 247 q 794 505 794 397 q 761 688 794 613 q 669 802 728 764 q 532 841 610 841 q 394 802 454 841 q 302 688 335 763 q 269 505 269 613 q 302 322 269 397 q 394 209 335 248 q 532 170 454 170 m 532 1090 q 453 1121 486 1090 q 420 1196 420 1152 q 453 1270 420 1240 q 532 1300 486 1300 q 612 1270 579 1300 q 644 1195 644 1240 q 612 1121 644 1152 q 532 1090 579 1090 m 728 1487 l 728 1377 l 336 1377 l 336 1487 l 728 1487 z "},"Ṍ":{"ha":1063,"x_min":59,"x_max":1004,"o":"m 532 -14 q 290 47 397 -14 q 121 225 183 109 q 59 505 59 341 q 121 785 59 669 q 290 963 183 901 q 532 1025 397 1025 q 773 963 666 1025 q 942 785 880 901 q 1004 505 1004 669 q 942 225 1004 341 q 773 47 880 109 q 532 -14 666 -14 m 532 170 q 669 208 610 170 q 761 322 728 247 q 794 505 794 397 q 761 688 794 613 q 669 802 728 764 q 532 841 610 841 q 394 802 454 841 q 302 688 335 763 q 269 505 269 613 q 302 322 269 397 q 394 209 335 248 q 532 170 454 170 m 628 1105 q 570 1115 595 1105 q 524 1140 545 1126 q 487 1164 504 1154 q 453 1175 469 1175 q 421 1156 432 1175 q 409 1109 410 1138 l 297 1109 q 337 1241 299 1195 q 438 1288 376 1288 q 496 1277 471 1288 q 541 1253 521 1267 q 578 1229 561 1240 q 612 1219 595 1219 q 646 1235 635 1219 q 659 1284 656 1252 l 768 1284 q 727 1152 766 1199 q 628 1105 688 1105 m 462 1350 l 551 1534 l 720 1534 l 587 1350 l 462 1350 z "},"Ṏ":{"ha":1063,"x_min":59,"x_max":1004,"o":"m 532 -14 q 290 47 397 -14 q 121 225 183 109 q 59 505 59 341 q 121 785 59 669 q 290 963 183 901 q 532 1025 397 1025 q 773 963 666 1025 q 942 785 880 901 q 1004 505 1004 669 q 942 225 1004 341 q 773 47 880 109 q 532 -14 666 -14 m 532 170 q 669 208 610 170 q 761 322 728 247 q 794 505 794 397 q 761 688 794 613 q 669 802 728 764 q 532 841 610 841 q 394 802 454 841 q 302 688 335 763 q 269 505 269 613 q 302 322 269 397 q 394 209 335 248 q 532 170 454 170 m 627 1105 q 569 1115 595 1105 q 524 1140 544 1126 q 486 1164 503 1154 q 452 1174 469 1174 q 421 1156 432 1174 q 408 1109 410 1138 l 297 1109 q 337 1240 299 1194 q 438 1286 375 1286 q 495 1276 471 1286 q 540 1253 520 1266 q 577 1229 560 1239 q 612 1218 595 1218 q 645 1235 635 1218 q 658 1283 656 1251 l 768 1283 q 727 1152 766 1198 q 627 1105 688 1105 m 680 1344 q 607 1371 637 1344 q 578 1437 578 1398 q 607 1503 578 1476 q 680 1530 637 1530 q 751 1503 722 1530 q 781 1437 781 1476 q 751 1371 781 1398 q 680 1344 722 1344 m 383 1344 q 311 1371 340 1344 q 281 1437 281 1398 q 311 1503 281 1476 q 383 1530 340 1530 q 455 1503 425 1530 q 484 1437 484 1476 q 455 1371 484 1398 q 383 1344 425 1344 z "},"Ṑ":{"ha":1063,"x_min":59,"x_max":1004,"o":"m 532 -14 q 290 47 397 -14 q 121 225 183 109 q 59 505 59 341 q 121 785 59 669 q 290 963 183 901 q 532 1025 397 1025 q 773 963 666 1025 q 942 785 880 901 q 1004 505 1004 669 q 942 225 1004 341 q 773 47 880 109 q 532 -14 666 -14 m 532 170 q 669 208 610 170 q 761 322 728 247 q 794 505 794 397 q 761 688 794 613 q 669 802 728 764 q 532 841 610 841 q 394 802 454 841 q 302 688 335 763 q 269 505 269 613 q 302 322 269 397 q 394 209 335 248 q 532 170 454 170 m 728 1260 l 728 1131 l 336 1131 l 336 1260 l 728 1260 m 476 1349 l 344 1535 l 511 1535 l 602 1349 l 476 1349 z "},"Ṓ":{"ha":1063,"x_min":59,"x_max":1004,"o":"m 532 -14 q 290 47 397 -14 q 121 225 183 109 q 59 505 59 341 q 121 785 59 669 q 290 963 183 901 q 532 1025 397 1025 q 773 963 666 1025 q 942 785 880 901 q 1004 505 1004 669 q 942 225 1004 341 q 773 47 880 109 q 532 -14 666 -14 m 532 170 q 669 208 610 170 q 761 322 728 247 q 794 505 794 397 q 761 688 794 613 q 669 802 728 764 q 532 841 610 841 q 394 802 454 841 q 302 688 335 763 q 269 505 269 613 q 302 322 269 397 q 394 209 335 248 q 532 170 454 170 m 728 1259 l 728 1131 l 336 1131 l 336 1259 l 728 1259 m 470 1349 l 559 1535 l 728 1535 l 595 1349 l 470 1349 z "},"Ọ":{"ha":1063,"x_min":59,"x_max":1004,"o":"m 532 -14 q 290 47 397 -14 q 121 225 183 109 q 59 505 59 341 q 121 785 59 669 q 290 963 183 901 q 532 1025 397 1025 q 773 963 666 1025 q 942 785 880 901 q 1004 505 1004 669 q 942 225 1004 341 q 773 47 880 109 q 532 -14 666 -14 m 532 170 q 669 208 610 170 q 761 322 728 247 q 794 505 794 397 q 761 688 794 613 q 669 802 728 764 q 532 841 610 841 q 394 802 454 841 q 302 688 335 763 q 269 505 269 613 q 302 322 269 397 q 394 209 335 248 q 532 170 454 170 m 532 -311 q 453 -280 486 -311 q 420 -205 420 -250 q 453 -131 420 -161 q 532 -100 486 -100 q 612 -131 579 -100 q 644 -205 644 -161 q 612 -280 644 -250 q 532 -311 579 -311 z "},"Ỏ":{"ha":1063,"x_min":59,"x_max":1004,"o":"m 532 -14 q 290 47 397 -14 q 121 225 183 109 q 59 505 59 341 q 121 785 59 669 q 290 963 183 901 q 532 1025 397 1025 q 773 963 666 1025 q 942 785 880 901 q 1004 505 1004 669 q 942 225 1004 341 q 773 47 880 109 q 532 -14 666 -14 m 532 170 q 669 208 610 170 q 761 322 728 247 q 794 505 794 397 q 761 688 794 613 q 669 802 728 764 q 532 841 610 841 q 394 802 454 841 q 302 688 335 763 q 269 505 269 613 q 302 322 269 397 q 394 209 335 248 q 532 170 454 170 m 587 1105 l 465 1105 l 517 1196 q 519 1207 522 1204 q 509 1211 517 1211 l 401 1211 l 401 1316 l 510 1316 q 600 1301 567 1316 q 644 1263 632 1286 q 651 1211 656 1239 q 625 1155 645 1182 l 587 1105 z "},"Ố":{"ha":1063,"x_min":59,"x_max":1004,"o":"m 532 -14 q 290 47 397 -14 q 121 225 183 109 q 59 505 59 341 q 121 785 59 669 q 290 963 183 901 q 532 1025 397 1025 q 773 963 666 1025 q 942 785 880 901 q 1004 505 1004 669 q 942 225 1004 341 q 773 47 880 109 q 532 -14 666 -14 m 532 170 q 669 208 610 170 q 761 322 728 247 q 794 505 794 397 q 761 688 794 613 q 669 802 728 764 q 532 841 610 841 q 394 802 454 841 q 302 688 335 763 q 269 505 269 613 q 302 322 269 397 q 394 209 335 248 q 532 170 454 170 m 438 1095 l 265 1095 l 265 1099 l 454 1300 l 611 1300 l 801 1099 l 801 1095 l 628 1095 l 533 1210 l 438 1095 m 632 1347 l 720 1531 l 885 1531 l 755 1347 l 632 1347 z "},"Ồ":{"ha":1063,"x_min":59,"x_max":1004,"o":"m 532 -14 q 290 47 397 -14 q 121 225 183 109 q 59 505 59 341 q 121 785 59 669 q 290 963 183 901 q 532 1025 397 1025 q 773 963 666 1025 q 942 785 880 901 q 1004 505 1004 669 q 942 225 1004 341 q 773 47 880 109 q 532 -14 666 -14 m 532 170 q 669 208 610 170 q 761 322 728 247 q 794 505 794 397 q 761 688 794 613 q 669 802 728 764 q 532 841 610 841 q 394 802 454 841 q 302 688 335 763 q 269 505 269 613 q 302 322 269 397 q 394 209 335 248 q 532 170 454 170 m 438 1095 l 265 1095 l 265 1099 l 454 1300 l 611 1300 l 801 1099 l 801 1095 l 628 1095 l 533 1210 l 438 1095 m 690 1347 l 561 1531 l 726 1531 l 814 1347 l 690 1347 z "},"Ổ":{"ha":1063,"x_min":59,"x_max":1004,"o":"m 532 -14 q 290 47 397 -14 q 121 225 183 109 q 59 505 59 341 q 121 785 59 669 q 290 963 183 901 q 532 1025 397 1025 q 773 963 666 1025 q 942 785 880 901 q 1004 505 1004 669 q 942 225 1004 341 q 773 47 880 109 q 532 -14 666 -14 m 532 170 q 669 208 610 170 q 761 322 728 247 q 794 505 794 397 q 761 688 794 613 q 669 802 728 764 q 532 841 610 841 q 394 802 454 841 q 302 688 335 763 q 269 505 269 613 q 302 322 269 397 q 394 209 335 248 q 532 170 454 170 m 438 1095 l 265 1095 l 265 1099 l 454 1300 l 611 1300 l 801 1099 l 801 1095 l 628 1095 l 533 1210 l 438 1095 m 738 1347 l 632 1347 l 675 1423 q 677 1434 680 1431 q 667 1438 675 1438 l 573 1438 l 573 1531 l 669 1531 q 764 1508 734 1531 q 794 1452 794 1486 q 768 1386 793 1419 l 738 1347 z "},"Ỗ":{"ha":1063,"x_min":59,"x_max":1004,"o":"m 532 -14 q 290 47 397 -14 q 121 225 183 109 q 59 505 59 341 q 121 785 59 669 q 290 963 183 901 q 532 1025 397 1025 q 773 963 666 1025 q 942 785 880 901 q 1004 505 1004 669 q 942 225 1004 341 q 773 47 880 109 q 532 -14 666 -14 m 532 170 q 669 208 610 170 q 761 322 728 247 q 794 505 794 397 q 761 688 794 613 q 669 802 728 764 q 532 841 610 841 q 394 802 454 841 q 302 688 335 763 q 269 505 269 613 q 302 322 269 397 q 394 209 335 248 q 532 170 454 170 m 438 1095 l 265 1095 l 265 1099 l 454 1300 l 611 1300 l 801 1099 l 801 1095 l 628 1095 l 533 1210 l 438 1095 m 627 1356 q 570 1366 595 1356 q 524 1388 545 1375 q 487 1409 504 1400 q 453 1419 469 1419 q 421 1402 432 1419 q 409 1360 410 1385 l 297 1360 q 337 1479 299 1436 q 438 1521 376 1521 q 496 1512 471 1521 q 541 1490 521 1502 q 577 1468 560 1477 q 612 1459 595 1459 q 646 1474 635 1459 q 659 1518 656 1489 l 768 1518 q 727 1399 766 1441 q 627 1356 688 1356 z "},"Ộ":{"ha":1063,"x_min":59,"x_max":1004,"o":"m 532 -14 q 290 47 397 -14 q 121 225 183 109 q 59 505 59 341 q 121 785 59 669 q 290 963 183 901 q 532 1025 397 1025 q 773 963 666 1025 q 942 785 880 901 q 1004 505 1004 669 q 942 225 1004 341 q 773 47 880 109 q 532 -14 666 -14 m 532 170 q 669 208 610 170 q 761 322 728 247 q 794 505 794 397 q 761 688 794 613 q 669 802 728 764 q 532 841 610 841 q 394 802 454 841 q 302 688 335 763 q 269 505 269 613 q 302 322 269 397 q 394 209 335 248 q 532 170 454 170 m 437 1111 l 264 1111 l 264 1115 l 453 1316 l 610 1316 l 800 1115 l 800 1111 l 627 1111 l 532 1226 l 437 1111 m 532 -311 q 453 -280 486 -311 q 420 -205 420 -250 q 453 -131 420 -161 q 532 -100 486 -100 q 612 -131 579 -100 q 644 -205 644 -161 q 612 -280 644 -250 q 532 -311 579 -311 z "},"Ớ":{"ha":1073,"x_min":59,"x_max":1008,"o":"m 536 897 l 536 1025 q 595 1023 571 1025 q 646 1018 620 1021 q 710 1013 672 1015 q 810 1010 749 1010 q 827 1028 827 1010 l 827 1156 l 1008 1156 l 1008 1017 q 968 915 1008 946 q 861 883 927 883 q 795 885 827 883 q 727 890 763 887 q 644 895 690 893 q 536 897 598 897 m 532 -14 q 290 47 397 -14 q 121 225 183 109 q 59 505 59 341 q 121 785 59 669 q 290 963 183 901 q 532 1025 397 1025 q 773 963 666 1025 q 942 785 880 901 q 1004 505 1004 669 q 942 225 1004 341 q 773 47 880 109 q 532 -14 666 -14 m 532 170 q 669 208 610 170 q 761 322 728 247 q 794 505 794 397 q 761 688 794 613 q 669 802 728 764 q 532 841 610 841 q 394 802 454 841 q 302 688 335 763 q 269 505 269 613 q 302 322 269 397 q 394 209 335 248 q 532 170 454 170 m 456 1105 l 556 1316 l 746 1316 l 599 1105 l 456 1105 z "},"Ờ":{"ha":1073,"x_min":59,"x_max":1008,"o":"m 536 897 l 536 1025 q 595 1023 571 1025 q 646 1018 620 1021 q 710 1013 672 1015 q 810 1010 749 1010 q 827 1028 827 1010 l 827 1156 l 1008 1156 l 1008 1017 q 968 915 1008 946 q 861 883 927 883 q 795 885 827 883 q 727 890 763 887 q 644 895 690 893 q 536 897 598 897 m 532 -14 q 290 47 397 -14 q 121 225 183 109 q 59 505 59 341 q 121 785 59 669 q 290 963 183 901 q 532 1025 397 1025 q 773 963 666 1025 q 942 785 880 901 q 1004 505 1004 669 q 942 225 1004 341 q 773 47 880 109 q 532 -14 666 -14 m 532 170 q 669 208 610 170 q 761 322 728 247 q 794 505 794 397 q 761 688 794 613 q 669 802 728 764 q 532 841 610 841 q 394 802 454 841 q 302 688 335 763 q 269 505 269 613 q 302 322 269 397 q 394 209 335 248 q 532 170 454 170 m 464 1105 l 317 1316 l 507 1316 l 606 1105 l 464 1105 z "},"Ở":{"ha":1073,"x_min":59,"x_max":1008,"o":"m 536 897 l 536 1025 q 595 1023 571 1025 q 646 1018 620 1021 q 710 1013 672 1015 q 810 1010 749 1010 q 827 1028 827 1010 l 827 1156 l 1008 1156 l 1008 1017 q 968 915 1008 946 q 861 883 927 883 q 795 885 827 883 q 727 890 763 887 q 644 895 690 893 q 536 897 598 897 m 532 -14 q 290 47 397 -14 q 121 225 183 109 q 59 505 59 341 q 121 785 59 669 q 290 963 183 901 q 532 1025 397 1025 q 773 963 666 1025 q 942 785 880 901 q 1004 505 1004 669 q 942 225 1004 341 q 773 47 880 109 q 532 -14 666 -14 m 532 170 q 669 208 610 170 q 761 322 728 247 q 794 505 794 397 q 761 688 794 613 q 669 802 728 764 q 532 841 610 841 q 394 802 454 841 q 302 688 335 763 q 269 505 269 613 q 302 322 269 397 q 394 209 335 248 q 532 170 454 170 m 587 1105 l 465 1105 l 517 1196 q 519 1207 522 1204 q 509 1211 517 1211 l 401 1211 l 401 1316 l 510 1316 q 600 1301 567 1316 q 644 1263 632 1286 q 651 1211 656 1239 q 625 1155 645 1182 l 587 1105 z "},"Ỡ":{"ha":1073,"x_min":59,"x_max":1008,"o":"m 536 897 l 536 1025 q 595 1023 571 1025 q 646 1018 620 1021 q 710 1013 672 1015 q 810 1010 749 1010 q 827 1028 827 1010 l 827 1156 l 1008 1156 l 1008 1017 q 968 915 1008 946 q 861 883 927 883 q 795 885 827 883 q 727 890 763 887 q 644 895 690 893 q 536 897 598 897 m 532 -14 q 290 47 397 -14 q 121 225 183 109 q 59 505 59 341 q 121 785 59 669 q 290 963 183 901 q 532 1025 397 1025 q 773 963 666 1025 q 942 785 880 901 q 1004 505 1004 669 q 942 225 1004 341 q 773 47 880 109 q 532 -14 666 -14 m 532 170 q 669 208 610 170 q 761 322 728 247 q 794 505 794 397 q 761 688 794 613 q 669 802 728 764 q 532 841 610 841 q 394 802 454 841 q 302 688 335 763 q 269 505 269 613 q 302 322 269 397 q 394 209 335 248 q 532 170 454 170 m 627 1122 q 569 1132 595 1122 q 524 1157 544 1143 q 486 1181 503 1171 q 452 1192 469 1192 q 420 1173 431 1192 q 408 1126 410 1155 l 296 1126 q 337 1258 298 1212 q 437 1305 375 1305 q 495 1294 471 1305 q 540 1270 520 1284 q 577 1246 560 1257 q 612 1236 594 1236 q 645 1252 635 1236 q 658 1301 656 1269 l 768 1301 q 727 1169 766 1216 q 627 1122 688 1122 z "},"Ợ":{"ha":1073,"x_min":59,"x_max":1008,"o":"m 536 897 l 536 1025 q 595 1023 571 1025 q 646 1018 620 1021 q 710 1013 672 1015 q 810 1010 749 1010 q 827 1028 827 1010 l 827 1156 l 1008 1156 l 1008 1017 q 968 915 1008 946 q 861 883 927 883 q 795 885 827 883 q 727 890 763 887 q 644 895 690 893 q 536 897 598 897 m 532 -14 q 290 47 397 -14 q 121 225 183 109 q 59 505 59 341 q 121 785 59 669 q 290 963 183 901 q 532 1025 397 1025 q 773 963 666 1025 q 942 785 880 901 q 1004 505 1004 669 q 942 225 1004 341 q 773 47 880 109 q 532 -14 666 -14 m 532 170 q 669 208 610 170 q 761 322 728 247 q 794 505 794 397 q 761 688 794 613 q 669 802 728 764 q 532 841 610 841 q 394 802 454 841 q 302 688 335 763 q 269 505 269 613 q 302 322 269 397 q 394 209 335 248 q 532 170 454 170 m 532 -311 q 453 -280 486 -311 q 420 -205 420 -250 q 453 -131 420 -161 q 532 -100 486 -100 q 612 -131 579 -100 q 644 -205 644 -161 q 612 -280 644 -250 q 532 -311 579 -311 z "},"Ǿ":{"ha":1063,"x_min":59,"x_max":1004,"o":"m 532 -14 q 290 47 397 -14 q 121 225 183 109 q 59 505 59 341 q 121 785 59 669 q 290 963 183 901 q 532 1025 397 1025 q 773 963 666 1025 q 942 785 880 901 q 1004 505 1004 669 q 942 225 1004 341 q 773 47 880 109 q 532 -14 666 -14 m 532 170 q 669 208 610 170 q 761 322 728 247 q 794 505 794 397 q 761 688 794 613 q 669 802 728 764 q 532 841 610 841 q 394 802 454 841 q 302 688 335 763 q 269 505 269 613 q 302 322 269 397 q 394 209 335 248 q 532 170 454 170 m 205 -45 l 102 31 l 858 1055 l 961 979 l 205 -45 m 456 1105 l 556 1316 l 746 1316 l 599 1105 l 456 1105 z "},"Ο":{"ha":1063,"x_min":59,"x_max":1004,"o":"m 532 -14 q 290 47 397 -14 q 121 225 183 109 q 59 505 59 341 q 121 785 59 669 q 290 963 183 901 q 532 1025 397 1025 q 773 963 666 1025 q 942 785 880 901 q 1004 505 1004 669 q 942 225 1004 341 q 773 47 880 109 q 532 -14 666 -14 m 532 170 q 669 208 610 170 q 761 322 728 247 q 794 505 794 397 q 761 688 794 613 q 669 802 728 764 q 532 841 610 841 q 394 802 454 841 q 302 688 335 763 q 269 505 269 613 q 302 322 269 397 q 394 209 335 248 q 532 170 454 170 z "},"Ό":{"ha":1256,"x_min":46,"x_max":1185,"o":"m 713 -14 q 472 47 579 -14 q 303 225 365 109 q 241 505 241 341 q 303 785 241 669 q 472 963 365 901 q 713 1025 579 1025 q 955 963 848 1025 q 1123 785 1061 901 q 1185 505 1185 669 q 1123 225 1185 341 q 955 47 1061 109 q 713 -14 848 -14 m 713 170 q 851 208 792 170 q 943 322 910 247 q 976 505 976 397 q 943 688 976 613 q 851 802 910 764 q 713 841 792 841 q 576 802 635 841 q 484 688 517 763 q 451 505 451 613 q 484 322 451 397 q 576 209 517 248 q 713 170 635 170 m 47 799 l 69 1010 l 251 1010 l 168 799 l 47 799 z "},"Ὀ":{"ha":1260,"x_min":46,"x_max":1190,"o":"m 717 -14 q 475 47 583 -14 q 306 225 368 109 q 244 505 244 341 q 306 785 244 669 q 475 963 368 901 q 717 1025 583 1025 q 958 963 851 1025 q 1127 785 1065 901 q 1189 505 1189 669 q 1127 225 1189 341 q 958 47 1065 109 q 717 -14 851 -14 m 717 170 q 854 208 795 170 q 946 322 913 247 q 979 505 979 397 q 946 688 979 613 q 854 802 913 764 q 717 841 795 841 q 579 802 639 841 q 487 688 520 763 q 454 505 454 613 q 487 322 454 397 q 579 209 520 248 q 717 170 639 170 m 75 798 l 66 798 l 66 854 l 76 854 q 129 865 111 854 q 146 897 146 876 q 130 925 146 916 q 81 935 114 935 l 46 935 l 46 1029 l 75 1029 q 208 998 161 1029 q 254 913 254 968 q 207 828 254 857 q 75 798 161 798 z "},"Ὁ":{"ha":1274,"x_min":46,"x_max":1203,"o":"m 731 -14 q 490 47 597 -14 q 320 225 382 109 q 258 505 258 341 q 320 785 258 669 q 490 963 382 901 q 731 1025 597 1025 q 972 963 865 1025 q 1141 785 1079 901 q 1203 505 1203 669 q 1141 225 1203 341 q 972 47 1079 109 q 731 -14 865 -14 m 731 170 q 869 208 810 170 q 961 322 928 247 q 994 505 994 397 q 961 688 994 613 q 869 802 928 764 q 731 841 810 841 q 594 802 653 841 q 502 688 534 763 q 469 505 469 613 q 502 322 469 397 q 594 209 534 248 q 731 170 653 170 m 225 785 q 93 814 139 785 q 46 899 46 844 q 92 985 46 954 q 225 1015 138 1015 l 254 1015 l 254 921 l 219 921 q 170 911 186 921 q 153 883 153 902 q 171 851 153 862 q 224 841 189 841 l 234 841 l 234 785 l 225 785 z "},"Ὂ":{"ha":1508,"x_min":46,"x_max":1438,"o":"m 966 -14 q 724 47 831 -14 q 555 225 617 109 q 493 505 493 341 q 555 785 493 669 q 724 963 617 901 q 966 1025 831 1025 q 1207 963 1100 1025 q 1376 785 1314 901 q 1438 505 1438 669 q 1376 225 1438 341 q 1207 47 1314 109 q 966 -14 1100 -14 m 966 170 q 1103 208 1044 170 q 1195 322 1162 247 q 1228 505 1228 397 q 1195 688 1228 613 q 1103 802 1162 764 q 966 841 1044 841 q 828 802 888 841 q 736 688 769 763 q 703 505 703 613 q 736 322 703 397 q 828 209 769 248 q 966 170 888 170 m 75 785 l 66 785 l 66 841 l 76 841 q 129 851 111 841 q 146 883 146 862 q 130 911 146 902 q 81 921 114 921 l 46 921 l 46 1015 l 75 1015 q 208 985 161 1015 q 254 899 254 954 q 207 814 254 844 q 75 785 161 785 m 462 792 l 353 792 l 277 1010 l 441 1010 l 462 792 z "},"Ὃ":{"ha":1534,"x_min":46,"x_max":1463,"o":"m 991 -14 q 750 47 857 -14 q 581 225 643 109 q 519 505 519 341 q 581 785 519 669 q 750 963 643 901 q 991 1025 857 1025 q 1233 963 1126 1025 q 1401 785 1339 901 q 1463 505 1463 669 q 1401 225 1463 341 q 1233 47 1339 109 q 991 -14 1126 -14 m 991 170 q 1129 208 1070 170 q 1221 322 1188 247 q 1254 505 1254 397 q 1221 688 1254 613 q 1129 802 1188 764 q 991 841 1070 841 q 854 802 913 841 q 762 688 795 763 q 729 505 729 613 q 762 322 729 397 q 854 209 795 248 q 991 170 913 170 m 225 785 q 93 814 139 785 q 46 899 46 844 q 92 985 46 954 q 225 1015 138 1015 l 254 1015 l 254 921 l 219 921 q 170 911 186 921 q 153 883 153 902 q 171 851 153 862 q 224 841 189 841 l 234 841 l 234 785 l 225 785 m 486 792 l 376 792 l 300 1010 l 465 1010 l 486 792 z "},"Ὄ":{"ha":1516,"x_min":46,"x_max":1446,"o":"m 974 -14 q 732 47 840 -14 q 563 225 625 109 q 501 505 501 341 q 563 785 501 669 q 732 963 625 901 q 974 1025 840 1025 q 1215 963 1108 1025 q 1384 785 1322 901 q 1446 505 1446 669 q 1384 225 1446 341 q 1215 47 1322 109 q 974 -14 1108 -14 m 974 170 q 1112 208 1053 170 q 1203 322 1171 247 q 1236 505 1236 397 q 1203 688 1236 613 q 1112 802 1171 764 q 974 841 1053 841 q 837 802 896 841 q 744 688 777 763 q 711 505 711 613 q 744 322 711 397 q 837 209 777 248 q 974 170 896 170 m 75 785 l 66 785 l 66 841 l 76 841 q 129 851 111 841 q 146 883 146 862 q 130 911 146 902 q 81 921 114 921 l 46 921 l 46 1015 l 75 1015 q 208 985 161 1015 q 254 899 254 954 q 207 814 254 844 q 75 785 161 785 m 332 792 l 352 1010 l 516 1010 l 440 792 l 332 792 z "},"Ὅ":{"ha":1535,"x_min":46,"x_max":1466,"o":"m 993 -14 q 751 47 859 -14 q 582 225 644 109 q 520 505 520 341 q 582 785 520 669 q 751 963 644 901 q 993 1025 859 1025 q 1234 963 1127 1025 q 1403 785 1341 901 q 1465 505 1465 669 q 1403 225 1465 341 q 1234 47 1341 109 q 993 -14 1127 -14 m 993 170 q 1131 208 1072 170 q 1222 322 1190 247 q 1255 505 1255 397 q 1222 688 1255 613 q 1131 802 1190 764 q 993 841 1072 841 q 856 802 915 841 q 763 688 796 763 q 730 505 730 613 q 763 322 730 397 q 856 209 796 248 q 993 170 915 170 m 225 785 q 93 814 139 785 q 46 899 46 844 q 92 985 46 954 q 225 1015 138 1015 l 254 1015 l 254 921 l 219 921 q 170 911 186 921 q 153 883 153 902 q 171 851 153 862 q 224 841 189 841 l 234 841 l 234 785 l 225 785 m 345 792 l 366 1010 l 530 1010 l 454 792 l 345 792 z "},"Ὸ":{"ha":1063,"x_min":-220,"x_max":1004,"o":"m 532 -14 q 290 47 397 -14 q 121 225 183 109 q 59 505 59 341 q 121 785 59 669 q 290 963 183 901 q 532 1025 397 1025 q 773 963 666 1025 q 942 785 880 901 q 1004 505 1004 669 q 942 225 1004 341 q 773 47 880 109 q 532 -14 666 -14 m 532 170 q 669 208 610 170 q 761 322 728 247 q 794 505 794 397 q 761 688 794 613 q 669 802 728 764 q 532 841 610 841 q 394 802 454 841 q 302 688 335 763 q 269 505 269 613 q 302 322 269 397 q 394 209 335 248 q 532 170 454 170 m -16 839 l -136 839 l -220 1050 l -38 1050 l -16 839 z "},"ϴ":{"ha":1063,"x_min":59,"x_max":1004,"o":"m 865 573 l 865 437 l 211 437 l 211 573 l 865 573 m 532 -14 q 290 47 397 -14 q 121 225 183 109 q 59 505 59 341 q 121 785 59 669 q 290 963 183 901 q 532 1025 397 1025 q 773 963 666 1025 q 942 785 880 901 q 1004 505 1004 669 q 942 225 1004 341 q 773 47 880 109 q 532 -14 666 -14 m 532 170 q 669 208 610 170 q 761 322 728 247 q 794 505 794 397 q 761 688 794 613 q 669 802 728 764 q 532 841 610 841 q 394 802 454 841 q 302 688 335 763 q 269 505 269 613 q 302 322 269 397 q 394 209 335 248 q 532 170 454 170 z "},"Ό":{"ha":1256,"x_min":46,"x_max":1185,"o":"m 713 -14 q 472 47 579 -14 q 303 225 365 109 q 241 505 241 341 q 303 785 241 669 q 472 963 365 901 q 713 1025 579 1025 q 955 963 848 1025 q 1123 785 1061 901 q 1185 505 1185 669 q 1123 225 1185 341 q 955 47 1061 109 q 713 -14 848 -14 m 713 170 q 851 208 792 170 q 943 322 910 247 q 976 505 976 397 q 943 688 976 613 q 851 802 910 764 q 713 841 792 841 q 576 802 635 841 q 484 688 517 763 q 451 505 451 613 q 484 322 451 397 q 576 209 517 248 q 713 170 635 170 m 47 799 l 69 1010 l 251 1010 l 168 799 l 47 799 z "},"О":{"ha":1063,"x_min":59,"x_max":1004,"o":"m 532 -14 q 290 47 397 -14 q 121 225 183 109 q 59 505 59 341 q 121 785 59 669 q 290 963 183 901 q 532 1025 397 1025 q 773 963 666 1025 q 942 785 880 901 q 1004 505 1004 669 q 942 225 1004 341 q 773 47 880 109 q 532 -14 666 -14 m 532 170 q 669 208 610 170 q 761 322 728 247 q 794 505 794 397 q 761 688 794 613 q 669 802 728 764 q 532 841 610 841 q 394 802 454 841 q 302 688 335 763 q 269 505 269 613 q 302 322 269 397 q 394 209 335 248 q 532 170 454 170 z "},"Ӧ":{"ha":1063,"x_min":59,"x_max":1004,"o":"m 532 -14 q 290 47 397 -14 q 121 225 183 109 q 59 505 59 341 q 121 785 59 669 q 290 963 183 901 q 532 1025 397 1025 q 773 963 666 1025 q 942 785 880 901 q 1004 505 1004 669 q 942 225 1004 341 q 773 47 880 109 q 532 -14 666 -14 m 532 170 q 669 208 610 170 q 761 322 728 247 q 794 505 794 397 q 761 688 794 613 q 669 802 728 764 q 532 841 610 841 q 394 802 454 841 q 302 688 335 763 q 269 505 269 613 q 302 322 269 397 q 394 209 335 248 q 532 170 454 170 m 682 1112 q 609 1142 639 1112 q 578 1213 578 1171 q 609 1284 578 1255 q 682 1313 639 1313 q 755 1284 726 1313 q 785 1213 785 1255 q 755 1141 785 1171 q 682 1112 726 1112 m 381 1112 q 308 1142 338 1112 q 278 1213 278 1171 q 308 1284 278 1255 q 381 1313 338 1313 q 454 1284 425 1313 q 484 1213 484 1255 q 454 1141 484 1171 q 381 1112 425 1112 z "},"Ɵ":{"ha":1063,"x_min":59,"x_max":1004,"o":"m 865 573 l 865 437 l 211 437 l 211 573 l 865 573 m 532 -14 q 290 47 397 -14 q 121 225 183 109 q 59 505 59 341 q 121 785 59 669 q 290 963 183 901 q 532 1025 397 1025 q 773 963 666 1025 q 942 785 880 901 q 1004 505 1004 669 q 942 225 1004 341 q 773 47 880 109 q 532 -14 666 -14 m 532 170 q 669 208 610 170 q 761 322 728 247 q 794 505 794 397 q 761 688 794 613 q 669 802 728 764 q 532 841 610 841 q 394 802 454 841 q 302 688 335 763 q 269 505 269 613 q 302 322 269 397 q 394 209 335 248 q 532 170 454 170 z "},"Ө":{"ha":1063,"x_min":59,"x_max":1004,"o":"m 865 573 l 865 437 l 211 437 l 211 573 l 865 573 m 532 -14 q 290 47 397 -14 q 121 225 183 109 q 59 505 59 341 q 121 785 59 669 q 290 963 183 901 q 532 1025 397 1025 q 773 963 666 1025 q 942 785 880 901 q 1004 505 1004 669 q 942 225 1004 341 q 773 47 880 109 q 532 -14 666 -14 m 532 170 q 669 208 610 170 q 761 322 728 247 q 794 505 794 397 q 761 688 794 613 q 669 802 728 764 q 532 841 610 841 q 394 802 454 841 q 302 688 335 763 q 269 505 269 613 q 302 322 269 397 q 394 209 335 248 q 532 170 454 170 z "},"Ӫ":{"ha":1063,"x_min":59,"x_max":1004,"o":"m 865 573 l 865 437 l 211 437 l 211 573 l 865 573 m 532 -14 q 290 47 397 -14 q 121 225 183 109 q 59 505 59 341 q 121 785 59 669 q 290 963 183 901 q 532 1025 397 1025 q 773 963 666 1025 q 942 785 880 901 q 1004 505 1004 669 q 942 225 1004 341 q 773 47 880 109 q 532 -14 666 -14 m 532 170 q 669 208 610 170 q 761 322 728 247 q 794 505 794 397 q 761 688 794 613 q 669 802 728 764 q 532 841 610 841 q 394 802 454 841 q 302 688 335 763 q 269 505 269 613 q 302 322 269 397 q 394 209 335 248 q 532 170 454 170 m 682 1112 q 609 1142 639 1112 q 578 1213 578 1171 q 609 1284 578 1255 q 682 1313 639 1313 q 755 1284 726 1313 q 785 1213 785 1255 q 755 1141 785 1171 q 682 1112 726 1112 m 381 1112 q 308 1142 338 1112 q 278 1213 278 1171 q 308 1284 278 1255 q 381 1313 338 1313 q 454 1284 425 1313 q 484 1213 484 1255 q 454 1141 484 1171 q 381 1112 425 1112 z "},"Œ":{"ha":1417,"x_min":59,"x_max":1349,"o":"m 543 0 q 288 62 397 0 q 119 237 179 123 q 59 505 59 351 q 119 774 59 661 q 288 949 179 887 q 543 1010 397 1010 l 774 1010 l 774 833 l 553 833 q 398 797 462 833 q 300 688 334 761 q 266 505 266 616 q 300 322 266 395 q 397 214 334 250 q 550 178 460 178 l 771 178 l 771 0 l 543 0 m 661 0 l 661 1010 l 1348 1010 l 1348 837 l 868 837 l 868 595 l 1312 595 l 1312 425 l 868 425 l 868 174 l 1349 174 l 1349 0 l 661 0 z "},"P":{"ha":895,"x_min":87,"x_max":846,"o":"m 87 0 l 87 1010 l 483 1010 q 679 967 597 1010 q 803 848 760 924 q 846 671 846 772 q 803 495 846 571 q 677 376 759 419 q 479 334 595 334 l 219 334 l 219 503 l 451 503 q 553 524 512 503 q 614 583 594 545 q 635 671 635 621 q 614 760 635 722 q 553 818 594 797 q 450 839 512 839 l 295 839 l 295 0 l 87 0 z "},"Ṕ":{"ha":895,"x_min":87,"x_max":846,"o":"m 87 0 l 87 1010 l 483 1010 q 679 967 597 1010 q 803 848 760 924 q 846 671 846 772 q 803 495 846 571 q 677 376 759 419 q 479 334 595 334 l 219 334 l 219 503 l 451 503 q 553 524 512 503 q 614 583 594 545 q 635 671 635 621 q 614 760 635 722 q 553 818 594 797 q 450 839 512 839 l 295 839 l 295 0 l 87 0 m 366 1105 l 466 1316 l 656 1316 l 509 1105 l 366 1105 z "},"Ṗ":{"ha":895,"x_min":87,"x_max":846,"o":"m 87 0 l 87 1010 l 483 1010 q 679 967 597 1010 q 803 848 760 924 q 846 671 846 772 q 803 495 846 571 q 677 376 759 419 q 479 334 595 334 l 219 334 l 219 503 l 451 503 q 553 524 512 503 q 614 583 594 545 q 635 671 635 621 q 614 760 635 722 q 553 818 594 797 q 450 839 512 839 l 295 839 l 295 0 l 87 0 m 441 1107 q 362 1138 395 1107 q 329 1213 329 1168 q 362 1287 329 1257 q 441 1318 395 1318 q 521 1287 488 1318 q 553 1213 553 1257 q 521 1138 553 1168 q 441 1107 488 1107 z "},"Ҏ":{"ha":907,"x_min":92,"x_max":850,"o":"m 516 662 l 762 283 l 672 225 l 426 604 l 516 662 m 92 0 l 92 1010 l 488 1010 q 683 967 602 1010 q 807 848 764 924 q 850 671 850 772 q 807 495 850 571 q 681 376 764 419 q 483 334 599 334 l 224 334 l 224 503 l 455 503 q 557 524 517 503 q 618 583 598 545 q 639 671 639 621 q 618 760 639 722 q 557 818 598 797 q 454 839 516 839 l 300 839 l 300 0 l 92 0 z "},"Ƥ":{"ha":1158,"x_min":31,"x_max":1109,"o":"m 31 718 l 31 779 q 96 953 31 895 q 297 1010 161 1010 l 351 1010 l 351 838 l 305 838 q 241 819 262 838 q 220 761 220 800 l 220 718 l 31 718 m 351 0 l 351 1010 l 746 1010 q 942 967 861 1010 q 1066 848 1023 924 q 1109 671 1109 772 q 1066 495 1109 571 q 940 376 1022 419 q 742 334 858 334 l 482 334 l 482 503 l 714 503 q 816 524 775 503 q 878 583 857 545 q 898 671 898 621 q 878 760 898 722 q 816 818 857 797 q 713 839 775 839 l 558 839 l 558 0 l 351 0 z "},"Ρ":{"ha":895,"x_min":87,"x_max":846,"o":"m 87 0 l 87 1010 l 483 1010 q 679 967 597 1010 q 803 848 760 924 q 846 671 846 772 q 803 495 846 571 q 677 376 759 419 q 479 334 595 334 l 219 334 l 219 503 l 451 503 q 553 524 512 503 q 614 583 594 545 q 635 671 635 621 q 614 760 635 722 q 553 818 594 797 q 450 839 512 839 l 295 839 l 295 0 l 87 0 z "},"Ῥ":{"ha":1180,"x_min":46,"x_max":1131,"o":"m 372 0 l 372 1010 l 768 1010 q 964 967 882 1010 q 1088 848 1045 924 q 1131 671 1131 772 q 1087 495 1131 571 q 962 376 1044 419 q 764 334 880 334 l 504 334 l 504 503 l 736 503 q 838 524 797 503 q 899 583 879 545 q 920 671 920 621 q 899 760 920 722 q 838 818 879 797 q 735 839 797 839 l 580 839 l 580 0 l 372 0 m 225 785 q 93 814 139 785 q 46 899 46 844 q 92 985 46 954 q 225 1015 138 1015 l 254 1015 l 254 921 l 219 921 q 170 911 186 921 q 153 883 153 902 q 171 851 153 862 q 224 841 189 841 l 234 841 l 234 785 l 225 785 z "},"Q":{"ha":1069,"x_min":59,"x_max":1004,"o":"m 464 347 l 641 347 l 734 227 l 818 130 l 987 -84 l 795 -84 l 680 60 l 622 140 l 464 347 m 532 -14 q 290 47 397 -14 q 121 225 183 109 q 59 505 59 341 q 121 785 59 669 q 290 963 183 901 q 532 1025 397 1025 q 773 963 666 1025 q 942 785 880 901 q 1004 505 1004 669 q 942 225 1004 341 q 773 47 880 109 q 532 -14 666 -14 m 532 170 q 669 208 610 170 q 761 322 728 247 q 794 505 794 397 q 761 688 794 613 q 669 802 728 764 q 532 841 610 841 q 394 802 454 841 q 302 688 335 763 q 269 505 269 613 q 302 322 269 397 q 394 209 335 248 q 532 170 454 170 z "},"Ɋ":{"ha":1068,"x_min":59,"x_max":1127,"o":"m 980 1010 l 980 0 l 778 0 l 778 150 l 772 150 q 660 31 733 77 q 485 -15 586 -15 q 314 24 392 -15 q 179 134 236 64 q 90 300 121 205 q 59 506 59 395 q 91 711 59 617 q 180 876 122 806 q 315 985 237 946 q 485 1024 393 1024 q 660 979 587 1024 q 772 863 733 934 l 778 863 l 778 1010 l 980 1010 m 524 170 q 666 211 609 170 q 750 329 722 253 q 778 506 778 404 q 749 683 778 607 q 664 800 721 758 q 524 842 608 842 q 388 801 445 842 q 300 684 331 760 q 270 506 270 608 q 301 325 270 400 q 389 210 332 250 q 524 170 446 170 m 1021 -292 q 839 -238 899 -292 q 778 -77 778 -184 l 778 0 l 980 0 l 980 -75 q 999 -122 980 -108 q 1062 -137 1017 -137 q 1095 -136 1078 -137 q 1127 -133 1112 -135 l 1127 -283 q 1080 -290 1107 -288 q 1021 -292 1053 -292 z "},"R":{"ha":910,"x_min":87,"x_max":881,"o":"m 87 0 l 87 1010 l 484 1010 q 680 970 599 1010 q 805 855 762 929 q 848 681 848 781 q 804 509 848 581 q 677 397 760 436 q 477 359 594 359 l 211 359 l 211 526 l 452 526 q 554 544 513 526 q 615 597 595 562 q 636 681 636 631 q 615 767 636 732 q 554 820 595 802 q 452 839 513 839 l 295 839 l 295 0 l 87 0 m 652 0 l 410 459 l 633 459 l 881 0 l 652 0 z "},"Ŕ":{"ha":910,"x_min":87,"x_max":881,"o":"m 87 0 l 87 1010 l 484 1010 q 680 970 599 1010 q 805 855 762 929 q 848 681 848 781 q 804 509 848 581 q 677 397 760 436 q 477 359 594 359 l 211 359 l 211 526 l 452 526 q 554 544 513 526 q 615 597 595 562 q 636 681 636 631 q 615 767 636 732 q 554 820 595 802 q 452 839 513 839 l 295 839 l 295 0 l 87 0 m 652 0 l 410 459 l 633 459 l 881 0 l 652 0 m 374 1105 l 474 1316 l 664 1316 l 517 1105 l 374 1105 z "},"Ŗ":{"ha":910,"x_min":87,"x_max":881,"o":"m 87 0 l 87 1010 l 484 1010 q 680 970 599 1010 q 805 855 762 929 q 848 681 848 781 q 804 509 848 581 q 677 397 760 436 q 477 359 594 359 l 211 359 l 211 526 l 452 526 q 554 544 513 526 q 615 597 595 562 q 636 681 636 631 q 615 767 636 732 q 554 820 595 802 q 452 839 513 839 l 295 839 l 295 0 l 87 0 m 652 0 l 410 459 l 633 459 l 881 0 l 652 0 m 311 -325 l 371 -80 l 559 -80 l 452 -325 l 311 -325 z "},"Ř":{"ha":910,"x_min":87,"x_max":881,"o":"m 87 0 l 87 1010 l 484 1010 q 680 970 599 1010 q 805 855 762 929 q 848 681 848 781 q 804 509 848 581 q 677 397 760 436 q 477 359 594 359 l 211 359 l 211 526 l 452 526 q 554 544 513 526 q 615 597 595 562 q 636 681 636 631 q 615 767 636 732 q 554 820 595 802 q 452 839 513 839 l 295 839 l 295 0 l 87 0 m 652 0 l 410 459 l 633 459 l 881 0 l 652 0 m 355 1316 l 450 1201 l 545 1316 l 718 1316 l 718 1312 l 528 1111 l 371 1111 l 182 1312 l 182 1316 l 355 1316 z "},"Ȑ":{"ha":910,"x_min":87,"x_max":881,"o":"m 87 0 l 87 1010 l 484 1010 q 680 970 599 1010 q 805 855 762 929 q 848 681 848 781 q 804 509 848 581 q 677 397 760 436 q 477 359 594 359 l 211 359 l 211 526 l 452 526 q 554 544 513 526 q 615 597 595 562 q 636 681 636 631 q 615 767 636 732 q 554 820 595 802 q 452 839 513 839 l 295 839 l 295 0 l 87 0 m 652 0 l 410 459 l 633 459 l 881 0 l 652 0 m 500 1105 l 385 1316 l 566 1316 l 642 1105 l 500 1105 m 263 1105 l 96 1316 l 290 1316 l 409 1105 l 263 1105 z "},"Ȓ":{"ha":910,"x_min":87,"x_max":881,"o":"m 87 0 l 87 1010 l 484 1010 q 680 970 599 1010 q 805 855 762 929 q 848 681 848 781 q 804 509 848 581 q 677 397 760 436 q 477 359 594 359 l 211 359 l 211 526 l 452 526 q 554 544 513 526 q 615 597 595 562 q 636 681 636 631 q 615 767 636 732 q 554 820 595 802 q 452 839 513 839 l 295 839 l 295 0 l 87 0 m 652 0 l 410 459 l 633 459 l 881 0 l 652 0 m 450 1325 q 571 1297 518 1325 q 656 1220 625 1268 q 687 1111 687 1171 l 567 1111 q 533 1184 567 1156 q 450 1213 498 1213 q 366 1184 400 1213 q 332 1111 332 1156 l 212 1111 q 243 1220 212 1171 q 328 1297 275 1268 q 450 1325 382 1325 z "},"Ṙ":{"ha":910,"x_min":87,"x_max":881,"o":"m 87 0 l 87 1010 l 484 1010 q 680 970 599 1010 q 805 855 762 929 q 848 681 848 781 q 804 509 848 581 q 677 397 760 436 q 477 359 594 359 l 211 359 l 211 526 l 452 526 q 554 544 513 526 q 615 597 595 562 q 636 681 636 631 q 615 767 636 732 q 554 820 595 802 q 452 839 513 839 l 295 839 l 295 0 l 87 0 m 652 0 l 410 459 l 633 459 l 881 0 l 652 0 m 450 1107 q 370 1138 403 1107 q 337 1213 337 1168 q 370 1287 337 1257 q 449 1318 403 1318 q 529 1287 496 1318 q 562 1213 562 1257 q 529 1138 562 1168 q 450 1107 496 1107 z "},"Ṛ":{"ha":910,"x_min":87,"x_max":881,"o":"m 87 0 l 87 1010 l 484 1010 q 680 970 599 1010 q 805 855 762 929 q 848 681 848 781 q 804 509 848 581 q 677 397 760 436 q 477 359 594 359 l 211 359 l 211 526 l 452 526 q 554 544 513 526 q 615 597 595 562 q 636 681 636 631 q 615 767 636 732 q 554 820 595 802 q 452 839 513 839 l 295 839 l 295 0 l 87 0 m 652 0 l 410 459 l 633 459 l 881 0 l 652 0 m 465 -311 q 386 -280 418 -311 q 353 -205 353 -250 q 386 -131 353 -161 q 465 -100 418 -100 q 545 -131 512 -100 q 577 -205 577 -161 q 545 -280 577 -250 q 465 -311 512 -311 z "},"Ṝ":{"ha":910,"x_min":87,"x_max":881,"o":"m 87 0 l 87 1010 l 484 1010 q 680 970 599 1010 q 805 855 762 929 q 848 681 848 781 q 804 509 848 581 q 677 397 760 436 q 477 359 594 359 l 211 359 l 211 526 l 452 526 q 554 544 513 526 q 615 597 595 562 q 636 681 636 631 q 615 767 636 732 q 554 820 595 802 q 452 839 513 839 l 295 839 l 295 0 l 87 0 m 652 0 l 410 459 l 633 459 l 881 0 l 652 0 m 465 -311 q 386 -280 418 -311 q 353 -205 353 -250 q 386 -131 353 -161 q 465 -100 418 -100 q 545 -131 512 -100 q 577 -205 577 -161 q 545 -280 577 -250 q 465 -311 512 -311 m 646 1275 l 646 1146 l 254 1146 l 254 1275 l 646 1275 z "},"Ṟ":{"ha":910,"x_min":87,"x_max":881,"o":"m 87 0 l 87 1010 l 484 1010 q 680 970 599 1010 q 805 855 762 929 q 848 681 848 781 q 804 509 848 581 q 677 397 760 436 q 477 359 594 359 l 211 359 l 211 526 l 452 526 q 554 544 513 526 q 615 597 595 562 q 636 681 636 631 q 615 767 636 732 q 554 820 595 802 q 452 839 513 839 l 295 839 l 295 0 l 87 0 m 652 0 l 410 459 l 633 459 l 881 0 l 652 0 m 661 -134 l 661 -263 l 269 -263 l 269 -134 l 661 -134 z "},"℟":{"ha":910,"x_min":91,"x_max":884,"o":"m 648 1151 l 336 -248 l 256 -235 l 557 1099 l 340 1152 l 363 1225 l 648 1151 m 91 0 l 91 1010 l 487 1010 q 683 970 602 1010 q 807 855 764 929 q 850 681 850 781 q 806 509 850 581 q 680 397 762 436 q 481 359 597 359 l 214 359 l 214 526 l 455 526 q 557 544 517 526 q 618 597 598 562 q 639 681 639 631 q 618 767 639 732 q 557 820 598 802 q 454 839 516 839 l 298 839 l 298 0 l 91 0 m 655 0 l 413 459 l 636 459 l 884 0 l 655 0 z "},"℞":{"ha":1049,"x_min":87,"x_max":989,"o":"m 87 1010 l 474 1010 q 677 971 596 1010 q 800 862 759 932 q 840 696 840 791 q 811 556 840 616 q 732 456 783 496 q 616 394 682 416 l 571 376 l 222 376 l 221 547 l 470 547 q 562 563 525 547 q 617 612 598 580 q 635 692 635 645 q 618 769 635 736 q 565 821 601 802 q 474 840 530 840 l 294 840 l 294 0 l 87 0 l 87 1010 m 808 0 l 479 456 l 656 456 l 989 0 l 808 0 m 639 0 l 489 0 l 822 456 l 966 456 l 639 0 z "},"Ɍ":{"ha":927,"x_min":8,"x_max":903,"o":"m 230 374 l 8 374 l 8 530 l 230 530 l 230 374 m 109 0 l 109 1010 l 506 1010 q 702 970 621 1010 q 826 855 783 929 q 869 681 869 781 q 825 509 869 581 q 699 397 781 436 q 499 359 616 359 l 233 359 l 233 526 l 474 526 q 576 544 535 526 q 637 597 616 562 q 658 681 658 631 q 637 767 658 732 q 576 820 616 802 q 473 839 535 839 l 317 839 l 317 0 l 109 0 m 674 0 l 432 459 l 655 459 l 903 0 l 674 0 z "},"S":{"ha":909,"x_min":56,"x_max":853,"o":"m 461 -15 q 248 23 338 -15 q 107 135 157 61 q 56 317 58 210 l 257 317 q 286 230 260 266 q 357 177 313 195 q 460 159 402 159 q 557 175 515 159 q 622 220 599 191 q 645 288 645 250 q 625 346 645 322 q 566 387 605 370 q 469 416 527 404 l 359 444 q 154 542 227 475 q 81 720 81 610 q 130 880 81 811 q 265 986 179 948 q 462 1025 351 1025 q 658 986 574 1025 q 789 878 742 947 q 838 718 836 809 l 638 718 q 586 816 633 781 q 460 851 538 851 q 370 836 408 851 q 312 794 332 821 q 292 732 292 767 q 314 672 292 696 q 373 632 335 648 q 457 606 410 616 l 549 583 q 672 544 616 568 q 769 484 728 519 q 831 400 810 448 q 853 290 853 352 q 806 129 853 197 q 672 22 760 60 q 461 -15 585 -15 z "},"Ś":{"ha":909,"x_min":56,"x_max":853,"o":"m 461 -15 q 248 23 338 -15 q 107 135 157 61 q 56 317 58 210 l 257 317 q 286 230 260 266 q 357 177 313 195 q 460 159 402 159 q 557 175 515 159 q 622 220 599 191 q 645 288 645 250 q 625 346 645 322 q 566 387 605 370 q 469 416 527 404 l 359 444 q 154 542 227 475 q 81 720 81 610 q 130 880 81 811 q 265 986 179 948 q 462 1025 351 1025 q 658 986 574 1025 q 789 878 742 947 q 838 718 836 809 l 638 718 q 586 816 633 781 q 460 851 538 851 q 370 836 408 851 q 312 794 332 821 q 292 732 292 767 q 314 672 292 696 q 373 632 335 648 q 457 606 410 616 l 549 583 q 672 544 616 568 q 769 484 728 519 q 831 400 810 448 q 853 290 853 352 q 806 129 853 197 q 672 22 760 60 q 461 -15 585 -15 m 379 1105 l 479 1316 l 669 1316 l 522 1105 l 379 1105 z "}}}
